<?xml version="1.0" encoding="utf-8"?>
<!-- Generator: Adobe Illustrator 17.0.0, SVG Export Plug-In . SVG Version: 6.00 Build 0)  -->
<!DOCTYPE svg PUBLIC "-//W3C//DTD SVG 1.1//EN" "http://www.w3.org/Graphics/SVG/1.1/DTD/svg11.dtd">
<svg version="1.1" id="Layer_1" xmlns="http://www.w3.org/2000/svg" xmlns:xlink="http://www.w3.org/1999/xlink" x="0px" y="0px"
	 width="129.983px" height="70px" viewBox="0 0 129.983 70" enable-background="new 0 0 129.983 70" xml:space="preserve">
<g>
	<polygon fill="#FFFFFF" points="62.35,14.856 49.299,0 47.292,0 47.292,30.114 53.315,30.114 53.315,12.647 62.35,22.686 
		71.364,12.671 71.364,4.61 	"/>
	<polygon fill="#FFFFFF" points="82.65,30.114 76.627,30.114 76.627,0 78.635,0 82.691,4.61 82.691,12.671 82.67,12.647 	"/>
</g>
<g>
	<path fill="#FFFFFF" d="M4.5,59.716V70H0V54.396l4.5-0.481v1.43c1.007-0.942,2.292-1.415,3.856-1.415
		c2.036,0,3.588,0.617,4.66,1.848c1.177-1.231,2.946-1.848,5.303-1.848c2.036,0,3.588,0.617,4.66,1.848
		c1.072,1.233,1.607,2.652,1.607,4.259V70h-4.498v-8.837c0-1.072-0.242-1.902-0.725-2.491c-0.481-0.591-1.264-0.901-2.344-0.934
		c-0.891,0.065-1.663,0.653-2.316,1.768c-0.052,0.332-0.08,0.671-0.08,1.011V70h-4.498v-8.837c0-1.072-0.242-1.902-0.725-2.491
		c-0.481-0.591-1.264-0.901-2.346-0.934C6.068,57.803,5.216,58.463,4.5,59.716z"/>
	<path fill="#FFFFFF" d="M27.704,61.965c0-2.357,0.75-4.285,2.249-5.784c1.501-1.501,3.429-2.251,5.786-2.251
		s4.231,0.75,5.624,2.251c1.393,1.499,2.09,3.427,2.09,5.784v1.607H32.364c0.108,0.858,0.483,1.527,1.126,2.01
		c0.643,0.481,1.391,0.722,2.249,0.722c1.499,0,2.838-0.429,4.017-1.285l2.57,2.57C41.149,69.196,38.952,70,35.738,70
		c-2.357,0-4.285-0.75-5.786-2.249C28.454,66.25,27.704,64.322,27.704,61.965z M37.988,58.349c-0.643-0.481-1.393-0.722-2.249-0.722
		c-0.858,0-1.607,0.242-2.249,0.722c-0.643,0.483-0.964,1.154-0.964,2.01h6.426C38.952,59.503,38.63,58.832,37.988,58.349z"/>
	<path fill="#FFFFFF" d="M51.131,55.699c1.147-1.177,2.545-1.768,4.194-1.768c0.526,0,1.024,0.043,1.494,0.129l-0.705,4.436
		c-0.526-0.472-1.277-0.725-2.251-0.757c-1.091,0.075-2.003,0.869-2.732,2.379V70h-4.498V54.396l4.498-0.481V55.699z"/>
	<path fill="#FFFFFF" d="M60.194,45.895h4.822v13.644l4.61-5.609h5.417l-6.01,7.215L76.65,70h-6.267l-5.367-6.411V70h-4.822V45.895z
		"/>
	<path fill="#FFFFFF" d="M79.059,70V45.895h4.5V70H79.059z"/>
	<path fill="#FFFFFF" d="M88.75,48.459c0.429-0.433,1.007-0.651,1.736-0.651c0.77,0,1.371,0.218,1.798,0.651
		c0.429,0.433,0.643,0.973,0.643,1.615c0,0.643-0.213,1.177-0.643,1.607c-0.427,0.429-1.018,0.643-1.766,0.643
		c-0.75,0-1.339-0.213-1.768-0.643c-0.429-0.429-0.643-0.964-0.643-1.607C88.107,49.432,88.321,48.893,88.75,48.459z M92.767,70
		V53.915h-4.5V70H92.767z"/>
	<path fill="#FFFFFF" d="M101.188,59.781V70h-4.5V54.396l4.5-0.481v1.462c1.083-0.964,2.368-1.447,3.856-1.447
		c2.036,0,3.59,0.617,4.66,1.848c1.072,1.233,1.609,2.652,1.609,4.259V70h-4.5v-8.837c0-1.072-0.267-1.902-0.804-2.491
		c-0.535-0.591-1.343-0.901-2.426-0.934C102.65,57.803,101.852,58.485,101.188,59.781z"/>
	<path fill="#FFFFFF" d="M114.234,61.965c0-2.357,0.75-4.285,2.251-5.784c1.499-1.501,3.427-2.251,5.784-2.251
		s4.233,0.75,5.624,2.251c1.393,1.499,2.09,3.427,2.09,5.784v1.607h-11.088c0.108,0.858,0.483,1.527,1.126,2.01
		c0.643,0.481,1.393,0.722,2.249,0.722c1.501,0,2.84-0.429,4.017-1.285l2.573,2.57c-1.18,1.607-3.375,2.411-6.59,2.411
		c-2.357,0-4.285-0.75-5.784-2.249C114.985,66.25,114.234,64.322,114.234,61.965z M124.521,58.349
		c-0.643-0.481-1.393-0.722-2.251-0.722c-0.856,0-1.607,0.242-2.249,0.722c-0.643,0.483-0.964,1.154-0.964,2.01h6.428
		C125.485,59.503,125.163,58.832,124.521,58.349z"/>
</g>
</svg>
