<?xml version="1.0" encoding="utf-8"?>
<!-- Generator: Adobe Illustrator 17.0.0, SVG Export Plug-In . SVG Version: 6.00 Build 0)  -->
<!DOCTYPE svg PUBLIC "-//W3C//DTD SVG 1.1//EN" "http://www.w3.org/Graphics/SVG/1.1/DTD/svg11.dtd">
<svg version="1.1" id="Layer_1" xmlns="http://www.w3.org/2000/svg" xmlns:xlink="http://www.w3.org/1999/xlink" x="0px" y="0px"
	 width="163.536px" height="120.371px" viewBox="0 0 163.536 120.371" enable-background="new 0 0 163.536 120.371"
	 xml:space="preserve">
<g opacity="0.5">
	<path fill="#77A9DB" d="M118.199,119.371c-0.635,0-1.15-0.516-1.15-1.15v-7.918c0-0.635,0.516-1.15,1.15-1.15
		c0.635,0,1.15,0.516,1.15,1.15v7.918C119.35,118.855,118.834,119.371,118.199,119.371z"/>
	<path fill="#77A9DB" d="M122.159,115.412h-7.919c-0.635,0-1.15-0.516-1.15-1.15c0-0.635,0.516-1.15,1.15-1.15h7.919
		c0.635,0,1.15,0.516,1.15,1.15S122.794,115.412,122.159,115.412z"/>
</g>
<g opacity="0.5">
	<path fill="#77A9DB" d="M45.881,8.9c-0.294,0-0.589-0.112-0.813-0.337c-0.449-0.449-0.449-1.178,0-1.627l5.599-5.6
		c0.449-0.449,1.178-0.449,1.627,0c0.449,0.449,0.449,1.178,0,1.627l-5.599,5.6C46.47,8.788,46.175,8.9,45.881,8.9z"/>
	<path fill="#77A9DB" d="M51.479,8.9c-0.294,0-0.589-0.112-0.813-0.337l-5.598-5.6c-0.449-0.449-0.449-1.178,0-1.627
		s1.178-0.449,1.627,0l5.598,5.6c0.449,0.449,0.449,1.178,0,1.627C52.068,8.788,51.773,8.9,51.479,8.9z"/>
</g>
<path opacity="0.5" fill="#77A9DB" d="M140.436,51.25c-2.411,0-4.373-1.962-4.373-4.373s1.962-4.373,4.373-4.373
	s4.373,1.962,4.373,4.373S142.848,51.25,140.436,51.25z M140.436,44.805c-1.143,0-2.072,0.93-2.072,2.072s0.93,2.072,2.072,2.072
	c1.143,0,2.072-0.93,2.072-2.072S141.579,44.805,140.436,44.805z"/>
<g opacity="0.5">
	<path fill="#77A9DB" d="M162.386,20.578h-23.83c-0.635,0-1.15-0.516-1.15-1.15s0.516-1.15,1.15-1.15h23.83
		c0.635,0,1.15,0.516,1.15,1.15S163.02,20.578,162.386,20.578z"/>
	<path fill="#77A9DB" d="M133.956,20.578h-8.43c-0.635,0-1.15-0.516-1.15-1.15s0.516-1.15,1.15-1.15h8.43
		c0.635,0,1.15,0.516,1.15,1.15S134.591,20.578,133.956,20.578z"/>
	<path fill="#77A9DB" d="M135.873,13.552h-23.831c-0.635,0-1.15-0.516-1.15-1.15c0-0.635,0.516-1.15,1.15-1.15h23.831
		c0.635,0,1.15,0.516,1.15,1.15S136.508,13.552,135.873,13.552z"/>
	<path fill="#77A9DB" d="M144.745,13.552h-4.215c-0.635,0-1.15-0.516-1.15-1.15c0-0.635,0.516-1.15,1.15-1.15h4.215
		c0.635,0,1.15,0.516,1.15,1.15C145.895,13.036,145.38,13.552,144.745,13.552z"/>
</g>
<g opacity="0.5">
	<path fill="#77A9DB" d="M40.236,30.828H25.173c-0.635,0-1.15-0.516-1.15-1.15s0.516-1.15,1.15-1.15h15.063
		c0.635,0,1.15,0.516,1.15,1.15S40.871,30.828,40.236,30.828z"/>
	<path fill="#77A9DB" d="M20.575,30.828h-5.01c-0.635,0-1.15-0.516-1.15-1.15s0.516-1.15,1.15-1.15h5.01
		c0.635,0,1.15,0.516,1.15,1.15S21.21,30.828,20.575,30.828z"/>
</g>
<path opacity="0.5" fill="#77A9DB" d="M60.596,108.886H36.765c-0.635,0-1.15-0.516-1.15-1.15c0-0.635,0.516-1.15,1.15-1.15h23.831
	c0.635,0,1.15,0.516,1.15,1.15C61.746,108.37,61.23,108.886,60.596,108.886z"/>
<path opacity="0.5" fill="#77A9DB" d="M32.166,108.886h-8.432c-0.635,0-1.15-0.516-1.15-1.15c0-0.635,0.516-1.15,1.15-1.15h8.432
	c0.635,0,1.15,0.516,1.15,1.15S32.801,108.886,32.166,108.886z"/>
<path opacity="0.5" fill="#77A9DB" d="M24.469,100.652H1.15c-0.635,0-1.15-0.516-1.15-1.15c0-0.635,0.516-1.15,1.15-1.15h23.318
	c0.635,0,1.15,0.516,1.15,1.15C25.619,100.137,25.103,100.652,24.469,100.652z"/>
<path opacity="0.5" fill="#77A9DB" d="M33.15,100.652h-4.125c-0.635,0-1.15-0.516-1.15-1.15c0-0.635,0.516-1.15,1.15-1.15h4.125
	c0.635,0,1.15,0.516,1.15,1.15C34.301,100.137,33.785,100.652,33.15,100.652z"/>
<g>
	<path fill="#77A9DB" d="M129.624,101.078c-0.005,0-0.013,0-0.02,0H48.502c-0.475,0-0.9-0.292-1.072-0.734L34.098,66.011
		c-0.137-0.353-0.091-0.752,0.123-1.065c0.215-0.313,0.569-0.501,0.949-0.501h81.103c0.475,0,0.9,0.292,1.072,0.734l13.26,34.146
		c0.107,0.175,0.17,0.382,0.17,0.602C130.774,100.563,130.26,101.078,129.624,101.078z M49.289,98.777h78.635l-12.438-32.032H36.85
		L49.289,98.777z"/>
	<path fill="#77A9DB" d="M48.502,66.745c-0.635,0-1.15-0.516-1.15-1.15V46.952c-0.01-0.146,0.009-0.296,0.057-0.438l3.437-10.282
		c0.157-0.47,0.596-0.786,1.091-0.786h4.211c0.635,0,1.15,0.516,1.15,1.15c0,0.635-0.516,1.15-1.15,1.15h-3.383l-3.111,9.31v18.538
		C49.652,66.229,49.137,66.745,48.502,66.745z"/>
	<path fill="#77A9DB" d="M129.604,101.078c-0.635,0-1.15-0.516-1.15-1.15v-51.9h-7.683c-0.635,0-1.15-0.516-1.15-1.15
		c0-0.635,0.516-1.15,1.15-1.15h8.833c0.635,0,1.15,0.516,1.15,1.15v53.051C130.755,100.563,130.239,101.078,129.604,101.078z"/>
	<path fill="#77A9DB" d="M56.146,66.745c-0.635,0-1.15-0.516-1.15-1.15v-41.5c0-0.635,0.516-1.15,1.15-1.15h57.333
		c0.635,0,1.15,0.516,1.15,1.15v41.083c0,0.635-0.516,1.15-1.15,1.15c-0.635,0-1.15-0.516-1.15-1.15V25.245H57.297v40.35
		C57.297,66.229,56.781,66.745,56.146,66.745z"/>
	<path fill="#77A9DB" d="M87.396,35.87H64.521c-0.635,0-1.15-0.516-1.15-1.15s0.516-1.15,1.15-1.15h22.875
		c0.635,0,1.15,0.516,1.15,1.15S88.031,35.87,87.396,35.87z"/>
	<path fill="#77A9DB" d="M105.146,43.12H64.521c-0.635,0-1.15-0.516-1.15-1.15s0.516-1.15,1.15-1.15h40.625
		c0.635,0,1.15,0.516,1.15,1.15S105.781,43.12,105.146,43.12z"/>
	<path fill="#77A9DB" d="M105.146,50.37H64.521c-0.635,0-1.15-0.516-1.15-1.15s0.516-1.15,1.15-1.15h40.625
		c0.635,0,1.15,0.516,1.15,1.15S105.781,50.37,105.146,50.37z"/>
	<path fill="#77A9DB" d="M105.146,57.62H64.521c-0.635,0-1.15-0.516-1.15-1.15s0.516-1.15,1.15-1.15h40.625
		c0.635,0,1.15,0.516,1.15,1.15S105.781,57.62,105.146,57.62z"/>
	<path fill="#77A9DB" d="M119.854,75.97c-0.635,0-1.15-0.516-1.15-1.15V32.953h-5.226c-0.635,0-1.15-0.516-1.15-1.15
		s0.516-1.15,1.15-1.15h6.376c0.635,0,1.15,0.516,1.15,1.15V74.82C121.005,75.454,120.489,75.97,119.854,75.97z"/>
</g>
</svg>
