<?xml version="1.0" encoding="utf-8"?>
<!-- Generator: Adobe Illustrator 17.0.0, SVG Export Plug-In . SVG Version: 6.00 Build 0)  -->
<!DOCTYPE svg PUBLIC "-//W3C//DTD SVG 1.1//EN" "http://www.w3.org/Graphics/SVG/1.1/DTD/svg11.dtd">
<svg version="1.1" id="Layer_1" xmlns="http://www.w3.org/2000/svg" xmlns:xlink="http://www.w3.org/1999/xlink" x="0px" y="0px"
	 width="163.536px" height="120.371px" viewBox="0 0 163.536 120.371" enable-background="new 0 0 163.536 120.371"
	 xml:space="preserve">
<g opacity="0.5">
	<path fill="#77A9DB" d="M83.327,24.406c-0.635,0-1.15-0.516-1.15-1.15v-7.918c0-0.635,0.516-1.15,1.15-1.15
		c0.635,0,1.15,0.516,1.15,1.15v7.918C84.478,23.89,83.962,24.406,83.327,24.406z"/>
	<path fill="#77A9DB" d="M87.287,20.447h-7.919c-0.635,0-1.15-0.516-1.15-1.15s0.516-1.15,1.15-1.15h7.919
		c0.635,0,1.15,0.516,1.15,1.15S87.922,20.447,87.287,20.447z"/>
</g>
<g opacity="0.5">
	<path fill="#77A9DB" d="M97.54,113.268c-0.294,0-0.589-0.112-0.813-0.337c-0.449-0.449-0.449-1.178,0-1.627l5.599-5.6
		c0.449-0.449,1.178-0.449,1.627,0s0.449,1.178,0,1.627l-5.599,5.6C98.129,113.156,97.834,113.268,97.54,113.268z"/>
	<path fill="#77A9DB" d="M103.139,113.268c-0.294,0-0.589-0.112-0.813-0.337l-5.598-5.6c-0.449-0.449-0.449-1.178,0-1.627
		s1.178-0.449,1.627,0l5.598,5.6c0.449,0.449,0.449,1.178,0,1.627C103.728,113.156,103.433,113.268,103.139,113.268z"/>
</g>
<path opacity="0.5" fill="#77A9DB" d="M22.115,57.9c-2.411,0-4.373-1.962-4.373-4.373s1.962-4.373,4.373-4.373
	s4.373,1.962,4.373,4.373C26.488,55.938,24.526,57.9,22.115,57.9z M22.115,51.454c-1.143,0-2.072,0.93-2.072,2.072
	c0,1.143,0.93,2.072,2.072,2.072s2.072-0.93,2.072-2.072S23.257,51.454,22.115,51.454z"/>
<g opacity="0.5">
	<path fill="#77A9DB" d="M53.194,23.959h-23.83c-0.635,0-1.15-0.516-1.15-1.15s0.516-1.15,1.15-1.15h23.83
		c0.635,0,1.15,0.516,1.15,1.15S53.829,23.959,53.194,23.959z"/>
	<path fill="#77A9DB" d="M24.765,23.959h-8.43c-0.635,0-1.15-0.516-1.15-1.15s0.516-1.15,1.15-1.15h8.43
		c0.635,0,1.15,0.516,1.15,1.15S25.399,23.959,24.765,23.959z"/>
	<path fill="#77A9DB" d="M26.682,16.933H2.851c-0.635,0-1.15-0.516-1.15-1.15c0-0.635,0.516-1.15,1.15-1.15h23.831
		c0.635,0,1.15,0.516,1.15,1.15C27.832,16.417,27.316,16.933,26.682,16.933z"/>
	<path fill="#77A9DB" d="M35.554,16.933h-4.215c-0.635,0-1.15-0.516-1.15-1.15c0-0.635,0.516-1.15,1.15-1.15h4.215
		c0.635,0,1.15,0.516,1.15,1.15C36.704,16.417,36.188,16.933,35.554,16.933z"/>
</g>
<g opacity="0.5">
	<path fill="#77A9DB" d="M29.646,110.468H14.583c-0.635,0-1.15-0.516-1.15-1.15c0-0.635,0.516-1.15,1.15-1.15h15.063
		c0.635,0,1.15,0.516,1.15,1.15C30.797,109.952,30.281,110.468,29.646,110.468z"/>
	<path fill="#77A9DB" d="M9.985,110.468h-5.01c-0.635,0-1.15-0.516-1.15-1.15c0-0.635,0.516-1.15,1.15-1.15h5.01
		c0.635,0,1.15,0.516,1.15,1.15C11.136,109.952,10.62,110.468,9.985,110.468z"/>
</g>
<path opacity="0.5" fill="#77A9DB" d="M25.776,68.689H9.707c-0.635,0-1.15-0.516-1.15-1.15c0-0.635,0.516-1.15,1.15-1.15h16.069
	c0.635,0,1.15,0.516,1.15,1.15C26.926,68.174,26.41,68.689,25.776,68.689z"/>
<path opacity="0.5" fill="#77A9DB" d="M156.344,67.54h-8.432c-0.635,0-1.15-0.516-1.15-1.15c0-0.635,0.516-1.15,1.15-1.15h8.432
	c0.635,0,1.15,0.516,1.15,1.15C157.494,67.025,156.979,67.54,156.344,67.54z"/>
<path opacity="0.5" fill="#77A9DB" d="M148.646,59.306h-13.885c-0.635,0-1.15-0.516-1.15-1.15c0-0.635,0.516-1.15,1.15-1.15h13.885
	c0.635,0,1.15,0.516,1.15,1.15C149.797,58.791,149.281,59.306,148.646,59.306z"/>
<path opacity="0.5" fill="#77A9DB" d="M157.328,59.306h-4.125c-0.635,0-1.15-0.516-1.15-1.15c0-0.635,0.516-1.15,1.15-1.15h4.125
	c0.635,0,1.15,0.516,1.15,1.15C158.479,58.791,157.963,59.306,157.328,59.306z"/>
<g>
	<g>
		<path fill="#77A9DB" d="M124.012,87.821c-0.635,0-1.15-0.516-1.15-1.15v-48c0-2.123-1.727-3.85-3.85-3.85H45.181
			c-2.123,0-3.85,1.727-3.85,3.85v48c0,0.635-0.516,1.15-1.15,1.15s-1.15-0.516-1.15-1.15v-48c0-3.392,2.759-6.15,6.15-6.15h73.831
			c3.392,0,6.15,2.759,6.15,6.15v48C125.162,87.305,124.646,87.821,124.012,87.821z"/>
	</g>
	<path fill="#77A9DB" d="M65.887,82.317c-0.408,0-0.788-0.217-0.995-0.573L52.647,60.635l-14.96,20.302
		c-0.378,0.512-1.097,0.619-1.608,0.243c-0.511-0.377-0.62-1.097-0.243-1.608l16-21.713c0.23-0.312,0.601-0.486,0.988-0.466
		c0.388,0.021,0.737,0.236,0.933,0.571l11.969,20.633l15.353-36.254c0.18-0.426,0.597-0.702,1.059-0.702h7.25
		c0.464,0,0.882,0.279,1.06,0.707l5.455,13.043h11.493l15.569-34.324c0.262-0.579,0.944-0.838,1.521-0.572
		c0.579,0.262,0.835,0.943,0.572,1.522l-15.875,35c-0.186,0.411-0.596,0.676-1.047,0.676h-13c-0.464,0-0.882-0.279-1.061-0.707
		L88.62,43.943h-5.723L66.945,81.615c-0.17,0.401-0.552,0.672-0.986,0.699C65.935,82.316,65.91,82.317,65.887,82.317z"/>
	<path fill="#77A9DB" d="M126.061,31.379c-0.572,0-1.067-0.427-1.141-1.009l-1.113-8.956l-7.199,5.442
		c-0.507,0.384-1.229,0.281-1.61-0.224c-0.384-0.507-0.283-1.227,0.224-1.61l8.788-6.644c0.327-0.25,0.764-0.302,1.141-0.143
		c0.379,0.16,0.644,0.51,0.694,0.918l1.359,10.933c0.078,0.63-0.369,1.204-1,1.283C126.155,31.376,126.107,31.379,126.061,31.379z"
		/>
	<path fill="#77A9DB" d="M113.845,68.821H85.762c-0.635,0-1.15-0.516-1.15-1.15v-3.833c0-0.635,0.516-1.15,1.15-1.15h28.083
		c0.635,0,1.15,0.516,1.15,1.15v3.833C114.995,68.305,114.479,68.821,113.845,68.821z M86.912,66.52h25.782v-1.532H86.912V66.52z"/>
	<path fill="#77A9DB" d="M113.845,76.071H85.762c-0.635,0-1.15-0.516-1.15-1.15v-3.833c0-0.635,0.516-1.15,1.15-1.15h28.083
		c0.635,0,1.15,0.516,1.15,1.15v3.833C114.995,75.555,114.479,76.071,113.845,76.071z M86.912,73.77h25.782v-1.532H86.912V73.77z"/>
	<path fill="#77A9DB" d="M113.845,83.321H85.762c-0.635,0-1.15-0.516-1.15-1.15v-3.833c0-0.635,0.516-1.15,1.15-1.15h28.083
		c0.635,0,1.15,0.516,1.15,1.15v3.833C114.995,82.805,114.479,83.321,113.845,83.321z M86.912,81.02h25.782v-1.532H86.912V81.02z"/>
	<g>
		<path fill="#77A9DB" d="M77.317,87.783c-0.083-0.359-0.138-0.729-0.138-1.113h-2.478C75.428,87.28,76.324,87.675,77.317,87.783z"
			/>
	</g>
	<path fill="#77A9DB" d="M131.012,97.654H33.181c-3.391,0-6.15-2.759-6.15-6.15V86.67c0-0.635,0.516-1.15,1.15-1.15H77.18
		c0.635,0,1.15,0.516,1.15,1.15c0,2.076,1.689,3.766,3.766,3.766c2.077,0,3.767-1.689,3.767-3.766c0-0.635,0.516-1.15,1.15-1.15
		h48.999c0.635,0,1.15,0.516,1.15,1.15v4.833C137.162,94.895,134.403,97.654,131.012,97.654z M29.331,87.821v3.683
		c0,2.123,1.727,3.85,3.85,3.85h97.831c2.123,0,3.85-1.727,3.85-3.85v-3.683H88.054c-0.539,2.797-3.006,4.916-5.958,4.916
		s-5.418-2.119-5.957-4.916H29.331z"/>
</g>
</svg>
