<?xml version="1.0" encoding="utf-8"?>
<!-- Generator: Adobe Illustrator 17.0.0, SVG Export Plug-In . SVG Version: 6.00 Build 0)  -->
<!DOCTYPE svg PUBLIC "-//W3C//DTD SVG 1.1//EN" "http://www.w3.org/Graphics/SVG/1.1/DTD/svg11.dtd">
<svg version="1.1" id="Layer_1" xmlns="http://www.w3.org/2000/svg" xmlns:xlink="http://www.w3.org/1999/xlink" x="0px" y="0px"
	 width="163.536px" height="120.371px" viewBox="0 0 163.536 120.371" enable-background="new 0 0 163.536 120.371"
	 xml:space="preserve">
<g opacity="0.5">
	<path fill="#77A9DB" d="M88.178,106.909c-0.635,0-1.15-0.515-1.15-1.149v-7.92c0-0.635,0.516-1.149,1.15-1.149
		c0.635,0,1.15,0.515,1.15,1.149v7.92C89.328,106.395,88.813,106.909,88.178,106.909z"/>
	<path fill="#77A9DB" d="M92.138,102.949h-7.919c-0.635,0-1.15-0.514-1.15-1.149c0-0.636,0.516-1.149,1.15-1.149h7.919
		c0.635,0,1.15,0.514,1.15,1.149C93.288,102.436,92.772,102.949,92.138,102.949z"/>
</g>
<g opacity="0.5">
	<path fill="#77A9DB" d="M103.46,13.807c-0.294,0-0.589-0.112-0.813-0.336c-0.449-0.449-0.449-1.177,0-1.626l5.599-5.6
		c0.449-0.449,1.178-0.449,1.627-0.001c0.449,0.449,0.449,1.177,0,1.626l-5.599,5.6C104.049,13.694,103.754,13.807,103.46,13.807z"
		/>
	<path fill="#77A9DB" d="M109.059,13.806c-0.294,0-0.589-0.112-0.813-0.337l-5.598-5.6c-0.449-0.449-0.449-1.177,0-1.626
		c0.449-0.448,1.178-0.449,1.627,0.001l5.598,5.6c0.449,0.449,0.449,1.177,0,1.626C109.647,13.694,109.353,13.806,109.059,13.806z"
		/>
</g>
<path opacity="0.5" fill="#77A9DB" d="M12.223,61.081c-2.411,0-4.373-1.962-4.373-4.373s1.962-4.372,4.373-4.372
	s4.373,1.962,4.373,4.372C16.596,59.119,14.634,61.081,12.223,61.081z M12.223,54.636c-1.143,0-2.072,0.93-2.072,2.072
	c0,1.143,0.93,2.073,2.072,2.073s2.072-0.93,2.072-2.073C14.295,55.565,13.365,54.636,12.223,54.636z"/>
<g opacity="0.5">
	<path fill="#77A9DB" d="M151.023,59.171h-8.43c-0.635,0-1.15-0.515-1.15-1.15c0-0.635,0.516-1.15,1.15-1.15h8.43
		c0.635,0,1.15,0.515,1.15,1.15C152.174,58.657,151.658,59.171,151.023,59.171z"/>
	<path fill="#77A9DB" d="M152.94,52.145h-23.831c-0.635,0-1.15-0.515-1.15-1.15c0-0.635,0.516-1.15,1.15-1.15h23.831
		c0.635,0,1.15,0.515,1.15,1.15C154.091,51.63,153.575,52.145,152.94,52.145z"/>
	<path fill="#77A9DB" d="M161.813,52.145h-4.215c-0.635,0-1.15-0.515-1.15-1.15c0-0.635,0.516-1.15,1.15-1.15h4.215
		c0.635,0,1.15,0.515,1.15,1.15S162.447,52.145,161.813,52.145z"/>
</g>
<g opacity="0.5">
	<path fill="#77A9DB" d="M62.349,113.65H47.285c-0.635,0-1.15-0.516-1.15-1.15c0-0.635,0.516-1.15,1.15-1.15h15.063
		c0.635,0,1.15,0.516,1.15,1.15C63.499,113.135,62.983,113.65,62.349,113.65z"/>
	<path fill="#77A9DB" d="M42.688,113.65h-5.01c-0.635,0-1.15-0.516-1.15-1.15c0-0.635,0.516-1.15,1.15-1.15h5.01
		c0.635,0,1.15,0.516,1.15,1.15C43.838,113.135,43.322,113.65,42.688,113.65z"/>
</g>
<g opacity="0.5">
	<path fill="#77A9DB" d="M61.596,19.24H37.765c-0.635,0-1.15-0.515-1.15-1.15s0.516-1.15,1.15-1.15h23.831
		c0.635,0,1.15,0.515,1.15,1.15C62.746,18.725,62.23,19.24,61.596,19.24z"/>
	<path fill="#77A9DB" d="M33.166,19.24h-8.432c-0.635,0-1.15-0.515-1.15-1.15s0.516-1.15,1.15-1.15h8.432
		c0.635,0,1.15,0.515,1.15,1.15S33.801,19.24,33.166,19.24z"/>
</g>
<g opacity="0.5">
	<path fill="#77A9DB" d="M25.469,11.007H2.15c-0.635,0-1.15-0.515-1.15-1.15c0-0.635,0.516-1.15,1.15-1.15h23.318
		c0.635,0,1.15,0.515,1.15,1.15C26.619,10.492,26.103,11.007,25.469,11.007z"/>
	<path fill="#77A9DB" d="M34.15,11.007h-4.125c-0.635,0-1.15-0.515-1.15-1.15c0-0.635,0.516-1.15,1.15-1.15h4.125
		c0.635,0,1.15,0.515,1.15,1.15C35.301,10.492,34.785,11.007,34.15,11.007z"/>
</g>
<g>
	<g>
		<path fill="#77A9DB" d="M94.55,54.696l4.252,0.871v-1.163l-4.657-0.954C94.289,53.861,94.425,54.276,94.55,54.696z"/>
		<path fill="#77A9DB" d="M80.4,87.854c-0.356,0.183-0.73,0.336-1.095,0.506l4.249,2.805l0.74-0.74L80.4,87.854z"/>
	</g>
	<path fill="#77A9DB" d="M62.283,77.533c-9.375,0-17.003-7.627-17.003-17.003c0-9.375,7.628-17.003,17.003-17.003
		c9.376,0,17.004,7.627,17.004,17.003C79.287,69.906,71.659,77.533,62.283,77.533z M62.283,45.827
		c-8.107,0-14.702,6.596-14.702,14.703c0,8.108,6.595,14.705,14.702,14.705c8.108,0,14.703-6.597,14.703-14.705
		S70.391,45.827,62.283,45.827z"/>
	<path fill="#77A9DB" d="M62.283,68.605c-4.453,0-8.076-3.623-8.076-8.076s3.623-8.076,8.076-8.076s8.076,3.623,8.076,8.076
		S66.736,68.605,62.283,68.605z M62.283,54.754c-3.185,0-5.775,2.591-5.775,5.776s2.591,5.777,5.775,5.777
		c3.185,0,5.775-2.592,5.775-5.777C68.059,57.345,65.468,54.754,62.283,54.754z"/>
	<path fill="#77A9DB" d="M68.634,98.475H55.832c-0.546,0-1.018-0.385-1.127-0.92l-1.892-9.244c-1.147-0.393-2.285-0.864-3.396-1.408
		l-7.858,5.187c-0.457,0.3-1.06,0.239-1.447-0.147L31.06,82.89c-0.386-0.386-0.447-0.991-0.146-1.446l5.132-7.771
		c-0.573-1.143-1.072-2.326-1.49-3.531l-9.072-1.857c-0.535-0.109-0.92-0.58-0.92-1.127l0.001-12.802
		c0-0.546,0.385-1.017,0.92-1.126l8.908-1.823c0.422-1.289,0.938-2.554,1.538-3.778l-4.983-7.545
		c-0.301-0.456-0.239-1.061,0.146-1.447l9.054-9.052c0.387-0.387,0.992-0.446,1.447-0.146l7.434,4.909
		c1.276-0.646,2.599-1.2,3.946-1.651l1.778-8.69c0.109-0.535,0.581-0.92,1.127-0.92h12.802c0.546,0,1.017,0.384,1.127,0.919
		l1.779,8.689c1.357,0.454,2.688,1.011,3.969,1.662l7.399-4.885c0.457-0.299,1.06-0.239,1.447,0.147l9.051,9.052
		c0.386,0.386,0.447,0.991,0.147,1.447l-4.962,7.515c0.609,1.242,1.131,2.527,1.557,3.836l8.837,1.81
		c0.535,0.109,0.92,0.58,0.92,1.126v12.801c0,0.547-0.385,1.018-0.92,1.127l-9.034,1.849c-0.428,1.229-0.938,2.431-1.522,3.587
		l5.091,7.711c0.301,0.456,0.239,1.061-0.147,1.447l-9.052,9.051c-0.388,0.387-0.993,0.448-1.447,0.146L75.07,86.94
		c-1.125,0.547-2.272,1.019-3.426,1.408l-1.884,9.206C69.651,98.09,69.18,98.475,68.634,98.475z M56.771,96.174h10.925l1.83-8.943
		c0.084-0.41,0.386-0.743,0.786-0.867c1.452-0.451,2.903-1.047,4.313-1.771c0.369-0.189,0.813-0.164,1.159,0.065l7.621,5.031
		l7.725-7.725l-4.946-7.494c-0.232-0.352-0.253-0.804-0.054-1.176c0.76-1.418,1.398-2.918,1.894-4.459
		c0.128-0.395,0.458-0.69,0.864-0.773l8.764-1.794V55.342l-8.582-1.758c-0.415-0.085-0.75-0.391-0.871-0.797
		c-0.483-1.615-1.125-3.198-1.907-4.703c-0.192-0.37-0.169-0.815,0.061-1.164l4.813-7.289l-7.724-7.725l-7.183,4.741
		c-0.354,0.232-0.806,0.253-1.179,0.053c-1.539-0.828-3.161-1.508-4.822-2.02c-0.401-0.124-0.703-0.457-0.788-0.868l-1.726-8.428
		H56.818l-1.725,8.429c-0.085,0.412-0.387,0.745-0.788,0.869c-1.651,0.508-3.267,1.185-4.802,2.009
		c-0.371,0.199-0.826,0.179-1.178-0.054l-7.217-4.765l-7.727,7.725l4.834,7.319c0.229,0.348,0.253,0.794,0.061,1.164
		c-0.774,1.49-1.41,3.053-1.892,4.647c-0.121,0.405-0.456,0.71-0.87,0.794l-8.651,1.771l-0.001,10.925l8.803,1.802
		c0.407,0.084,0.737,0.381,0.864,0.775c0.486,1.516,1.112,2.999,1.861,4.408c0.197,0.371,0.176,0.822-0.056,1.174l-4.986,7.551
		l7.725,7.725l7.632-5.037c0.349-0.228,0.792-0.254,1.163-0.06c1.391,0.721,2.832,1.317,4.283,1.773
		c0.398,0.126,0.697,0.458,0.781,0.867L56.771,96.174z"/>
	<path fill="#77A9DB" d="M117.52,89.895c-0.66,0-1.326-0.061-1.979-0.182c-2.832-0.526-5.29-2.124-6.922-4.498
		c-1.631-2.375-2.239-5.243-1.714-8.076c0.948-5.109,5.403-8.818,10.594-8.818c0.66,0,1.326,0.062,1.979,0.183
		c2.832,0.526,5.29,2.124,6.922,4.498c1.631,2.375,2.239,5.243,1.714,8.075C127.165,86.186,122.71,89.895,117.52,89.895z
		 M117.498,70.62c-4.082,0-7.586,2.919-8.332,6.938c-0.414,2.229,0.064,4.485,1.349,6.354c1.283,1.868,3.217,3.125,5.445,3.539
		c0.516,0.096,1.04,0.145,1.56,0.145c4.082,0,7.586-2.919,8.332-6.939c0.414-2.229-0.064-4.484-1.349-6.354
		c-1.283-1.867-3.217-3.125-5.445-3.538C118.542,70.669,118.018,70.62,117.498,70.62z"/>
	<path fill="#77A9DB" d="M117.513,84.468c-0.327,0-0.658-0.03-0.982-0.091c-2.905-0.539-4.831-3.342-4.292-6.247
		c0.472-2.54,2.687-4.383,5.266-4.383c0.328,0,0.659,0.03,0.983,0.091c2.904,0.539,4.829,3.342,4.291,6.248
		C122.306,82.625,120.092,84.468,117.513,84.468z M117.504,76.047c-1.471,0-2.734,1.053-3.004,2.502
		c-0.308,1.659,0.791,3.259,2.45,3.566c1.662,0.309,3.264-0.816,3.566-2.449c0.308-1.658-0.791-3.259-2.449-3.566
		C117.881,76.064,117.691,76.047,117.504,76.047z"/>
	<path fill="#77A9DB" d="M117.223,102.949c-0.07,0-0.141-0.006-0.211-0.019l-7.649-1.42c-0.537-0.1-0.93-0.563-0.939-1.11
		l-0.101-5.479c-0.508-0.295-1.005-0.619-1.487-0.967l-5.036,2.127c-0.5,0.213-1.085,0.043-1.396-0.408l-4.405-6.413
		c-0.309-0.45-0.259-1.056,0.12-1.449l3.749-3.888c-0.165-0.604-0.299-1.214-0.4-1.826l-4.979-2.021
		c-0.506-0.205-0.798-0.738-0.698-1.275l1.421-7.65c0.1-0.537,0.563-0.93,1.109-0.939l5.266-0.097
		c0.331-0.584,0.696-1.153,1.092-1.7l-2.042-4.827c-0.213-0.503-0.042-1.086,0.408-1.396l6.415-4.405
		c0.451-0.307,1.056-0.26,1.449,0.121l3.711,3.578c0.69-0.192,1.391-0.343,2.095-0.452l1.93-4.757
		c0.205-0.507,0.744-0.795,1.275-0.699l7.65,1.421c0.537,0.1,0.93,0.563,0.939,1.11l0.095,5.131
		c0.623,0.357,1.226,0.753,1.806,1.184l4.725-1.997c0.499-0.213,1.084-0.042,1.395,0.408l4.404,6.413
		c0.309,0.45,0.259,1.056-0.12,1.449l-3.621,3.756c0.175,0.664,0.313,1.338,0.413,2.017l4.839,1.964
		c0.506,0.205,0.798,0.738,0.698,1.275l-1.42,7.65c-0.1,0.537-0.563,0.93-1.109,0.939l-5.35,0.099
		c-0.323,0.548-0.675,1.08-1.054,1.591l2.086,4.935c0.212,0.503,0.042,1.087-0.408,1.396l-6.413,4.404
		c-0.448,0.309-1.056,0.26-1.449-0.119l-3.934-3.791c-0.582,0.151-1.167,0.274-1.752,0.367l-2.052,5.055
		C118.108,102.672,117.683,102.949,117.223,102.949z M110.705,99.42l5.804,1.078l1.949-4.801c0.157-0.389,0.514-0.66,0.93-0.709
		c0.896-0.107,1.804-0.297,2.697-0.564c0.395-0.12,0.829-0.016,1.128,0.273l3.732,3.598l4.866-3.343l-1.981-4.688
		c-0.164-0.39-0.102-0.837,0.162-1.167c0.597-0.744,1.128-1.547,1.58-2.386c0.197-0.365,0.576-0.597,0.991-0.604l5.069-0.093
		l1.077-5.805l-4.593-1.864c-0.393-0.159-0.665-0.521-0.711-0.941c-0.106-0.993-0.31-1.981-0.601-2.939
		c-0.122-0.398-0.018-0.832,0.271-1.133l3.429-3.558l-3.342-4.866l-4.48,1.893c-0.388,0.166-0.837,0.104-1.168-0.162
		c-0.806-0.649-1.675-1.218-2.584-1.694c-0.373-0.194-0.609-0.577-0.616-0.997l-0.09-4.859l-5.805-1.078l-1.827,4.504
		c-0.157,0.39-0.516,0.662-0.934,0.711c-1.013,0.117-2.025,0.335-3.008,0.649c-0.399,0.127-0.845,0.026-1.148-0.268l-3.518-3.392
		l-4.867,3.342l1.934,4.571c0.162,0.385,0.104,0.826-0.153,1.155c-0.611,0.784-1.149,1.624-1.6,2.497
		c-0.194,0.375-0.579,0.615-1.001,0.623l-4.997,0.09l-1.078,5.805l4.72,1.915c0.385,0.156,0.655,0.508,0.708,0.92
		c0.118,0.93,0.322,1.859,0.606,2.762c0.127,0.402,0.023,0.841-0.269,1.145l-3.562,3.693l3.343,4.867l4.78-2.021
		c0.383-0.162,0.826-0.104,1.154,0.152c0.729,0.567,1.501,1.07,2.297,1.493c0.368,0.195,0.603,0.576,0.609,0.994L110.705,99.42z"/>
	<path fill="#77A9DB" d="M110.482,47.577c-3.972,0-7.185-3.111-7.315-7.083c-0.064-1.956,0.637-3.819,1.974-5.247
		c1.338-1.428,3.15-2.25,5.105-2.314l0.244-0.004c3.974,0,7.188,3.112,7.317,7.084c0.132,4.036-3.045,7.428-7.08,7.56
		L110.482,47.577z M110.49,35.228l-0.168,0.003c-1.341,0.044-2.585,0.608-3.502,1.587c-0.918,0.98-1.398,2.258-1.354,3.599
		c0.09,2.725,2.293,4.86,5.017,4.86l0.169-0.003c2.768-0.091,4.948-2.417,4.857-5.186C115.42,37.363,113.216,35.228,110.49,35.228z"
		/>
	<path fill="#77A9DB" d="M108.447,55.807c-0.53,0-0.994-0.363-1.118-0.882l-0.764-3.192c-0.224-0.077-0.445-0.16-0.665-0.25
		l-2.67,1.892c-0.446,0.315-1.053,0.273-1.451-0.099l-3.64-3.408c-0.398-0.373-0.479-0.976-0.194-1.441l1.689-2.751
		c-0.115-0.23-0.223-0.464-0.323-0.701l-3.168-0.54c-0.539-0.092-0.938-0.55-0.956-1.096l-0.163-4.983
		c-0.018-0.546,0.351-1.029,0.882-1.156l3.056-0.73c0.091-0.275,0.191-0.547,0.302-0.815l-1.81-2.552
		c-0.315-0.446-0.274-1.052,0.1-1.451l3.41-3.64c0.374-0.399,0.977-0.479,1.441-0.193l2.614,1.607
		c0.283-0.143,0.571-0.275,0.864-0.395l0.514-3.014c0.092-0.539,0.55-0.938,1.096-0.956l4.982-0.163
		c0.524-0.016,1.029,0.351,1.156,0.882l0.711,2.973c0.304,0.102,0.603,0.215,0.896,0.341l2.491-1.764
		c0.445-0.316,1.052-0.274,1.451,0.099l3.639,3.407c0.398,0.373,0.479,0.976,0.194,1.441l-1.629,2.654
		c0.131,0.268,0.253,0.541,0.363,0.816l3.067,0.524c0.539,0.092,0.938,0.55,0.956,1.096l0.164,4.983
		c0.018,0.546-0.351,1.03-0.882,1.157l-3.112,0.744c-0.087,0.251-0.183,0.5-0.287,0.744l1.85,2.611
		c0.315,0.445,0.274,1.052-0.099,1.451l-3.408,3.639c-0.374,0.399-0.975,0.48-1.441,0.194l-2.788-1.711
		c-0.217,0.105-0.436,0.204-0.655,0.295l-0.55,3.219c-0.092,0.538-0.55,0.938-1.096,0.956l-4.982,0.163
		C108.473,55.807,108.46,55.807,108.447,55.807z M105.77,49.017c0.169,0,0.339,0.037,0.496,0.112
		c0.512,0.245,1.042,0.444,1.574,0.593c0.402,0.112,0.713,0.434,0.81,0.84l0.698,2.915l3.106-0.102l0.502-2.94
		c0.07-0.413,0.36-0.754,0.756-0.892c0.524-0.182,1.043-0.416,1.545-0.695c0.363-0.202,0.806-0.193,1.16,0.025l2.543,1.561
		l2.126-2.269l-1.69-2.386c-0.244-0.345-0.279-0.795-0.093-1.174c0.261-0.527,0.474-1.079,0.635-1.642
		c0.113-0.399,0.434-0.707,0.838-0.803l2.831-0.677l-0.102-3.107l-2.798-0.478c-0.418-0.072-0.763-0.367-0.898-0.768
		c-0.193-0.578-0.445-1.146-0.749-1.686c-0.204-0.363-0.195-0.809,0.022-1.165l1.48-2.411l-2.27-2.125l-2.267,1.605
		c-0.346,0.245-0.799,0.279-1.176,0.092c-0.569-0.282-1.167-0.51-1.776-0.676c-0.405-0.11-0.718-0.433-0.815-0.842l-0.646-2.701
		l-3.106,0.102l-0.467,2.738c-0.071,0.415-0.362,0.757-0.76,0.894c-0.592,0.204-1.171,0.469-1.722,0.787
		c-0.365,0.212-0.817,0.207-1.179-0.016L102,30.266l-2.126,2.269l1.645,2.319c0.241,0.34,0.279,0.785,0.099,1.162
		c-0.264,0.55-0.476,1.126-0.632,1.711c-0.109,0.408-0.433,0.724-0.844,0.822l-2.788,0.667l0.103,3.107l2.884,0.492
		c0.41,0.07,0.75,0.356,0.89,0.747c0.194,0.544,0.439,1.075,0.729,1.577c0.21,0.365,0.203,0.817-0.017,1.175l-1.545,2.515
		l2.27,2.125l2.438-1.727C105.303,49.088,105.535,49.017,105.77,49.017z"/>
</g>
</svg>
