<?xml version="1.0" encoding="utf-8"?>
<!-- Generator: Adobe Illustrator 17.0.0, SVG Export Plug-In . SVG Version: 6.00 Build 0)  -->
<!DOCTYPE svg PUBLIC "-//W3C//DTD SVG 1.1//EN" "http://www.w3.org/Graphics/SVG/1.1/DTD/svg11.dtd">
<svg version="1.1" id="Layer_1" xmlns="http://www.w3.org/2000/svg" xmlns:xlink="http://www.w3.org/1999/xlink" x="0px" y="0px"
	 width="60px" height="60px" viewBox="0 0 60 60" enable-background="new 0 0 60 60" xml:space="preserve">
<g>
	<g>
		<circle fill="#FFFFFF" cx="30" cy="5" r="3"/>
	</g>
	<path fill="#FFFFFF" d="M30,27c-4.411,0-8,3.589-8,8s3.589,8,8,8c4.411,0,8-3.589,8-8S34.411,27,30,27z"/>
	<g>
		<path fill="#010101" d="M57,46h-4.028C54.196,45.088,55,43.643,55,42c0-2.76-2.238-5-5-5V18c0-2.209-1.791-4-4-4h-6v-2
			c0-1.654-1.346-3-3-3h-4.028C34.196,8.088,35,6.643,35,5c0-2.76-2.238-5-5-5c-2.76,0-5,2.24-5,5c0,1.643,0.805,3.088,2.029,4H23
			c-1.654,0-3,1.346-3,3v2h-6c-2.209,0-4,1.791-4,4v19c-2.76,0-5,2.24-5,5c0,1.643,0.805,3.088,2.029,4H3c-1.654,0-3,1.346-3,3v11
			h20v-6h20v6h20V49C60,47.346,58.654,46,57,46z M50,39c1.654,0,3,1.346,3,3s-1.346,3-3,3c-0.772,0-1.468-0.301-2-0.78
			c-0.609-0.55-1-1.337-1-2.22s0.391-1.67,1-2.22C48.532,39.301,49.228,39,50,39z M27,5c0-1.654,1.346-3,3-3c1.654,0,3,1.346,3,3
			s-1.346,3-3,3C28.346,8,27,6.654,27,5z M22,16v-2v-2c0-0.551,0.449-1,1-1h7h7c0.552,0,1,0.449,1,1v2v2v5h-2v-5v-1h-2v1v5h-8v-5v-1
			h-2v1v5h-2V16z M7,42c0-1.654,1.346-3,3-3c0.771,0,1.468,0.301,2,0.78c0.609,0.55,1,1.337,1,2.22s-0.391,1.67-1,2.22
			C11.468,44.699,10.771,45,10,45C8.346,45,7,43.654,7,42z M18,52v2v4h-2v-4v-2h-2v2v4H6v-6H4v6H2v-9c0-0.551,0.449-1,1-1h7h2h5
			c0.552,0,1,0.449,1,1V52z M40,49v3H20v-3c0-1.654-1.346-3-3-3h-4.028C14.196,45.088,15,43.643,15,42c0-2.048-1.235-3.805-3-4.578
			V18c0-1.104,0.896-2,2-2h6v7h20v-7h6c1.102,0,2,0.896,2,2v19.423c-1.764,0.772-3,2.529-3,4.577c0,1.643,0.805,3.088,2.029,4H43
			C41.346,46,40,47.346,40,49z M58,58h-2v-6h-2v6h-8v-4v-2h-2v2v4h-2v-4v-2v-3c0-0.551,0.449-1,1-1h5h2h7c0.552,0,1,0.449,1,1V58z"
			/>
		<path fill="#FFFFFF" d="M47,42c0,0.883,0.391,1.67,1,2.22c0.532,0.479,1.228,0.78,2,0.78c1.654,0,3-1.346,3-3s-1.346-3-3-3
			c-0.772,0-1.468,0.301-2,0.78C47.391,40.33,47,41.117,47,42z"/>
		<path fill="#FFFFFF" d="M24,16v-1h2v1v5h8v-5v-1h2v1v5h2v-5v-2v-2c0-0.551-0.448-1-1-1h-7h-7c-0.551,0-1,0.449-1,1v2v2v5h2V16z"/>
		<path fill="#FFFFFF" d="M10,45c0.771,0,1.468-0.301,2-0.78c0.609-0.55,1-1.337,1-2.22s-0.391-1.67-1-2.22
			C11.468,39.301,10.771,39,10,39c-1.654,0-3,1.346-3,3S8.346,45,10,45z"/>
		<path fill="#FFFFFF" d="M17,48h-5h-2H3c-0.551,0-1,0.449-1,1v9h2v-6h2v6h8v-4v-2h2v2v4h2v-4v-2v-3C18,48.449,17.552,48,17,48z"/>
		<path fill="#FFFFFF" d="M47.029,46C45.805,45.088,45,43.643,45,42c0-2.048,1.236-3.805,3-4.577V18c0-1.104-0.898-2-2-2h-6v7H20v-7
			h-6c-1.104,0-2,0.896-2,2v19.422c1.765,0.773,3,2.53,3,4.578c0,1.643-0.804,3.088-2.028,4H17c1.654,0,3,1.346,3,3v3h20v-3
			c0-1.654,1.346-3,3-3H47.029z"/>
		<path fill="#FFFFFF" d="M57,48h-7h-2h-5c-0.551,0-1,0.449-1,1v3v2v4h2v-4v-2h2v2v4h8v-6h2v6h2v-9C58,48.449,57.552,48,57,48z"/>
	</g>
	<path fill="#010101" d="M30,25c-5.523,0-10,4.478-10,10c0,5.521,4.477,10,10,10c5.521,0,10-4.479,10-10C40,29.478,35.521,25,30,25z
		 M30,43c-4.411,0-8-3.589-8-8s3.589-8,8-8c4.411,0,8,3.589,8,8S34.411,43,30,43z"/>
	<rect x="29.25" y="34" fill="#010101" width="2" height="2"/>
	<rect x="25.25" y="34" fill="#010101" width="2" height="2"/>
	<rect x="33.25" y="34" fill="#010101" width="2" height="2"/>
</g>
</svg>
