<?xml version="1.0" encoding="utf-8"?>
<!-- Generator: Adobe Illustrator 17.0.0, SVG Export Plug-In . SVG Version: 6.00 Build 0)  -->
<!DOCTYPE svg PUBLIC "-//W3C//DTD SVG 1.1//EN" "http://www.w3.org/Graphics/SVG/1.1/DTD/svg11.dtd">
<svg version="1.1" id="Layer_1" xmlns="http://www.w3.org/2000/svg" xmlns:xlink="http://www.w3.org/1999/xlink" x="0px" y="0px"
	 width="82.729px" height="82.758px" viewBox="0 0 82.729 82.758" enable-background="new 0 0 82.729 82.758" xml:space="preserve">
<g>
	<g>
		<path fill="#010101" d="M51.035,12.413h-5.557c1.689-1.258,2.798-3.251,2.798-5.517C48.276,3.09,45.188,0,41.379,0
			c-3.807,0-6.896,3.09-6.896,6.896c0,2.266,1.11,4.259,2.799,5.517h-5.558c-2.282,0-4.138,1.857-4.138,4.139v15.172h27.586V16.552
			C55.172,14.27,53.316,12.413,51.035,12.413z M37.241,6.896c0-2.282,1.857-4.139,4.138-4.139c2.282,0,4.138,1.856,4.138,4.139
			c0,2.281-1.856,4.138-4.138,4.138C39.098,11.034,37.241,9.178,37.241,6.896z M52.414,28.965h-2.758v-8.275h-2.759v8.275H35.862
			v-8.275h-2.759v8.275h-2.759V16.552c0-0.76,0.62-1.38,1.379-1.38h9.655h9.655c0.761,0,1.379,0.62,1.379,1.38V28.965z"/>
		<path fill="#FFFFFF" d="M41.379,11.034c2.282,0,4.138-1.856,4.138-4.138c0-2.282-1.856-4.139-4.138-4.139
			c-2.282,0-4.138,1.856-4.138,4.139C37.241,9.178,39.098,11.034,41.379,11.034z"/>
		<path fill="#FFFFFF" d="M51.035,15.172h-9.655h-9.655c-0.76,0-1.379,0.62-1.379,1.38v12.413h2.759v-8.275h2.759v8.275h11.034
			v-8.275h2.759v8.275h2.758V16.552C52.414,15.792,51.795,15.172,51.035,15.172z"/>
	</g>
	<g>
		<path fill="#010101" d="M70.726,1.664L68.965,0l-1.764,1.664L55.172,13.37l6.072,5.852l3.583-3.431v15.932h8.276V15.792
			l3.58,3.431l6.045-5.852L70.726,1.664z M75.205,13.841l-4.86-4.713v6.664v13.173h-2.758V15.792V9.128l-4.863,4.713l-1.527,1.479
			l-2.008-1.95l9.78-9.519l9.782,9.519l-2.015,1.95L75.205,13.841z"/>
		<polygon fill="#FFFFFF" points="68.965,3.852 59.183,13.37 61.186,15.32 62.724,13.841 67.587,9.128 67.587,15.792 67.587,28.965 
			70.345,28.965 70.345,15.792 70.345,9.128 75.205,13.841 76.735,15.32 78.743,13.37 		"/>
	</g>
	<g>
		<path fill="#010101" d="M27.587,13.37L15.555,1.664L13.792,0L12.03,1.664L0,13.37l6.074,5.852l3.582-3.431v15.932h8.39h-0.114
			V15.792l3.581,3.431L27.587,13.37z M15.172,9.128v6.664v13.173h-2.759V15.792V9.128l-4.86,4.713l-1.53,1.479l-2.01-1.95
			l9.781-9.519l9.782,9.519l-2.006,1.95l-1.539-1.479L15.172,9.128z"/>
		<polygon fill="#FFFFFF" points="23.576,13.37 13.792,3.852 4.009,13.37 6.014,15.32 7.554,13.841 12.414,9.128 12.414,15.792 
			12.414,28.965 15.172,28.965 15.172,15.792 15.172,9.128 20.032,13.841 21.561,15.32 		"/>
	</g>
	<g>
		<path fill="#010101" d="M75.862,48.275h-5.557c1.689-1.258,2.798-3.252,2.798-5.518c0-3.806-3.087-6.896-6.896-6.896
			c-3.807,0-6.896,3.091-6.896,6.896c0,2.266,1.11,4.26,2.799,5.518h-5.558c-1.064,0-2.024,0.415-2.759,1.076
			c-0.734-0.661-1.694-1.076-2.758-1.076h-5.557c1.689-1.258,2.798-3.252,2.798-5.518c0-3.806-3.087-6.896-6.896-6.896
			c-3.807,0-6.896,3.091-6.896,6.896c0,2.266,1.11,4.26,2.799,5.518h-5.558c-1.064,0-2.024,0.415-2.759,1.076
			c-0.734-0.661-1.694-1.076-2.758-1.076H20.65c1.689-1.258,2.798-3.252,2.798-5.518c0-3.806-3.087-6.896-6.896-6.896
			c-3.807,0-6.896,3.091-6.896,6.896c0,2.266,1.11,4.26,2.799,5.518H6.896c-2.282,0-4.138,1.856-4.138,4.138v15.173v15.172h24.828
			h2.758h22.069h2.759H80V67.586V52.413C80,50.132,78.144,48.275,75.862,48.275z M12.414,42.758c0-2.281,1.856-4.138,4.138-4.138
			c2.282,0,4.138,1.856,4.138,4.138c0,2.282-1.856,4.139-4.138,4.139C14.27,46.896,12.414,45.04,12.414,42.758z M27.587,80h-2.759
			v-8.276h-2.759V80H11.035v-8.276H8.276V80H5.517V67.586c0-0.761,0.619-1.38,1.379-1.38h9.655h9.655
			c0.761,0,1.379,0.619,1.379,1.38V80z M12.414,57.931c0-2.282,1.856-4.138,4.138-4.138c2.282,0,4.138,1.855,4.138,4.138
			c0,2.281-1.856,4.138-4.138,4.138C14.27,62.068,12.414,60.212,12.414,57.931z M27.587,63.701
			c-0.431-0.157-0.893-0.253-1.379-0.253H20.65c1.689-1.259,2.798-3.252,2.798-5.518c0-3.807-3.087-6.896-6.896-6.896
			c-3.807,0-6.896,3.09-6.896,6.896c0,2.266,1.11,4.259,2.797,5.518H6.896c-0.486,0-0.945,0.1-1.379,0.254V52.413
			c0-0.761,0.62-1.379,1.379-1.379h9.655h9.655c0.761,0,1.379,0.618,1.379,1.379V63.701z M37.241,42.758
			c0-2.281,1.857-4.138,4.138-4.138c2.282,0,4.138,1.856,4.138,4.138c0,2.282-1.856,4.139-4.138,4.139
			C39.098,46.896,37.241,45.04,37.241,42.758z M52.414,80h-2.758v-8.276h-2.759V80H35.862v-8.276h-2.759V80h-2.759V67.586
			c0-0.761,0.618-1.38,1.379-1.38h9.655h9.655c0.761,0,1.379,0.619,1.379,1.38V80z M37.241,57.931c0-2.282,1.857-4.138,4.138-4.138
			c2.282,0,4.138,1.855,4.138,4.138c0,2.281-1.856,4.138-4.138,4.138C39.098,62.068,37.241,60.212,37.241,57.931z M52.414,63.701
			c-0.431-0.157-0.893-0.253-1.379-0.253h-5.557c1.689-1.259,2.798-3.252,2.798-5.518c0-3.807-3.087-6.896-6.896-6.896
			c-3.807,0-6.896,3.09-6.896,6.896c0,2.266,1.11,4.259,2.797,5.518h-5.556c-0.486,0-0.948,0.096-1.379,0.253V52.413
			c0-0.761,0.62-1.379,1.379-1.379h9.655h9.655c0.761,0,1.379,0.618,1.379,1.379V63.701z M62.069,42.758
			c0-2.281,1.856-4.138,4.138-4.138c2.282,0,4.138,1.856,4.138,4.138c0,2.282-1.856,4.139-4.138,4.139
			C63.925,46.896,62.069,45.04,62.069,42.758z M77.241,80h-2.758v-8.276h-2.759V80H60.689v-8.276h-2.758V80h-2.759V67.586
			c0-0.761,0.618-1.38,1.379-1.38h9.655h9.655c0.761,0,1.379,0.619,1.379,1.38V80z M62.069,57.931c0-2.282,1.856-4.138,4.138-4.138
			c2.282,0,4.138,1.855,4.138,4.138c0,2.281-1.856,4.138-4.138,4.138C63.925,62.068,62.069,60.212,62.069,57.931z M77.241,63.702
			c-0.434-0.154-0.893-0.254-1.379-0.254h-5.557c1.689-1.259,2.798-3.252,2.798-5.518c0-3.807-3.087-6.896-6.896-6.896
			c-3.807,0-6.896,3.09-6.896,6.896c0,2.266,1.11,4.259,2.797,5.518h-5.556c-0.486,0-0.948,0.096-1.379,0.253V52.413
			c0-0.761,0.62-1.379,1.379-1.379h9.655h9.655c0.761,0,1.379,0.618,1.379,1.379V63.702z"/>
		<path fill="#FFFFFF" d="M16.552,46.896c2.282,0,4.138-1.856,4.138-4.139c0-2.281-1.856-4.138-4.138-4.138
			c-2.282,0-4.138,1.856-4.138,4.138C12.414,45.04,14.27,46.896,16.552,46.896z"/>
		<path fill="#FFFFFF" d="M26.207,66.206h-9.655H6.896c-0.761,0-1.379,0.619-1.379,1.38V80h2.759v-8.276h2.759V80h11.034v-8.276
			h2.759V80h2.759V67.586C27.587,66.825,26.968,66.206,26.207,66.206z"/>
		<path fill="#FFFFFF" d="M20.689,57.931c0-2.282-1.856-4.138-4.138-4.138c-2.282,0-4.138,1.855-4.138,4.138
			c0,2.281,1.856,4.138,4.138,4.138C18.833,62.068,20.689,60.212,20.689,57.931z"/>
		<path fill="#FFFFFF" d="M26.207,51.034h-9.655c3.809,0,6.896,3.09,6.896,6.896c0,2.266-1.108,4.259-2.798,5.518h5.557
			c0.486,0,0.948,0.096,1.379,0.253V52.413C27.587,51.652,26.968,51.034,26.207,51.034z"/>
		<path fill="#FFFFFF" d="M5.517,52.413v11.289c0.434-0.154,0.893-0.254,1.379-0.254h5.556c-1.688-1.259-2.797-3.252-2.797-5.518
			c0-3.807,3.09-6.896,6.896-6.896H6.896C6.137,51.034,5.517,51.652,5.517,52.413z"/>
		<path fill="#FFFFFF" d="M41.379,46.896c2.282,0,4.138-1.856,4.138-4.139c0-2.281-1.856-4.138-4.138-4.138
			c-2.282,0-4.138,1.856-4.138,4.138C37.241,45.04,39.098,46.896,41.379,46.896z"/>
		<path fill="#FFFFFF" d="M51.035,66.206h-9.655h-9.655c-0.761,0-1.379,0.619-1.379,1.38V80h2.759v-8.276h2.759V80h11.034v-8.276
			h2.759V80h2.758V67.586C52.414,66.825,51.795,66.206,51.035,66.206z"/>
		<path fill="#FFFFFF" d="M45.517,57.931c0-2.282-1.856-4.138-4.138-4.138c-2.282,0-4.138,1.855-4.138,4.138
			c0,2.281,1.857,4.138,4.138,4.138C43.661,62.068,45.517,60.212,45.517,57.931z"/>
		<path fill="#FFFFFF" d="M51.035,51.034h-9.655c3.809,0,6.896,3.09,6.896,6.896c0,2.266-1.108,4.259-2.798,5.518h5.557
			c0.486,0,0.948,0.096,1.379,0.253V52.413C52.414,51.652,51.795,51.034,51.035,51.034z"/>
		<path fill="#FFFFFF" d="M30.345,52.413v11.288c0.431-0.157,0.893-0.253,1.379-0.253h5.556c-1.688-1.259-2.797-3.252-2.797-5.518
			c0-3.807,3.09-6.896,6.896-6.896h-9.655C30.964,51.034,30.345,51.652,30.345,52.413z"/>
		<path fill="#FFFFFF" d="M66.207,46.896c2.282,0,4.138-1.856,4.138-4.139c0-2.281-1.856-4.138-4.138-4.138
			c-2.282,0-4.138,1.856-4.138,4.138C62.069,45.04,63.925,46.896,66.207,46.896z"/>
		<path fill="#FFFFFF" d="M70.345,57.931c0-2.282-1.856-4.138-4.138-4.138c-2.282,0-4.138,1.855-4.138,4.138
			c0,2.281,1.856,4.138,4.138,4.138C68.489,62.068,70.345,60.212,70.345,57.931z"/>
		<path fill="#FFFFFF" d="M75.862,66.206h-9.655h-9.655c-0.761,0-1.379,0.619-1.379,1.38V80h2.759v-8.276h2.758V80h11.035v-8.276
			h2.759V80h2.758V67.586C77.241,66.825,76.623,66.206,75.862,66.206z"/>
		<path fill="#FFFFFF" d="M75.862,51.034h-9.655c3.809,0,6.896,3.09,6.896,6.896c0,2.266-1.108,4.259-2.798,5.518h5.557
			c0.486,0,0.945,0.1,1.379,0.254V52.413C77.241,51.652,76.623,51.034,75.862,51.034z"/>
		<path fill="#FFFFFF" d="M55.172,52.413v11.288c0.431-0.157,0.893-0.253,1.379-0.253h5.556c-1.688-1.259-2.797-3.252-2.797-5.518
			c0-3.807,3.09-6.896,6.896-6.896h-9.655C55.792,51.034,55.172,51.652,55.172,52.413z"/>
	</g>
</g>
</svg>
