<?xml version="1.0" encoding="utf-8"?>
<!-- Generator: Adobe Illustrator 17.0.0, SVG Export Plug-In . SVG Version: 6.00 Build 0)  -->
<!DOCTYPE svg PUBLIC "-//W3C//DTD SVG 1.1//EN" "http://www.w3.org/Graphics/SVG/1.1/DTD/svg11.dtd">
<svg version="1.1" id="Layer_1" xmlns="http://www.w3.org/2000/svg" xmlns:xlink="http://www.w3.org/1999/xlink" x="0px" y="0px"
	 width="82.729px" height="82.758px" viewBox="0 0 82.729 82.758" enable-background="new 0 0 82.729 82.758" xml:space="preserve">
<g>
	<g>
		<g>
			<path fill="#FFFFFF" d="M50.579,39.652h-9.656h-9.655c-0.76,0-1.379,0.615-1.379,1.369v12.316h22.069V41.021
				C51.958,40.267,51.339,39.652,50.579,39.652z"/>
			<path fill="#FFFFFF" d="M40.923,27.336c-2.282,0-4.138,1.841-4.138,4.105c0,2.263,1.856,4.105,4.138,4.105
				c2.283,0,4.138-1.842,4.138-4.105C45.061,29.177,43.206,27.336,40.923,27.336z"/>
		</g>
		<g>
			<path fill="#FFFFFF" d="M26.749,10.251c-0.408-0.237-0.878-0.384-1.386-0.384c-1.358,0-2.482,0.98-2.71,2.263
				c-0.027,0.155-0.049,0.312-0.049,0.474c0,1.508,1.237,2.737,2.759,2.737s2.759-1.229,2.759-2.737
				C28.122,11.598,27.566,10.726,26.749,10.251z"/>
			<path fill="#FFFFFF" d="M13.768,68.988c-1.412,0-2.567,1.063-2.727,2.423c-0.013,0.104-0.032,0.207-0.032,0.314
				c0,1.509,1.238,2.737,2.759,2.737c1.495,0,2.71-1.189,2.75-2.663c0.001-0.025,0.008-0.049,0.008-0.074
				C16.526,70.214,15.289,68.988,13.768,68.988z"/>
			<path fill="#FFFFFF" d="M76.786,11.296c-1.121,0-2.085,0.667-2.517,1.624c-0.153,0.34-0.242,0.715-0.242,1.113
				c0,1.509,1.236,2.736,2.759,2.736c0.892,0,1.678-0.43,2.182-1.085c0.355-0.459,0.577-1.029,0.577-1.651
				C79.545,12.523,78.306,11.296,76.786,11.296z"/>
		</g>
		<path fill="#010101" d="M80.924,18.103c-0.054-0.094-0.127-0.173-0.184-0.264c0.965-0.986,1.563-2.325,1.563-3.806
			c0-3.023-2.47-5.474-5.517-5.474c-2.396,0-4.413,1.521-5.176,3.635c-1.786-0.38-3.733-0.595-5.859-0.595
			c-2.847,0-5.967,0.343-9.267,1.001c-3.99-7.385-9.488-11.948-15.561-11.948c-4.682,0-9.021,2.722-12.592,7.351
			c-0.859-0.546-1.873-0.872-2.969-0.872c-2.772,0-5.046,2.037-5.437,4.68c-1.318-0.127-2.608-0.211-3.832-0.211
			c-7.198,0-12.698,2.126-15.171,6.504c-3.354,5.937-0.407,14.727,6.9,23.601C0.517,50.58-2.431,59.369,0.924,65.306
			c1.48,2.622,4.059,4.422,7.423,5.455c-0.055,0.315-0.097,0.634-0.097,0.964c0,3.023,2.47,5.474,5.517,5.474
			c3.047,0,5.517-2.451,5.517-5.474c0-0.023-0.005-0.043-0.007-0.066c1.941-0.152,3.97-0.427,6.083-0.849
			c3.991,7.383,9.49,11.948,15.562,11.948c6.073,0,11.571-4.565,15.561-11.948c3.3,0.658,6.42,1,9.267,1
			c7.198,0,12.697-2.125,15.17-6.504c3.356-5.937,0.41-14.726-6.899-23.601C81.328,32.83,84.277,24.041,80.924,18.103z
			 M58.865,27.827c-2.33-1.667-4.792-3.28-7.384-4.808c-2.397-1.414-4.798-2.699-7.185-3.857c3.645-1.475,7.23-2.632,10.668-3.442
			C56.621,19.228,57.952,23.332,58.865,27.827z M40.923,39.652h9.656c0.76,0,1.379,0.615,1.379,1.369v12.316h-2.759v-8.211h-2.758
			v8.211H35.406v-8.211h-2.758v8.211h-2.759V41.021c0-0.754,0.62-1.369,1.379-1.369H40.923z M36.785,31.442
			c0-2.264,1.856-4.105,4.138-4.105c2.283,0,4.138,1.841,4.138,4.105c0,2.263-1.855,4.105-4.138,4.105
			C38.642,35.547,36.785,33.705,36.785,31.442z M53.254,56.073c-1.037,0.664-2.09,1.322-3.184,1.968
			c-3.034,1.79-6.103,3.382-9.147,4.765c-3.047-1.382-6.113-2.974-9.146-4.765c-1.095-0.645-2.15-1.304-3.184-1.968H53.254z
			 M50.579,36.916h-5.558c1.689-1.249,2.799-3.226,2.799-5.474c0-3.777-3.087-6.842-6.897-6.842c-3.807,0-6.897,3.066-6.897,6.842
			c0,2.248,1.11,4.225,2.799,5.474h-5.558c-2.282,0-4.138,1.841-4.138,4.105v14.103c-1.684-1.12-3.293-2.26-4.814-3.414
			c-0.455-3.204-0.703-6.558-0.703-10.004c0-3.446,0.248-6.8,0.703-10.004c2.864-2.173,6.019-4.3,9.46-6.33
			c3.035-1.791,6.101-3.384,9.147-4.767c3.047,1.383,6.113,2.975,9.147,4.767c3.442,2.031,6.597,4.157,9.461,6.331
			c0.455,3.202,0.703,6.556,0.703,10.003c0,3.446-0.248,6.8-0.703,10.004c-1.522,1.154-3.131,2.293-4.814,3.414V41.021
			C54.717,38.756,52.86,36.916,50.579,36.916z M40.923,3.388c4.836,0,9.325,3.751,12.753,9.831
			c-4.064,1.005-8.364,2.481-12.753,4.398c-3.489-1.523-6.916-2.755-10.218-3.707c0.103-0.421,0.175-0.853,0.175-1.306
			c0-0.93-0.256-1.791-0.668-2.559C33.299,5.863,36.997,3.388,40.923,3.388z M29.361,16.358c2.67,0.743,5.411,1.678,8.189,2.803
			c-2.387,1.158-4.789,2.443-7.185,3.857c-2.592,1.529-5.054,3.141-7.384,4.808c0.719-3.548,1.711-6.839,2.907-9.801
			C27.251,17.895,28.469,17.292,29.361,16.358z M22.653,12.13c0.228-1.284,1.352-2.263,2.71-2.263c0.508,0,0.978,0.146,1.386,0.384
			c0.397,0.233,0.728,0.559,0.968,0.948c0.019,0.031,0.035,0.063,0.051,0.095c0.087,0.155,0.156,0.32,0.213,0.49
			c0.016,0.053,0.035,0.106,0.048,0.159c0.055,0.213,0.092,0.432,0.092,0.662c0,1.508-1.237,2.737-2.759,2.737
			s-2.759-1.229-2.759-2.737C22.604,12.442,22.626,12.285,22.653,12.13z M3.329,19.442c1.861-3.293,6.394-5.106,12.767-5.106
			c1.328,0,2.71,0.081,4.131,0.231c0.523,1.345,1.556,2.429,2.873,3.018c-1.487,3.795-2.651,8.055-3.371,12.679
			c-3.855,3.02-7.259,6.179-10.118,9.359C3.053,31.494,0.792,23.933,3.329,19.442z M19.234,49.258
			c-3.009-2.504-5.631-5.045-7.858-7.552c2.226-2.509,4.849-5.049,7.858-7.552c-0.245,2.447-0.38,4.971-0.38,7.551
			C18.854,44.287,18.989,46.809,19.234,49.258z M13.768,74.462c-1.521,0-2.759-1.228-2.759-2.737c0-0.107,0.019-0.21,0.032-0.314
			c0.039-0.337,0.14-0.657,0.291-0.945c0.003-0.007,0.007-0.013,0.011-0.019c0.072-0.135,0.154-0.262,0.247-0.382
			c0.015-0.018,0.028-0.035,0.043-0.052c0.086-0.107,0.179-0.207,0.279-0.3c0.034-0.03,0.07-0.055,0.103-0.083
			c0.092-0.075,0.183-0.148,0.283-0.211c0.059-0.037,0.122-0.067,0.184-0.099c0.086-0.046,0.169-0.093,0.26-0.13
			c0.093-0.037,0.19-0.061,0.287-0.089c0.07-0.018,0.134-0.045,0.206-0.059c0.174-0.033,0.352-0.053,0.535-0.053
			c1.521,0,2.758,1.227,2.758,2.737C16.526,73.234,15.289,74.462,13.768,74.462z M18.518,68.984
			c-0.957-1.628-2.714-2.733-4.75-2.733c-1.712,0-3.222,0.79-4.235,2.005c-2.931-0.832-5.069-2.281-6.202-4.288
			c-2.538-4.491-0.279-12.05,6.28-20.18c2.861,3.179,6.263,6.339,10.118,9.36c0.878,5.639,2.387,10.777,4.379,15.132
			C22.179,68.636,20.313,68.867,18.518,68.984z M22.981,55.582c2.33,1.668,4.793,3.281,7.384,4.809
			c2.396,1.415,4.798,2.7,7.185,3.856c-3.646,1.477-7.232,2.632-10.669,3.442C25.226,64.181,23.893,60.077,22.981,55.582z
			 M40.923,80.021c-4.836,0-9.324-3.751-12.755-9.831c4.067-1.005,8.366-2.481,12.755-4.398c4.389,1.916,8.689,3.393,12.753,4.398
			C50.248,76.269,45.76,80.021,40.923,80.021z M54.965,67.69c-3.438-0.81-7.023-1.966-10.668-3.442
			c2.384-1.156,4.787-2.441,7.182-3.856c2.592-1.529,5.057-3.141,7.387-4.809C57.952,60.077,56.621,64.181,54.965,67.69z
			 M78.516,63.968c-1.859,3.292-6.393,5.105-12.765,5.105c-2.508,0-5.199-0.273-8.014-0.793c1.993-4.356,3.502-9.494,4.38-15.134
			c3.855-3.019,7.258-6.179,10.116-9.358C78.793,51.917,81.053,59.476,78.516,63.968z M62.613,34.153
			c3.006,2.504,5.63,5.043,7.855,7.551c-2.226,2.508-4.85,5.048-7.855,7.552c0.245-2.45,0.38-4.97,0.38-7.552
			C62.993,39.125,62.858,36.603,62.613,34.153z M72.233,39.624c-2.858-3.18-6.261-6.339-10.116-9.359
			c-0.878-5.64-2.387-10.778-4.38-15.134c2.814-0.519,5.506-0.793,8.014-0.793c2.083,0,3.947,0.212,5.606,0.589
			c0.434,2.596,2.688,4.581,5.429,4.581c0.558,0,1.085-0.107,1.592-0.261c0.043,0.069,0.1,0.127,0.138,0.196
			C81.053,23.933,78.793,31.492,72.233,39.624z M78.968,15.684c-0.118,0.155-0.256,0.297-0.404,0.422
			c-0.019,0.016-0.037,0.03-0.054,0.045c-0.132,0.106-0.274,0.198-0.423,0.279c-0.037,0.018-0.072,0.042-0.11,0.059
			c-0.14,0.068-0.285,0.119-0.437,0.163c-0.048,0.014-0.094,0.032-0.143,0.045c-0.196,0.044-0.401,0.073-0.611,0.073
			c-1.522,0-2.759-1.228-2.759-2.736c0-0.2,0.021-0.391,0.064-0.577c0-0.003,0-0.003,0-0.006c0.043-0.184,0.103-0.36,0.178-0.53
			c0.432-0.956,1.396-1.624,2.517-1.624c1.52,0,2.759,1.227,2.759,2.737C79.545,14.655,79.323,15.225,78.968,15.684z"/>
	</g>
</g>
</svg>
