<?xml version="1.0" encoding="utf-8"?>
<!-- Generator: Adobe Illustrator 17.0.0, SVG Export Plug-In . SVG Version: 6.00 Build 0)  -->
<!DOCTYPE svg PUBLIC "-//W3C//DTD SVG 1.1//EN" "http://www.w3.org/Graphics/SVG/1.1/DTD/svg11.dtd">
<svg version="1.1" id="Layer_1" xmlns="http://www.w3.org/2000/svg" xmlns:xlink="http://www.w3.org/1999/xlink" x="0px" y="0px"
	 width="180px" height="52.697px" viewBox="0 0.002 180 52.697" enable-background="new 0 0.002 180 52.697" xml:space="preserve">
<path fill="#0484A0" d="M49.391,28c0,4.835-1.39,9.345-3.791,13.153c0.871,1.806,1.744,3.985,2.556,6.604
	c0.172,0.559-0.18,1.191-0.494,1.4c-0.414,0.274-0.906,0.165-0.906,0.165c-2.551-0.829-4.686-1.507-6.48-2.162
	c-4.251,3.46-9.674,5.538-15.581,5.538c-10.995,0-20.313-7.187-23.511-17.119c0,0-0.306-1.237-0.278-2.309l0.015-0.008
	c-0.006-0.011-0.011-0.023-0.015-0.033c0-2.913,1.901-5.371,4.502-6.131c1.976-3.294,7.269-3.294,7.269-3.294
	c3.788-0.082,7.903,1.976,7.903,1.976c4.362,1.647,6.997,1.564,6.997,1.564c5.775,0,10.702-3.851,10.702-8.604
	c0-1.838-0.892-3.543-2.133-4.939c-3.656,0.908-8.586-0.871-9.308-2.346c-0.603-1.229,5.034-4.672,7.987-3.971
	c0,0.008-0.002,0.015-0.002,0.019h0.082c-0.027-0.006-0.054-0.011-0.08-0.019c0.404-3.286,5.484-8.337,7.334-7.361
	c0.758,0.4,0.844,5.967-1.229,9.266C46.114,13.914,49.391,20.576,49.391,28z M27.659,31.294c-0.546,0-0.988,0.442-0.988,0.988
	c0,0.546,0.442,0.988,0.988,0.988c0.546,0,0.988-0.442,0.988-0.988C28.647,31.734,28.204,31.294,27.659,31.294z M17.288,31.623
	c0,0-5.68-3.294-10.166-3.541c-2.746-0.151-4.981,2.286-4.981,5.105c0,0-0.013,0.036-0.04,0.094
	c0.054,0.548,0.157,1.398,0.316,1.827c3.008,9.439,11.846,16.273,22.28,16.273c5.32,0,10.224-1.779,14.153-4.772
	c-0.569-0.232-1.095-0.465-1.587-0.709c-2.652,1.595-6.015,2.687-10.589,3.091c-8.062,0.716-13.871-2.66-14.902-3.292l-0.1-0.057
	c-0.216-0.124-0.293-0.4-0.17-0.619c0.124-0.218,0.398-0.295,0.617-0.17l0.147,0.105c1.873,1.044,6.344,3.761,14.408,3.047
	c4.136-0.368,7.206-1.294,9.622-2.618c-0.285-0.163-0.557-0.333-0.816-0.509c-0.203-0.14-0.402-0.289-0.601-0.454
	c-2.602,0.98-5.758,1.53-9.687,1.607C14.806,46.23,8.416,40.487,8.232,40.431l-0.331-0.262c-0.226-0.184-0.262-0.515-0.079-0.743
	c0.184-0.226,0.517-0.262,0.745-0.079l0.077,0.098c0.182,0.054,6.574,5.798,16.958,5.597c3.395-0.065,6.172-0.542,8.481-1.344
	c-0.546-0.55-1.059-1.178-1.528-1.856c-1.802,0.529-3.707,0.814-5.678,0.814c-11.116,0-15.164-3.994-18.071-6.174
	c-0.163-0.124,0-0.574,0-0.574c0.454-0.659,1.07,0.082,1.07,0.082c2.798,1.896,6.379,5.599,17,5.68
	c1.806,0.013,3.523-0.222,5.14-0.666c-0.26-0.439-0.502-0.889-0.718-1.348c-0.4,0.023-0.804,0.038-1.21,0.038
	c-11.116,0-15.164-3.994-18.071-6.174c-0.165-0.124,0-0.576,0-0.576c0.454-0.659,1.07,0.082,1.07,0.082
	c2.798,1.896,6.379,5.599,17,5.68c0.268,0.002,0.532-0.004,0.799-0.011c-0.243-0.628-0.439-1.26-0.573-1.884
	C29.014,36.757,24.522,36.217,17.288,31.623z M40.04,33.49c0.391,0.31,0.885,0.753,1.451,1.361
	c2.846-3.397,4.542-7.717,4.691-12.121c0,0,0.247-0.988,0.823-0.207c0,5.002-1.825,9.576-4.845,13.098
	c0.237,0.287,0.484,0.607,0.739,0.952c1.369-2.164,2.422-4.607,3.447-7.175l0.082-0.299c0.103-0.266,0.404-0.396,0.67-0.293
	c0.266,0.103,0.423,0.327,0.32,0.592l-0.082,0.165c-1.187,2.966-2.397,5.588-3.868,7.82c0.115,0.17,0.232,0.35,0.349,0.536
	c0.515-0.764,1.024-1.547,1.543-2.348l0.054-0.124c0.113-0.197,0.366-0.266,0.563-0.151c0.197,0.113,0.264,0.366,0.151,0.563
	l-0.027,0.042c-0.594,0.975-1.183,1.921-1.789,2.828c0.193,0.329,0.391,0.676,0.586,1.042c2.018-3.458,3.177-7.48,3.177-11.775
	c0-5.77-2.091-11.053-5.557-15.13c1.271,2.654,2.591,6.266,2.675,9.777C45.368,29.777,41.471,32.406,40.04,33.49z M33.256,6.185
	c0,0-1.4-0.707-4.171-1.174l-0.203-0.031c-0.364-0.021-0.523-0.322-0.502-0.686c0.021-0.362,0.283-0.657,0.645-0.636l0.199,0.015
	c1.519,0.266,2.989,0.67,4.399,1.199l0.128,0.079c0.329,0.153,0.425,0.534,0.272,0.864C33.869,6.147,33.585,6.339,33.256,6.185z
	 M27.119,4.713l-0.521-0.061c-0.354-0.033-0.617-0.345-0.584-0.697c0.033-0.35,0.349-0.611,0.703-0.576l0.521,0.065
	c0.354,0.033,0.617,0.345,0.584,0.697C27.789,4.487,27.473,4.747,27.119,4.713z M24.779,4.621h-0.084
	C11.788,4.269,1.316,15.088,1.316,28c0,0.364-0.293,0.659-0.657,0.659C0.293,28.659,0,28.364,0,28
	C0,14.36,11.057,3.305,24.694,3.305h0.086c0.364,0.002,0.655,0.295,0.655,0.659S25.141,4.621,24.779,4.621z"/>
<path fill="#0484A0" d="M69.725,24.262c1.268-1.093,1.909-2.604,1.909-4.504c0-1.559-0.517-2.941-1.54-4.104
	c-1.044-1.189-2.355-1.79-3.897-1.79H61.51c-0.676,0-1.13,0.454-1.13,1.13v20.334c0,0.73,0.456,1.199,1.164,1.199h4.826
	c1.819,0,3.409-0.641,4.722-1.907c1.321-1.273,1.991-2.846,1.991-4.678c0-1.375-0.417-2.648-1.245-3.782
	C71.255,25.363,70.547,24.727,69.725,24.262z M66.368,34.233h-3.73V25.67h3.73c1.218,0,2.244,0.412,3.14,1.262
	c0.885,0.839,1.314,1.827,1.314,3.022s-0.431,2.183-1.314,3.022C68.614,33.821,67.586,34.233,66.368,34.233z M68.429,22.324
	c-0.613,0.707-1.354,1.051-2.267,1.051h-3.523v-7.219h3.558c0.911,0,1.645,0.347,2.244,1.063c0.628,0.749,0.934,1.587,0.934,2.566
	C69.375,20.758,69.066,21.589,68.429,22.324z"/>
<path fill="#0484A0" d="M77.501,14.104c-0.676,0-1.13,0.454-1.13,1.13v20.233c0,0.676,0.454,1.13,1.13,1.13s1.13-0.454,1.13-1.13
	V15.235C78.631,14.557,78.176,14.104,77.501,14.104z"/>
<path fill="#0484A0" d="M91.53,23.757c-0.676,0-1.13,0.454-1.13,1.13v3.929c0,5.729-2.522,5.729-3.351,5.729
	c-0.894,0-1.58-0.343-2.099-1.047c-0.498-0.655-0.735-1.453-0.735-2.443v-6.168c0-0.676-0.454-1.13-1.13-1.13
	s-1.13,0.454-1.13,1.132v6.189c0,1.528,0.442,2.851,1.314,3.931c0.946,1.212,2.219,1.831,3.778,1.831
	c1.333,0,2.453-0.448,3.351-1.335c0.017,0.655,0.465,1.093,1.13,1.093c0.676,0,1.128-0.456,1.128-1.132V24.888
	C92.658,24.21,92.204,23.757,91.53,23.757z"/>
<path fill="#0484A0" d="M102.11,23.481c-1.771,0-3.267,0.676-4.448,2.011c-1.16,1.31-1.748,2.869-1.748,4.634
	c0,1.766,0.594,3.326,1.767,4.636c1.191,1.333,2.683,2.009,4.429,2.009c2.461,0,4.259-0.95,5.344-2.826
	c0.107-0.169,0.163-0.368,0.163-0.578c0-0.676-0.454-1.13-1.132-1.13c-0.37,0-0.703,0.178-0.938,0.506
	c-0.846,1.166-1.976,1.735-3.454,1.735c-1.049,0-1.915-0.37-2.648-1.126c-0.584-0.605-0.967-1.283-1.157-2.06h8.889
	c0.697,0,1.166-0.456,1.166-1.132c0-1.773-0.594-3.34-1.766-4.657C105.382,24.159,103.881,23.481,102.11,23.481z M98.288,28.996
	c0.19-0.787,0.573-1.474,1.16-2.087c0.733-0.762,1.599-1.134,2.648-1.134c1.047,0,1.913,0.371,2.648,1.136
	c0.586,0.611,0.969,1.298,1.159,2.085C105.901,28.996,98.288,28.996,98.288,28.996z"/>
<path fill="#0484A0" d="M127.637,23.651c-0.507,0-0.91,0.272-1.072,0.731l-2.849,8.018l-2.83-8.008l-0.008-0.025l-0.011-0.025
	c-0.197-0.44-0.599-0.693-1.109-0.693c-0.529,0-0.938,0.281-1.095,0.754l-2.857,8.006l-2.853-8.029
	c-0.165-0.458-0.565-0.731-1.07-0.731c-0.686,0-1.145,0.454-1.145,1.13c0,0.163,0,0.184,3.933,11.179
	c0.071,0.213,0.333,0.739,1.132,0.739c0.795,0,1.059-0.519,1.136-0.741l2.838-7.951l2.84,7.947c0.147,0.46,0.569,0.745,1.118,0.745
	c0.55,0,0.971-0.281,1.124-0.756c3.927-10.982,3.927-10.999,3.927-11.162C128.78,24.105,128.321,23.651,127.637,23.651z"/>
<path fill="#0484A0" d="M137.717,23.515c-1.339,0-2.472,0.417-3.386,1.249v-9.529c0-0.676-0.454-1.13-1.13-1.13
	s-1.13,0.454-1.13,1.13v20.164c0,0.676,0.454,1.13,1.13,1.13s1.13-0.454,1.13-1.128V30.8v-0.416v-0.021l-0.002-0.021
	c-0.082-1.285,0.161-2.332,0.749-3.206c0.609-0.894,1.476-1.329,2.656-1.329c0.866,0,1.536,0.341,2.053,1.042
	c0.519,0.659,0.766,1.451,0.766,2.434v6.114c0,0.674,0.454,1.128,1.13,1.128c0.676,0,1.13-0.454,1.13-1.13V29.26
	c0-1.524-0.442-2.844-1.316-3.924C140.547,24.132,139.274,23.515,137.717,23.515z"/>
<path fill="#0484A0" d="M157.467,23.686c-0.676,0-1.13,0.454-1.13,1.13v0.331c-1.099-1.109-2.497-1.668-4.178-1.668
	c-1.771,0-3.267,0.676-4.45,2.011c-1.159,1.312-1.748,2.87-1.748,4.634c0,1.764,0.588,3.324,1.748,4.634
	c1.18,1.335,2.677,2.011,4.45,2.011c1.681,0,3.081-0.559,4.178-1.666v0.226c0,0.676,0.454,1.13,1.13,1.13s1.128-0.454,1.128-1.13
	V24.815C158.595,24.141,158.141,23.686,157.467,23.686z M154.946,33.191c-0.753,0.864-1.662,1.285-2.786,1.285
	c-1.124,0-2.034-0.421-2.786-1.285c-0.776-0.889-1.153-1.894-1.153-3.068s0.377-2.177,1.151-3.068
	c0.751-0.864,1.662-1.283,2.786-1.283c1.122,0,2.034,0.421,2.786,1.283c0.774,0.89,1.151,1.894,1.151,3.068
	C156.096,31.297,155.719,32.301,154.946,33.191z"/>
<path fill="#0484A0" d="M163.153,14.104c-0.676,0-1.13,0.454-1.13,1.13v20.233c0,0.676,0.454,1.13,1.13,1.13s1.13-0.454,1.13-1.13
	V15.235C164.283,14.557,163.829,14.104,163.153,14.104z"/>
<path fill="#0484A0" d="M180,30.156c0-1.773-0.594-3.34-1.766-4.657c-1.193-1.34-2.694-2.018-4.464-2.018
	c-1.771,0-3.269,0.676-4.45,2.011c-1.159,1.312-1.748,2.87-1.748,4.634c0,1.766,0.594,3.326,1.767,4.636
	c1.191,1.333,2.681,2.009,4.429,2.009c2.461,0,4.257-0.95,5.343-2.826c0.107-0.169,0.163-0.368,0.163-0.578
	c0-0.676-0.454-1.13-1.132-1.13c-0.368,0-0.701,0.178-0.936,0.504c-0.848,1.17-1.978,1.737-3.454,1.737
	c-1.049,0-1.915-0.37-2.65-1.126c-0.584-0.605-0.967-1.283-1.155-2.06h8.887C179.533,31.288,180,30.834,180,30.156z M173.752,25.773
	c1.047,0,1.913,0.371,2.646,1.136c0.588,0.613,0.971,1.298,1.16,2.085h-7.614c0.19-0.787,0.573-1.474,1.159-2.085
	C171.839,26.144,172.704,25.773,173.752,25.773z"/>
</svg>
