<?xml version="1.0" encoding="utf-8"?>
<!-- Generator: Adobe Illustrator 17.0.0, SVG Export Plug-In . SVG Version: 6.00 Build 0)  -->
<!DOCTYPE svg PUBLIC "-//W3C//DTD SVG 1.1//EN" "http://www.w3.org/Graphics/SVG/1.1/DTD/svg11.dtd">
<svg version="1.1" id="Layer_1" xmlns="http://www.w3.org/2000/svg" xmlns:xlink="http://www.w3.org/1999/xlink" x="0px" y="0px"
	 width="88px" height="122.342px" viewBox="0 0 88 122.342" enable-background="new 0 0 88 122.342" xml:space="preserve">
<path fill-rule="evenodd" clip-rule="evenodd" fill="#3EC2D2" d="M88,49.891c0,8.614-2.478,16.648-6.756,23.434
	c1.553,3.217,3.109,7.097,4.557,11.766c0.308,0.996-0.321,2.122-0.88,2.493c-0.739,0.49-1.613,0.293-1.613,0.293
	c-4.545-1.478-8.347-2.682-11.544-3.853C64.19,90.191,54.527,93.891,44,93.891c-19.59,0-36.191-12.804-41.889-30.5
	c0,0-0.546-2.207-0.497-4.114l0.029-0.012c-0.01-0.021-0.019-0.039-0.029-0.061c0-5.19,3.39-9.565,8.021-10.925
	c3.52-5.866,12.952-5.868,12.952-5.868c6.747-0.147,14.08,3.52,14.08,3.52c7.773,2.933,12.467,2.787,12.467,2.787
	c10.287,0,19.066-6.862,19.066-15.327c0-3.277-1.591-6.313-3.801-8.805c-6.514,1.616-15.299-1.55-16.585-4.176
	c-1.074-2.191,8.971-8.326,14.231-7.074c-0.001,0.011-0.003,0.023-0.004,0.034h0.147c-0.047-0.013-0.094-0.023-0.142-0.034
	c0.72-5.858,9.769-14.858,13.066-13.116c1.352,0.715,1.503,10.632-2.19,16.51C82.161,24.795,88,36.661,88,49.891z M49.28,55.757
	c-0.971,0-1.759,0.788-1.759,1.76c0,0.972,0.788,1.76,1.759,1.76c0.972,0,1.76-0.788,1.76-1.76
	C51.04,56.545,50.252,55.757,49.28,55.757z M30.8,56.344c0,0-10.12-5.867-18.114-6.307c-4.893-0.269-8.873,4.071-8.873,9.093
	c0,0-0.025,0.066-0.071,0.166c0.094,0.974,0.278,2.491,0.563,3.251C9.662,79.363,25.409,91.543,44,91.543
	c9.479,0,18.216-3.168,25.215-8.5c-1.014-0.414-1.951-0.831-2.829-1.263c-4.725,2.842-10.716,4.787-18.866,5.509
	c-14.364,1.274-24.713-4.74-26.547-5.866l-0.178-0.104c-0.387-0.219-0.524-0.712-0.304-1.1c0.22-0.387,0.712-0.524,1.099-0.304
	l0.263,0.189c3.337,1.859,11.303,6.7,25.667,5.426c7.371-0.653,12.836-2.306,17.145-4.664c-0.508-0.294-0.993-0.595-1.452-0.909
	c-0.361-0.247-0.718-0.518-1.072-0.808c-4.635,1.745-10.262,2.726-17.261,2.861c-18.501,0.357-29.889-9.875-30.214-9.974
	l-0.589-0.469c-0.405-0.328-0.467-0.921-0.139-1.325c0.328-0.405,0.921-0.467,1.326-0.139l0.136,0.173
	c0.324,0.099,11.712,10.331,30.213,9.974c6.05-0.117,10.998-0.965,15.112-2.396c-0.97-0.977-1.888-2.097-2.722-3.308
	c-3.209,0.942-6.603,1.449-10.116,1.449c-19.805,0-27.017-7.117-32.194-10.999c-0.293-0.22,0-1.027,0-1.027
	c0.807-1.173,1.907,0.146,1.907,0.146c4.987,3.378,11.362,9.974,30.287,10.12c3.217,0.025,6.279-0.394,9.157-1.183
	c-0.465-0.779-0.895-1.583-1.281-2.403c-0.714,0.042-1.432,0.066-2.157,0.066c-19.804,0-27.016-7.118-32.193-11
	c-0.293-0.22,0-1.027,0-1.027c0.806-1.173,1.907,0.147,1.907,0.147c4.987,3.378,11.362,9.974,30.287,10.12
	c0.477,0.004,0.951-0.003,1.422-0.019c-0.433-1.117-0.78-2.245-1.022-3.356C51.696,65.489,43.692,64.531,30.8,56.344z
	 M71.338,59.672c0.695,0.551,1.577,1.339,2.584,2.428c5.07-6.055,8.091-13.75,8.358-21.597c0,0,0.44-1.76,1.467-0.367
	c0,8.91-3.252,17.061-8.631,23.333c0.424,0.515,0.863,1.08,1.315,1.697c2.44-3.854,4.314-8.21,6.142-12.783l0.146-0.534
	c0.185-0.474,0.719-0.708,1.192-0.523c0.473,0.185,0.753,0.583,0.569,1.057l-0.147,0.293c-2.117,5.282-4.273,9.956-6.892,13.933
	c0.205,0.307,0.413,0.625,0.621,0.953c0.918-1.36,1.824-2.757,2.751-4.18l0.098-0.22c0.203-0.351,0.651-0.472,1.002-0.269
	c0.35,0.202,0.471,0.651,0.269,1.001l-0.048,0.074c-1.058,1.739-2.107,3.424-3.188,5.039c0.346,0.589,0.695,1.205,1.045,1.857
	c3.598-6.161,5.662-13.327,5.662-20.976c0-10.282-3.726-19.693-9.9-26.958c2.263,4.729,4.614,11.164,4.767,17.424
	C80.83,53.057,73.888,57.739,71.338,59.672z M59.253,11.023c0,0-2.495-1.259-7.433-2.092l-0.361-0.053
	c-0.647-0.036-0.931-0.575-0.894-1.222c0.036-0.647,0.504-1.17,1.151-1.134l0.355,0.026c2.704,0.473,5.325,1.193,7.836,2.136
	l0.227,0.138c0.587,0.272,0.755,0.954,0.483,1.542C60.345,10.953,59.841,11.296,59.253,11.023z M48.318,8.402l-0.929-0.113
	c-0.633-0.059-1.099-0.615-1.039-1.242c0.06-0.627,0.62-1.087,1.253-1.029l0.929,0.114c0.633,0.058,1.098,0.614,1.039,1.242
	C49.511,8,48.951,8.461,48.318,8.402z M44.149,8.236l-0.15,0C21.004,7.607,2.346,26.885,2.346,49.891
	c0,0.647-0.525,1.173-1.173,1.173C0.525,51.064,0,50.538,0,49.891C0,25.59,19.7,5.89,44,5.89l0.154,0
	c0.645,0.001,1.168,0.528,1.166,1.176C45.318,7.713,44.795,8.238,44.149,8.236z"/>
<path fill="#848484" d="M13.795,114.366c0.774-0.694,1.165-1.641,1.165-2.826c0-0.994-0.33-1.875-0.982-2.617
	c-0.667-0.76-1.506-1.145-2.493-1.145h-2.95c-0.456,0-0.763,0.307-0.763,0.763v12.798c0,0.483,0.315,0.807,0.784,0.807h3.037
	c1.16,0,2.172-0.409,3.008-1.215c0.842-0.811,1.269-1.813,1.269-2.981c0-0.877-0.267-1.688-0.793-2.41
	C14.721,115.051,14.292,114.658,13.795,114.366z M11.594,120.6H9.297v-5.287h2.297c0.753,0,1.387,0.255,1.94,0.779
	c0.546,0.518,0.811,1.128,0.811,1.864c0,0.737-0.265,1.347-0.811,1.864C12.981,120.345,12.347,120.6,11.594,120.6z M12.852,113.122
	c-0.375,0.433-0.829,0.644-1.388,0.644H9.297v-4.441h2.188c0.557,0,1.006,0.213,1.374,0.65c0.387,0.461,0.576,0.979,0.576,1.581
	C13.435,112.157,13.244,112.669,12.852,113.122z"/>
<path fill="#848484" d="M18.601,122.19c0.456,0,0.762-0.307,0.762-0.763v-12.734c0-0.456-0.306-0.763-0.762-0.763
	c-0.456,0-0.763,0.306-0.763,0.763v12.734C17.838,121.883,18.145,122.19,18.601,122.19z"/>
<path fill="#848484" d="M27.43,114.004c-0.456,0-0.763,0.306-0.763,0.763v2.473c0,3.554-1.548,3.554-2.057,3.554
	c-0.553,0-0.959-0.203-1.279-0.638c-0.306-0.404-0.453-0.895-0.453-1.507v-3.883c0-0.456-0.306-0.763-0.762-0.763
	c-0.456,0-0.763,0.307-0.763,0.764v3.894c0,0.974,0.282,1.818,0.839,2.507c0.605,0.775,1.42,1.172,2.418,1.172
	c0.815,0,1.506-0.261,2.067-0.778c0.055,0.38,0.344,0.627,0.753,0.627c0.456,0,0.763-0.307,0.763-0.764v-6.658
	C28.193,114.311,27.886,114.004,27.43,114.004z"/>
<path fill="#848484" d="M37.497,120.494c0.072-0.115,0.11-0.25,0.11-0.39c0-0.456-0.307-0.762-0.763-0.762
	c-0.249,0-0.474,0.12-0.633,0.338c-0.523,0.721-1.221,1.072-2.133,1.072c-0.646,0-1.179-0.227-1.63-0.693
	c-0.345-0.357-0.576-0.756-0.699-1.21h5.527c0.47,0,0.785-0.307,0.785-0.764c0-1.129-0.378-2.127-1.125-2.966
	c-0.76-0.854-1.719-1.288-2.848-1.288c-1.13,0-2.086,0.432-2.839,1.283c-0.738,0.835-1.113,1.827-1.113,2.951
	c0,1.124,0.379,2.117,1.126,2.952c0.759,0.85,1.71,1.281,2.826,1.281C35.658,122.298,36.804,121.691,37.497,120.494z
	 M34.079,115.378c0.645,0,1.178,0.229,1.629,0.699c0.347,0.361,0.578,0.766,0.7,1.226h-4.659c0.122-0.46,0.354-0.864,0.701-1.226
	C32.901,115.606,33.434,115.378,34.079,115.378z"/>
<path fill="#848484" d="M43.47,121.753l1.737-4.866l1.738,4.865c0.099,0.31,0.383,0.503,0.752,0.503c0.368,0,0.651-0.191,0.756-0.51
	c2.475-6.919,2.475-6.926,2.475-7.043c0-0.456-0.31-0.762-0.772-0.762c-0.343,0-0.613,0.184-0.724,0.493l-1.744,4.91l-1.732-4.903
	l-0.006-0.018l-0.008-0.017c-0.133-0.296-0.404-0.465-0.744-0.465c-0.357,0-0.633,0.19-0.739,0.509l-1.749,4.902l-1.747-4.917
	c-0.11-0.309-0.381-0.494-0.723-0.494c-0.462,0-0.772,0.306-0.772,0.762c0,0.116,0,0.123,2.479,7.053
	c0.104,0.31,0.39,0.499,0.762,0.499C43.077,122.255,43.362,122.067,43.47,121.753z"/>
<path fill="#848484" d="M54.42,121.385v-2.896v-0.261v-0.015l-0.001-0.015c-0.052-0.797,0.1-1.446,0.462-1.985
	c0.372-0.547,0.905-0.814,1.628-0.814c0.534,0,0.932,0.202,1.25,0.635c0.321,0.409,0.473,0.896,0.473,1.501v3.849
	c0,0.455,0.306,0.761,0.762,0.761c0.456,0,0.763-0.306,0.763-0.762v-3.862c0-0.971-0.283-1.812-0.84-2.501
	c-0.605-0.773-1.419-1.168-2.417-1.168c-0.815,0-1.511,0.242-2.079,0.723v-5.883c0-0.456-0.306-0.763-0.763-0.763
	s-0.763,0.306-0.763,0.763v12.691c0,0.456,0.306,0.762,0.763,0.762S54.42,121.84,54.42,121.385z"/>
<path fill="#848484" d="M68.931,122.103c0.456,0,0.762-0.306,0.762-0.762v-6.617c0-0.456-0.306-0.763-0.762-0.763
	c-0.457,0-0.763,0.306-0.763,0.763v0.085c-0.687-0.65-1.549-0.978-2.578-0.978c-1.13,0-2.086,0.431-2.839,1.283
	c-0.738,0.835-1.113,1.827-1.113,2.951c0,1.123,0.375,2.116,1.113,2.95c0.753,0.851,1.708,1.283,2.839,1.283
	c1.029,0,1.891-0.328,2.578-0.978v0.02C68.168,121.796,68.474,122.103,68.931,122.103z M67.304,119.962
	c-0.462,0.531-1.023,0.79-1.714,0.79c-0.692,0-1.253-0.258-1.715-0.79c-0.479-0.55-0.712-1.171-0.712-1.897
	c0-0.726,0.233-1.346,0.712-1.896c0.463-0.532,1.024-0.791,1.715-0.791c0.691,0,1.252,0.259,1.714,0.79
	c0.479,0.551,0.712,1.171,0.712,1.897C68.016,118.79,67.783,119.41,67.304,119.962z"/>
<path fill="#848484" d="M72.51,122.19c0.456,0,0.762-0.307,0.762-0.763v-12.734c0-0.456-0.306-0.763-0.762-0.763
	c-0.456,0-0.763,0.306-0.763,0.763v12.734C71.747,121.883,72.054,122.19,72.51,122.19z"/>
<path fill="#848484" d="M82.599,120.494c0.072-0.115,0.11-0.249,0.11-0.39c0-0.456-0.306-0.762-0.763-0.762
	c-0.25,0-0.475,0.121-0.634,0.339c-0.522,0.721-1.22,1.071-2.132,1.071c-0.646,0-1.179-0.227-1.63-0.693
	c-0.345-0.356-0.576-0.755-0.698-1.209h5.527c0.47,0,0.785-0.307,0.785-0.764c0-1.128-0.378-2.126-1.125-2.966
	c-0.76-0.854-1.719-1.288-2.848-1.288c-1.13,0-2.086,0.431-2.839,1.283c-0.738,0.835-1.113,1.828-1.113,2.951
	c0,1.124,0.379,2.117,1.126,2.952c0.759,0.85,1.71,1.281,2.826,1.281C80.759,122.298,81.905,121.691,82.599,120.494z M79.18,115.378
	c0.644,0,1.177,0.229,1.63,0.699c0.346,0.361,0.578,0.765,0.7,1.226h-4.659c0.122-0.46,0.354-0.865,0.701-1.226
	C78.002,115.606,78.535,115.378,79.18,115.378z"/>
</svg>
