<?xml version="1.0" encoding="utf-8"?>
<!-- Generator: Adobe Illustrator 17.0.0, SVG Export Plug-In . SVG Version: 6.00 Build 0)  -->
<!DOCTYPE svg PUBLIC "-//W3C//DTD SVG 1.1//EN" "http://www.w3.org/Graphics/SVG/1.1/DTD/svg11.dtd">
<svg version="1.1" id="레이어_1" xmlns="http://www.w3.org/2000/svg" xmlns:xlink="http://www.w3.org/1999/xlink" x="0px"
	 y="0px" width="350px" height="389.593px" viewBox="0 0 350 389.593" enable-background="new 0 0 350 389.593"
	 xml:space="preserve">
<g opacity="0.5">
	<g>
		<path fill="#53CEFB" d="M65.981,225.05c1.353,0.601,3.671,1.091,5.152,1.091h140.629h11.914h23.298h1.967h6.858
			c1.48,0,3.799-0.491,5.152-1.091c0,0,6.624-2.939,6.624-7.865c0-4.927-6.624-7.866-6.624-7.866
			c-1.353-0.6-3.672-1.091-5.152-1.091h-59.966c-1.48,0-2.692-1.211-2.692-2.692v-1.264c0-1.481,1.211-2.692,2.692-2.692h107.345
			c1.481,0,3.799-0.491,5.152-1.092c0,0,6.624-2.939,6.624-7.865s-6.624-7.866-6.624-7.866c-1.353-0.6-3.671-1.092-5.152-1.092
			H118.512c-1.48,0-3.799,0.492-5.152,1.092c0,0-6.624,2.939-6.624,7.866s6.624,7.865,6.624,7.865
			c1.353,0.601,3.672,1.092,5.152,1.092h54.023c1.48,0,2.692,1.211,2.692,2.692l0,1.264c0,1.481-1.211,2.692-2.692,2.692H71.133
			c-1.481,0-3.799,0.492-5.152,1.091c0,0-6.624,2.939-6.624,7.866C59.357,222.112,65.981,225.05,65.981,225.05z"/>
		<path fill="#53CEFB" d="M223.676,231.779h-11.914h-12.439c-1.48,0-3.799,0.492-5.152,1.091c0,0-6.624,2.939-6.624,7.866
			s6.624,7.865,6.624,7.865c1.353,0.601,3.672,1.091,5.152,1.091H332.62c1.481,0,3.799-0.491,5.152-1.091
			c0,0,6.624-2.939,6.624-7.865s-6.624-7.866-6.624-7.866c-1.353-0.6-3.671-1.091-5.152-1.091h-83.68h-1.967H223.676z"/>
		<path fill="#53CEFB" d="M226.368,228.833v0.254c0,1.481-1.211,2.692-2.692,2.692h23.298c-1.48,0-2.692-1.211-2.692-2.692v-0.254
			c0-1.481,1.211-2.692,2.692-2.692h-23.298C225.156,226.142,226.368,227.353,226.368,228.833z"/>
	</g>
	<g>
		<path fill="#53CEFB" d="M121.205,272.237c1.353,0.6,3.672,1.091,5.152,1.091h6.863h45.337h23.298h10.67h15.648
			c1.481,0,3.799-0.492,5.152-1.091c0,0,6.624-2.939,6.624-7.866c0-4.927-6.624-7.865-6.624-7.865
			c-1.353-0.601-3.671-1.092-5.152-1.092H126.357c-1.48,0-3.799,0.492-5.152,1.092c0,0-6.624,2.938-6.624,7.865
			C114.581,269.297,121.205,272.237,121.205,272.237z"/>
	</g>
	<path fill="#53CEFB" d="M204.666,252.468v0.254c0,1.481-1.211,2.692-2.692,2.692h23.298c-1.48,0-2.692-1.211-2.692-2.692v-0.254
		c0-1.48,1.211-2.692,2.692-2.692h-23.298C203.455,249.776,204.666,250.987,204.666,252.468z"/>
</g>
<path opacity="0.5" fill="#53CEFB" d="M48.504,131.701c1.353,0.6,3.672,1.092,5.152,1.092h68.038c1.48,0,2.692,1.211,2.692,2.692
	v0.326c0,1.481-1.211,2.692-2.692,2.692H95.376c-1.48,0-3.799,0.491-5.152,1.092c0,0-6.624,2.939-6.624,7.866
	s6.624,7.865,6.624,7.865c1.353,0.6,3.672,1.092,5.152,1.092l133.297,0c1.48,0,3.799-0.491,5.152-1.092c0,0,6.624-2.939,6.624-7.866
	s-6.624-7.866-6.624-7.866c-1.353-0.6-3.672-1.092-5.152-1.092h-83.682c-1.48,0-2.692-1.211-2.692-2.692v-0.326
	c0-1.481,1.211-2.692,2.692-2.692h41.961c1.48,0,3.799-0.491,5.152-1.092c0,0,6.624-2.939,6.624-7.866
	c0-4.927-6.624-7.865-6.624-7.865c-1.353-0.6-3.672-1.092-5.152-1.092H53.656c-1.48,0-3.799,0.491-5.152,1.092
	c0,0-6.624,2.939-6.624,7.865C41.88,128.761,48.504,131.701,48.504,131.701z"/>
<g opacity="0.5">
	<path fill="#53CEFB" d="M296.571,70.169c-1.353-0.6-3.672-1.091-5.152-1.091h-6.863h-26.107h-23.298h-10.67h-15.647
		c-1.481,0-3.799,0.491-5.152,1.091c0,0-6.624,2.939-6.624,7.866c0,4.927,6.624,7.865,6.624,7.865
		c1.353,0.601,3.671,1.092,5.152,1.092h82.585c1.48,0,3.799-0.492,5.152-1.092c0,0,6.624-2.939,6.624-7.865
		C303.195,73.108,296.571,70.169,296.571,70.169z"/>
</g>
<g opacity="0.5">
	<path fill="#53CEFB" d="M99.513,287.371c-1.353-0.6-3.672-1.092-5.152-1.092h-6.863H61.391H38.094h-10.67H11.776
		c-1.481,0-3.799,0.492-5.152,1.092c0,0-6.624,2.939-6.624,7.866s6.624,7.865,6.624,7.865c1.353,0.601,3.671,1.092,5.152,1.092
		h82.585c1.48,0,3.799-0.492,5.152-1.092c0,0,6.624-2.939,6.624-7.865S99.513,287.371,99.513,287.371z"/>
</g>
<rect x="225.115" y="288.309" fill="#76CBEB" width="16.374" height="100.275"/>
<rect x="232.866" y="337.892" fill="#6EBDDB" width="27.151" height="50.692"/>
<rect x="121.123" y="337.892" fill="#6EBDDB" width="27.151" height="50.692"/>
<rect x="25.57" y="337.892" fill="#6EBDDB" width="27.151" height="50.692"/>
<polygon fill="#76CBEB" points="325.213,308.37 311.461,300.874 311.461,388.194 325.213,388.194 "/>
<polygon fill="#76CBEB" points="48.756,308.37 35.004,300.874 35.004,388.194 48.756,388.194 "/>
<polygon fill="#6DBBD9" points="309.052,308.37 295.299,300.874 295.299,388.194 309.052,388.194 "/>
<g>
	<g>
		<rect x="46.535" y="230.372" fill="#FFFFFF" width="41.496" height="4.907"/>
		<path fill="#424E51" d="M89.04,236.288H45.525v-6.925H89.04V236.288z M47.544,234.269h39.477v-2.888H47.544V234.269z"/>
	</g>
	<g>
		<rect x="42.666" y="267.97" fill="#FFFFFF" width="49.235" height="4.907"/>
		<path fill="#424E51" d="M92.91,273.886H41.656v-6.925H92.91V273.886z M43.675,271.867h47.216v-2.888H43.675V271.867z"/>
	</g>
	<g>
		<rect x="49.45" y="235.225" fill="#8FDEFB" width="35.664" height="32.745"/>
		<path fill="#424E51" d="M85.115,268.979H49.45c-0.558,0-1.009-0.452-1.009-1.009v-32.745c0-0.558,0.452-1.009,1.009-1.009h35.664
			c0.558,0,1.009,0.452,1.009,1.009v32.745C86.124,268.528,85.672,268.979,85.115,268.979z M50.46,266.961h33.646v-30.727H50.46
			V266.961z"/>
	</g>
	<g>
		<rect x="45.862" y="272.877" fill="#8FDEFB" width="42.842" height="39.792"/>
		<path fill="#424E51" d="M88.704,313.678H45.862c-0.558,0-1.009-0.452-1.009-1.009v-39.792c0-0.558,0.452-1.009,1.009-1.009h42.842
			c0.558,0,1.009,0.452,1.009,1.009v39.792C89.713,313.226,89.261,313.678,88.704,313.678z M46.871,311.659h40.823v-37.773H46.871
			V311.659z"/>
	</g>
	<g>
		<rect x="38.964" y="312.668" fill="#FFFFFF" width="56.637" height="4.907"/>
		<path fill="#424E51" d="M96.611,318.584H37.955v-6.925h58.655V318.584z M39.974,316.565h54.618v-2.888H39.974V316.565z"/>
	</g>
	<g>
		<rect x="42.641" y="317.575" fill="#8FDEFB" width="49.283" height="71.009"/>
		<path fill="#424E51" d="M91.924,389.593H42.641c-0.558,0-1.009-0.452-1.009-1.009v-71.009c0-0.558,0.452-1.009,1.009-1.009h49.283
			c0.558,0,1.009,0.452,1.009,1.009v71.009C92.933,389.142,92.482,389.593,91.924,389.593z M43.651,387.575h47.264v-68.991H43.651
			V387.575z"/>
	</g>
	<g>
		<rect x="54.75" y="240.045" fill="#FFFFFF" width="3.869" height="27.925"/>
		<path fill="#424E51" d="M59.628,268.979H53.74v-29.944h5.888V268.979z M55.759,266.961h1.851v-25.906h-1.851V266.961z"/>
	</g>
	<g>
		<rect x="61.815" y="240.045" fill="#FFFFFF" width="3.869" height="27.925"/>
		<path fill="#424E51" d="M66.694,268.979h-5.888v-29.944h5.888V268.979z M62.825,266.961h1.851v-25.906h-1.851V266.961z"/>
	</g>
	<g>
		<rect x="68.881" y="240.045" fill="#FFFFFF" width="3.869" height="27.925"/>
		<path fill="#424E51" d="M73.759,268.979h-5.888v-29.944h5.888V268.979z M69.89,266.961h1.851v-25.906H69.89V266.961z"/>
	</g>
	<g>
		<rect x="75.946" y="240.045" fill="#FFFFFF" width="3.869" height="27.925"/>
		<path fill="#424E51" d="M80.825,268.979h-5.888v-29.944h5.888V268.979z M76.956,266.961h1.851v-25.906h-1.851V266.961z"/>
	</g>
	<rect x="54.75" y="280.42" fill="#424E51" width="25.066" height="2.019"/>
	<rect x="54.75" y="285.803" fill="#424E51" width="25.066" height="2.019"/>
	<rect x="54.75" y="291.186" fill="#424E51" width="25.066" height="2.019"/>
	<rect x="54.75" y="296.57" fill="#424E51" width="25.066" height="2.019"/>
	<rect x="54.75" y="301.953" fill="#424E51" width="25.066" height="2.019"/>
</g>
<g>
	<g>
		<rect x="256.607" y="269.916" fill="#8FDEFB" width="45.534" height="118.668"/>
		<path fill="#424E51" d="M303.15,389.593h-47.553V268.906h47.553V389.593z M257.616,387.575h43.515v-116.65h-43.515V387.575z"/>
	</g>
	<g>
		<rect x="260.846" y="288.309" fill="#FFFFFF" width="6.101" height="100.275"/>
		<path fill="#424E51" d="M267.957,389.593h-8.12V287.299h8.12V389.593z M261.856,387.575h4.082v-98.257h-4.082V387.575z"/>
	</g>
	<g>
		<rect x="271.164" y="288.309" fill="#FFFFFF" width="6.102" height="100.275"/>
		<path fill="#424E51" d="M278.275,389.593h-8.12V287.299h8.12V389.593z M272.173,387.575h4.083v-98.257h-4.083V387.575z"/>
	</g>
	<g>
		<rect x="281.482" y="288.309" fill="#FFFFFF" width="6.101" height="100.275"/>
		<path fill="#424E51" d="M288.593,389.593h-8.12V287.299h8.12V389.593z M282.492,387.575h4.082v-98.257h-4.082V387.575z"/>
	</g>
	<g>
		<rect x="291.8" y="288.309" fill="#FFFFFF" width="6.101" height="100.275"/>
		<path fill="#424E51" d="M298.911,389.593h-8.12V287.299h8.12V389.593z M292.81,387.575h4.082v-98.257h-4.082V387.575z"/>
	</g>
	<g>
		<rect x="268.046" y="246.92" fill="#8FDEFB" width="22.655" height="22.995"/>
		<path fill="#424E51" d="M291.711,270.925h-24.674v-25.014h24.674V270.925z M269.056,268.906h20.636V247.93h-20.636V268.906z"/>
	</g>
	<rect x="273.205" y="253.147" fill="#424E51" width="12.337" height="2.019"/>
	<rect x="273.205" y="257.409" fill="#424E51" width="12.337" height="2.019"/>
	<rect x="273.205" y="261.67" fill="#424E51" width="12.337" height="2.019"/>
	<g>
		<rect x="274.135" y="224.831" fill="#8FDEFB" width="10.477" height="22.089"/>
		<path fill="#424E51" d="M285.622,247.93h-12.496v-24.108h12.496V247.93z M275.144,245.911h8.459V225.84h-8.459V245.911z"/>
	</g>
	<rect x="278.364" y="208.569" fill="#424E51" width="2.019" height="16.262"/>
	<rect x="269.617" y="228.419" fill="#424E51" width="19.514" height="2.019"/>
	<rect x="277.635" y="233.354" fill="#424E51" width="3.477" height="3.477"/>
	<rect x="277.635" y="239.13" fill="#424E51" width="3.477" height="3.477"/>
	<g>
		<rect x="260.846" y="275.345" fill="#FFFFFF" width="6.101" height="6.831"/>
		<path fill="#424E51" d="M267.957,283.186h-8.12v-8.85h8.12V283.186z M261.856,281.167h4.082v-4.813h-4.082V281.167z"/>
	</g>
	<g>
		<rect x="271.085" y="275.345" fill="#FFFFFF" width="6.101" height="6.831"/>
		<path fill="#424E51" d="M278.195,283.186h-8.12v-8.85h8.12V283.186z M272.094,281.167h4.082v-4.813h-4.082V281.167z"/>
	</g>
	<g>
		<rect x="281.482" y="275.345" fill="#FFFFFF" width="6.101" height="6.831"/>
		<path fill="#424E51" d="M288.593,283.186h-8.12v-8.85h8.12V283.186z M282.492,281.167h4.082v-4.813h-4.082V281.167z"/>
	</g>
	<g>
		<rect x="291.8" y="275.345" fill="#FFFFFF" width="6.101" height="6.831"/>
		<path fill="#424E51" d="M298.911,283.186h-8.12v-8.85h8.12V283.186z M292.809,281.167h4.082v-4.813h-4.082V281.167z"/>
	</g>
</g>
<g>
	<g>
		<rect x="296.219" y="329.354" fill="#8FDEFB" width="20.187" height="59.23"/>
		<path fill="#424E51" d="M317.416,389.593H295.21v-61.248h22.206V389.593z M297.229,387.575h18.169v-57.211h-18.169V387.575z"/>
	</g>
	<rect x="299.247" y="336.251" fill="#FFFFFF" width="2.893" height="52.333"/>
	<rect x="304.631" y="336.251" fill="#FFFFFF" width="2.893" height="52.333"/>
	<rect x="310.014" y="336.251" fill="#FFFFFF" width="2.893" height="52.333"/>
</g>
<g>
	<g>
		<polygon fill="#8FDEFB" points="266.839,382.864 238.577,382.864 238.577,309.349 266.839,317.631 		"/>
		<path fill="#424E51" d="M267.848,383.874h-30.281v-75.872l30.281,8.874V383.874z M239.586,381.855h26.244v-63.468l-26.244-7.691
			V381.855z"/>
	</g>
	<g>
		<rect x="233.361" y="382.864" fill="#8FDEFB" width="38.692" height="5.72"/>
		<path fill="#424E51" d="M273.063,389.593h-40.711v-7.738h40.711V389.593z M234.371,387.575h36.674v-3.701h-36.674V387.575z"/>
	</g>
	<g>
		<rect x="243.329" y="321.489" fill="#424E51" width="6.224" height="2.019"/>
		<rect x="255.778" y="321.489" fill="#424E51" width="6.224" height="2.019"/>
	</g>
	<g>
		<rect x="243.329" y="326.62" fill="#424E51" width="6.224" height="2.019"/>
		<rect x="255.778" y="326.62" fill="#424E51" width="6.224" height="2.019"/>
	</g>
	<g>
		<rect x="243.329" y="331.752" fill="#424E51" width="6.224" height="2.019"/>
		<rect x="255.778" y="331.752" fill="#424E51" width="6.224" height="2.019"/>
	</g>
	<g>
		<rect x="243.329" y="336.883" fill="#424E51" width="6.224" height="2.019"/>
		<rect x="255.778" y="336.883" fill="#424E51" width="6.224" height="2.019"/>
	</g>
	<g>
		<rect x="243.329" y="342.014" fill="#424E51" width="6.224" height="2.019"/>
		<rect x="255.778" y="342.014" fill="#424E51" width="6.224" height="2.019"/>
	</g>
	<g>
		<rect x="243.329" y="347.145" fill="#424E51" width="6.224" height="2.019"/>
		<rect x="255.778" y="347.145" fill="#424E51" width="6.224" height="2.019"/>
	</g>
	<g>
		<rect x="243.329" y="352.277" fill="#424E51" width="6.224" height="2.019"/>
		<rect x="255.778" y="352.277" fill="#424E51" width="6.224" height="2.019"/>
	</g>
	<g>
		<rect x="243.329" y="357.408" fill="#424E51" width="6.224" height="2.019"/>
		<rect x="255.778" y="357.408" fill="#424E51" width="6.224" height="2.019"/>
	</g>
	<g>
		<rect x="243.329" y="362.539" fill="#424E51" width="6.224" height="2.019"/>
		<rect x="255.778" y="362.539" fill="#424E51" width="6.224" height="2.019"/>
	</g>
	<g>
		<rect x="243.329" y="367.671" fill="#424E51" width="6.224" height="2.019"/>
		<rect x="255.778" y="367.671" fill="#424E51" width="6.224" height="2.019"/>
	</g>
	<g>
		<rect x="243.329" y="372.802" fill="#424E51" width="6.224" height="2.019"/>
		<rect x="255.778" y="372.802" fill="#424E51" width="6.224" height="2.019"/>
	</g>
</g>
<g>
	<g>
		<path fill="#30C96B" d="M264.604,362.851c0-2.245-1.409-4.161-3.391-4.913c0.053-0.3,0.083-0.609,0.083-0.925
			c0-2.902-2.353-5.255-5.254-5.255c-0.28,0-0.555,0.023-0.823,0.065c-0.578-2.274-2.638-3.957-5.092-3.957
			c-2.444,0-4.497,1.668-5.085,3.927c-0.196-0.023-0.396-0.035-0.598-0.035c-2.902,0-5.254,2.353-5.254,5.255
			c0,0.289,0.024,0.571,0.069,0.847c-2.097,0.69-3.611,2.663-3.611,4.991c0,2.563,1.836,4.697,4.265,5.16
			c-0.001,0.032-0.003,0.063-0.003,0.095c0,2.902,2.353,5.254,5.254,5.254c2.256,0,4.179-1.421,4.924-3.417
			c0.745,1.996,2.668,3.417,4.923,3.417c2.902,0,5.255-2.352,5.255-5.254c0-0.027-0.002-0.054-0.002-0.081
			C262.729,367.592,264.604,365.442,264.604,362.851z"/>
		<path fill="#424E51" d="M255.01,374.369c-1.945,0-3.754-0.915-4.923-2.396c-1.169,1.48-2.979,2.396-4.924,2.396
			c-3.219,0-5.879-2.441-6.225-5.569c-2.534-0.834-4.3-3.22-4.3-5.948c0-2.435,1.395-4.612,3.545-5.644
			c-0.002-0.065-0.003-0.129-0.003-0.194c0-3.415,2.747-6.2,6.147-6.263c0.95-2.328,3.229-3.893,5.8-3.893
			c2.575,0,4.851,1.563,5.8,3.893c0.039-0.001,0.077-0.001,0.116-0.001c3.454,0,6.264,2.81,6.264,6.264
			c0,0.103-0.003,0.207-0.008,0.312c2.011,1.078,3.316,3.209,3.316,5.526c0,2.771-1.8,5.167-4.381,5.974
			C260.875,371.941,258.221,374.369,255.01,374.369z M250.087,368.933c0.421,0,0.798,0.262,0.946,0.656
			c0.616,1.651,2.215,2.761,3.978,2.761c2.341,0,4.245-1.904,4.245-4.244c0-0.005-0.002-0.052-0.002-0.056
			c-0.012-0.499,0.343-0.932,0.835-1.019c2.032-0.356,3.507-2.114,3.507-4.179c0-1.752-1.101-3.347-2.74-3.969
			c-0.453-0.172-0.72-0.642-0.636-1.12c0.045-0.252,0.067-0.504,0.067-0.749c0-2.341-1.904-4.245-4.245-4.245
			c-0.22,0-0.445,0.018-0.667,0.053c-0.516,0.081-1.006-0.243-1.135-0.749c-0.478-1.881-2.17-3.196-4.114-3.196
			c-1.933,0-3.622,1.304-4.108,3.172c-0.127,0.487-0.586,0.804-1.093,0.748c-0.163-0.019-0.326-0.029-0.482-0.029
			c-2.341,0-4.245,1.904-4.245,4.245c0,0.226,0.019,0.456,0.056,0.686c0.079,0.49-0.21,0.965-0.681,1.12
			c-1.745,0.574-2.917,2.195-2.917,4.032c0,2.035,1.449,3.788,3.444,4.168c0.484,0.092,0.83,0.52,0.82,1.013l-0.002,0.055
			c-0.001,2.359,1.903,4.264,4.244,4.264c1.763,0,3.362-1.11,3.978-2.761C249.289,369.194,249.666,368.933,250.087,368.933z"/>
	</g>
	<g>
		<polyline fill="#FFFFFF" points="252.27,365.624 253.952,388.584 246.221,388.584 247.904,365.624 		"/>
		<polygon fill="#424E51" points="255.038,389.593 245.135,389.593 246.897,365.55 248.91,365.697 247.307,387.575 252.866,387.575 
			251.263,365.697 253.277,365.55 		"/>
	</g>
	<path fill="#424E51" d="M252.581,367.205c-0.941,0-1.827-0.365-2.494-0.981c-0.666,0.615-1.553,0.981-2.494,0.981
		c-2.024,0-3.67-1.646-3.67-3.67h2.019c0,0.91,0.741,1.651,1.652,1.651c0.686,0,1.308-0.432,1.548-1.074
		c0.147-0.395,0.524-0.656,0.946-0.656c0.421,0,0.798,0.262,0.946,0.656c0.24,0.642,0.862,1.074,1.548,1.074
		c0.911,0,1.652-0.741,1.652-1.651h2.019C256.251,365.558,254.605,367.205,252.581,367.205z"/>
</g>
<g>
	<g>
		<path fill="#26A156" d="M299.091,362.851c0-2.245-1.409-4.161-3.391-4.913c0.053-0.3,0.083-0.609,0.083-0.925
			c0-2.902-2.353-5.255-5.254-5.255c-0.28,0-0.555,0.023-0.823,0.065c-0.578-2.274-2.638-3.957-5.092-3.957
			c-2.444,0-4.497,1.668-5.085,3.927c-0.196-0.023-0.396-0.035-0.598-0.035c-2.902,0-5.254,2.353-5.254,5.255
			c0,0.289,0.024,0.571,0.069,0.847c-2.097,0.69-3.611,2.663-3.611,4.991c0,2.563,1.836,4.697,4.264,5.16
			c-0.001,0.032-0.003,0.063-0.003,0.095c0,2.902,2.353,5.254,5.254,5.254c2.256,0,4.179-1.421,4.924-3.417
			c0.745,1.996,2.668,3.417,4.923,3.417c2.902,0,5.254-2.352,5.254-5.254c0-0.027-0.002-0.054-0.002-0.081
			C297.216,367.592,299.091,365.442,299.091,362.851z"/>
		<path fill="#424E51" d="M289.497,374.369c-1.945,0-3.754-0.915-4.923-2.396c-1.169,1.48-2.979,2.396-4.924,2.396
			c-3.219,0-5.879-2.441-6.225-5.569c-2.534-0.834-4.3-3.22-4.3-5.948c0-2.435,1.395-4.612,3.545-5.644
			c-0.002-0.065-0.003-0.129-0.003-0.194c0-3.415,2.747-6.2,6.147-6.263c0.95-2.328,3.229-3.893,5.8-3.893
			c2.575,0,4.851,1.563,5.8,3.893c3.502-0.076,6.38,2.77,6.38,6.263c0,0.103-0.003,0.207-0.008,0.312
			c2.011,1.078,3.316,3.209,3.316,5.526c0,2.771-1.8,5.167-4.381,5.974C295.361,371.941,292.708,374.369,289.497,374.369z
			 M284.574,368.933c0.421,0,0.798,0.262,0.946,0.656c0.616,1.651,2.215,2.761,3.978,2.761c2.341,0,4.245-1.904,4.245-4.244
			c0-0.005-0.002-0.052-0.002-0.056c-0.012-0.499,0.343-0.932,0.835-1.019c2.032-0.356,3.507-2.114,3.507-4.179
			c0-1.752-1.101-3.347-2.74-3.969c-0.453-0.172-0.72-0.642-0.636-1.12c0.045-0.252,0.067-0.504,0.067-0.749
			c0-2.341-1.904-4.245-4.245-4.245c-0.22,0-0.445,0.018-0.667,0.053c-0.515,0.081-1.006-0.243-1.135-0.749
			c-0.478-1.881-2.17-3.196-4.114-3.196c-1.933,0-3.622,1.304-4.108,3.172c-0.127,0.487-0.588,0.804-1.093,0.748
			c-0.163-0.019-0.326-0.029-0.482-0.029c-2.341,0-4.245,1.904-4.245,4.245c0,0.226,0.019,0.456,0.056,0.686
			c0.079,0.49-0.21,0.965-0.681,1.12c-1.745,0.574-2.917,2.195-2.917,4.032c0,2.035,1.449,3.788,3.444,4.168
			c0.484,0.092,0.83,0.52,0.82,1.013l-0.002,0.055c-0.001,2.359,1.903,4.264,4.244,4.264c1.763,0,3.362-1.11,3.978-2.761
			C283.775,369.194,284.153,368.933,284.574,368.933z"/>
	</g>
	<g>
		<polyline fill="#FFFFFF" points="286.757,365.624 288.439,388.584 280.708,388.584 282.39,365.624 		"/>
		<polygon fill="#424E51" points="289.525,389.593 279.622,389.593 281.384,365.55 283.397,365.697 281.794,387.575 
			287.353,387.575 285.75,365.697 287.764,365.55 		"/>
	</g>
	<path fill="#424E51" d="M287.067,367.205c-0.941,0-1.827-0.365-2.493-0.981c-0.666,0.615-1.553,0.981-2.494,0.981
		c-2.024,0-3.67-1.646-3.67-3.67h2.019c0,0.91,0.741,1.651,1.652,1.651c0.686,0,1.308-0.432,1.548-1.074
		c0.147-0.395,0.524-0.656,0.946-0.656c0.421,0,0.798,0.262,0.946,0.656c0.24,0.642,0.862,1.074,1.548,1.074
		c0.911,0,1.652-0.741,1.652-1.651h2.019C290.738,365.558,289.091,367.205,287.067,367.205z"/>
</g>
<g>
	<g>
		<path fill="#30C96B" d="M333.578,362.851c0-2.245-1.409-4.161-3.391-4.913c0.053-0.3,0.083-0.609,0.083-0.925
			c0-2.902-2.353-5.255-5.254-5.255c-0.28,0-0.555,0.023-0.823,0.065c-0.578-2.274-2.638-3.957-5.092-3.957
			c-2.444,0-4.497,1.668-5.085,3.927c-0.196-0.023-0.396-0.035-0.598-0.035c-2.902,0-5.254,2.353-5.254,5.255
			c0,0.289,0.024,0.571,0.069,0.847c-2.097,0.69-3.611,2.663-3.611,4.991c0,2.563,1.836,4.697,4.265,5.16
			c-0.001,0.032-0.003,0.063-0.003,0.095c0,2.902,2.353,5.254,5.254,5.254c2.256,0,4.179-1.421,4.924-3.417
			c0.745,1.996,2.668,3.417,4.923,3.417c2.902,0,5.255-2.352,5.255-5.254c0-0.027-0.002-0.054-0.002-0.081
			C331.703,367.592,333.578,365.442,333.578,362.851z"/>
		<path fill="#424E51" d="M323.984,374.369c-1.945,0-3.754-0.915-4.923-2.396c-1.169,1.48-2.979,2.396-4.924,2.396
			c-3.219,0-5.879-2.441-6.225-5.569c-2.534-0.834-4.3-3.22-4.3-5.948c0-2.435,1.395-4.612,3.545-5.644
			c-0.002-0.065-0.003-0.129-0.003-0.194c0-3.415,2.747-6.2,6.147-6.263c0.95-2.328,3.229-3.893,5.8-3.893
			c2.575,0,4.851,1.563,5.8,3.893c3.498-0.076,6.38,2.77,6.38,6.263c0,0.103-0.003,0.207-0.008,0.312
			c2.011,1.078,3.316,3.209,3.316,5.526c0,2.771-1.8,5.167-4.381,5.974C329.848,371.941,327.194,374.369,323.984,374.369z
			 M319.061,368.933c0.421,0,0.798,0.262,0.946,0.656c0.616,1.651,2.215,2.761,3.978,2.761c2.341,0,4.245-1.904,4.245-4.244
			c0-0.005-0.002-0.052-0.002-0.056c-0.012-0.499,0.343-0.932,0.835-1.019c2.032-0.356,3.507-2.114,3.507-4.179
			c0-1.752-1.101-3.347-2.74-3.969c-0.453-0.172-0.72-0.642-0.636-1.12c0.045-0.252,0.067-0.504,0.067-0.749
			c0-2.341-1.904-4.245-4.245-4.245c-0.22,0-0.445,0.018-0.667,0.053c-0.514,0.081-1.006-0.243-1.135-0.749
			c-0.478-1.881-2.17-3.196-4.114-3.196c-1.933,0-3.622,1.304-4.108,3.172c-0.127,0.487-0.589,0.804-1.093,0.748
			c-0.163-0.019-0.326-0.029-0.482-0.029c-2.341,0-4.245,1.904-4.245,4.245c0,0.226,0.019,0.456,0.056,0.686
			c0.079,0.49-0.21,0.965-0.681,1.12c-1.745,0.574-2.917,2.195-2.917,4.032c0,2.035,1.449,3.788,3.444,4.168
			c0.484,0.092,0.83,0.52,0.82,1.013l-0.002,0.055c-0.001,2.359,1.903,4.264,4.244,4.264c1.763,0,3.362-1.11,3.978-2.761
			C318.262,369.194,318.639,368.933,319.061,368.933z"/>
	</g>
	<g>
		<polyline fill="#FFFFFF" points="321.244,365.624 322.926,388.584 315.195,388.584 316.877,365.624 		"/>
		<polygon fill="#424E51" points="324.012,389.593 314.109,389.593 315.87,365.55 317.884,365.697 316.281,387.575 321.84,387.575 
			320.237,365.697 322.25,365.55 		"/>
	</g>
	<path fill="#424E51" d="M321.554,367.205c-0.941,0-1.827-0.365-2.493-0.981c-0.666,0.615-1.553,0.981-2.494,0.981
		c-2.024,0-3.67-1.646-3.67-3.67h2.019c0,0.91,0.741,1.651,1.652,1.651c0.686,0,1.308-0.432,1.548-1.074
		c0.147-0.395,0.524-0.656,0.946-0.656c0.421,0,0.798,0.262,0.946,0.656c0.24,0.642,0.862,1.074,1.548,1.074
		c0.911,0,1.652-0.741,1.652-1.651h2.019C325.225,365.558,323.578,367.205,321.554,367.205z"/>
</g>
<g>
	<g>
		<rect x="97.107" y="280.072" fill="#8FDEFB" width="35.328" height="108.512"/>
		<path fill="#424E51" d="M132.435,389.593H97.107c-0.558,0-1.009-0.452-1.009-1.009V280.072c0-0.558,0.452-1.009,1.009-1.009
			h35.328c0.558,0,1.009,0.452,1.009,1.009v108.512C133.445,389.142,132.993,389.593,132.435,389.593z M98.117,387.575h33.309
			V281.082H98.117V387.575z"/>
	</g>
	<g>
		<rect x="104.7" y="291.568" fill="#424E51" width="3.875" height="3.875"/>
		<rect x="112.834" y="291.568" fill="#424E51" width="3.875" height="3.875"/>
		<rect x="120.968" y="291.568" fill="#FFFFFF" width="3.875" height="3.875"/>
	</g>
	<g>
		<rect x="104.7" y="301.773" fill="#FFFFFF" width="3.875" height="3.875"/>
		<rect x="112.834" y="301.773" fill="#424E51" width="3.875" height="3.875"/>
		<rect x="120.968" y="301.773" fill="#424E51" width="3.875" height="3.875"/>
	</g>
	<g>
		<rect x="104.7" y="311.979" fill="#424E51" width="3.875" height="3.875"/>
		<rect x="112.834" y="311.979" fill="#424E51" width="3.875" height="3.875"/>
		<rect x="120.968" y="311.979" fill="#424E51" width="3.875" height="3.875"/>
	</g>
	<g>
		<rect x="104.7" y="322.185" fill="#424E51" width="3.875" height="3.875"/>
		<rect x="112.834" y="322.185" fill="#FFFFFF" width="3.875" height="3.875"/>
		<rect x="120.968" y="322.185" fill="#424E51" width="3.875" height="3.875"/>
	</g>
	<g>
		<rect x="104.7" y="332.391" fill="#424E51" width="3.875" height="3.875"/>
		<rect x="112.834" y="332.391" fill="#424E51" width="3.875" height="3.875"/>
		<rect x="120.968" y="332.391" fill="#424E51" width="3.875" height="3.875"/>
	</g>
	<g>
		<rect x="104.7" y="342.596" fill="#FFFFFF" width="3.875" height="3.875"/>
		<rect x="112.834" y="342.596" fill="#424E51" width="3.875" height="3.875"/>
		<rect x="120.968" y="342.596" fill="#424E51" width="3.875" height="3.875"/>
	</g>
	<g>
		<rect x="104.7" y="352.802" fill="#424E51" width="3.875" height="3.875"/>
		<rect x="112.834" y="352.802" fill="#424E51" width="3.875" height="3.875"/>
		<rect x="120.968" y="352.802" fill="#424E51" width="3.875" height="3.875"/>
	</g>
	<g>
		<rect x="104.7" y="363.008" fill="#424E51" width="3.875" height="3.875"/>
		<rect x="112.834" y="363.008" fill="#424E51" width="3.875" height="3.875"/>
		<rect x="120.968" y="363.008" fill="#424E51" width="3.875" height="3.875"/>
	</g>
	<g>
		<rect x="104.7" y="373.214" fill="#424E51" width="3.875" height="3.875"/>
		<rect x="112.834" y="373.214" fill="#FFFFFF" width="3.875" height="3.875"/>
		<rect x="120.968" y="373.214" fill="#424E51" width="3.875" height="3.875"/>
	</g>
</g>
<rect x="7.937" y="387.575" fill="#424E51" width="336.231" height="2.019"/>
<g>
	<g>
		<path fill="#FFFFFF" d="M116.448,309.005v10.094c0,27.388,22.408,66.282,49.795,66.282h19.618
			c27.388,0,49.795-38.894,49.795-66.282v-10.094H116.448z"/>
		<path fill="#424E51" d="M185.862,386.39h-19.618c-12.896,0-25.682-8.278-36-23.309c-9.132-13.302-14.805-30.155-14.805-43.982
			v-11.103h121.228v11.103c0,13.828-5.673,30.681-14.805,43.982C211.543,378.112,198.758,386.39,185.862,386.39z M117.457,310.015
			v9.084c0,13.441,5.537,29.857,14.45,42.84c9.931,14.466,22.125,22.432,34.336,22.432h19.618c12.211,0,24.405-7.966,34.336-22.432
			c8.913-12.983,14.45-29.399,14.45-42.84v-9.084H117.457z"/>
	</g>
</g>
<g>
	<g>
		<path fill="#EBEBEB" d="M243.115,314.326h-1.346c-7.402,0-15.269,5.779-17.482,12.842l-8.327,26.577
			c-2.213,7.064,2.033,12.843,9.435,12.843h1.346c7.402,0,16.789-4.44,20.86-9.866c4.071-5.426,7.694-15.915,8.051-23.308
			l0.272-5.646C256.281,320.375,250.517,314.326,243.115,314.326z M249.689,333.386c-0.31,6.412-2.95,14.84-5.868,18.729
			c-2.918,3.889-9.863,7.071-15.434,7.071c-5.571,0-8.317-5.779-6.104-12.843l3.689-11.773c2.213-7.063,8.582-12.842,14.152-12.842
			C245.694,321.728,249.998,326.974,249.689,333.386z"/>
		<path fill="#424E51" d="M226.741,367.598h-1.346c-3.909,0-7.154-1.486-9.136-4.184c-1.982-2.698-2.43-6.239-1.262-9.97
			l8.327-26.577c2.341-7.472,10.615-13.55,18.445-13.55h1.346c3.859,0,7.426,1.513,10.045,4.262
			c2.619,2.748,3.959,6.384,3.772,10.239l-0.272,5.646c-0.366,7.583-4.068,18.289-8.252,23.866
			C244.16,362.991,234.44,367.598,226.741,367.598z M241.769,315.335c-7.012,0-14.422,5.444-16.519,12.135l-8.327,26.577
			c-0.972,3.102-0.63,6.004,0.962,8.171c1.592,2.167,4.259,3.361,7.509,3.361h1.346c7.022,0,16.204-4.333,20.053-9.462
			c3.979-5.303,7.501-15.51,7.85-22.751l0.272-5.646c0.159-3.297-0.984-6.404-3.218-8.749c-2.234-2.344-5.282-3.636-8.584-3.636
			H241.769z M228.387,360.196c-2.501,0-4.658-1.062-6.074-2.989c-2.001-2.724-2.363-6.794-0.994-11.165l3.689-11.773
			c2.341-7.472,9.121-13.55,15.115-13.55c2.706,0,5.269,1.125,7.215,3.169c2.31,2.424,3.534,5.904,3.358,9.547
			c-0.318,6.599-3.041,15.251-6.069,19.287C241.535,356.843,234.25,360.196,228.387,360.196z M240.123,322.737
			c-5.088,0-11.128,5.557-13.189,12.135l-3.689,11.773c-1.158,3.697-0.899,7.198,0.694,9.366c1.041,1.417,2.579,2.166,4.447,2.166
			c5.216,0,11.914-3.053,14.626-6.668c2.775-3.699,5.37-12.021,5.668-18.172c0.149-3.094-0.873-6.031-2.804-8.058
			C244.315,323.64,242.271,322.737,240.123,322.737z"/>
	</g>
</g>
<g>
	<path fill="#EBEBEB" d="M218.12,309.952v9.755c0,26.468-21.655,64.055-48.123,64.055h16.691c26.468,0,48.123-37.588,48.123-64.055
		v-9.755H218.12z"/>
</g>
<g>
	<g>
		<path fill="#FFFFFF" d="M117.345,388.584H234.76c3.701,0,6.729-2.883,6.729-6.406H110.616
			C110.616,385.701,113.644,388.584,117.345,388.584z"/>
		<path fill="#424E51" d="M234.76,389.593H117.345c-4.267,0-7.738-3.327-7.738-7.416v-1.009h132.892v1.009
			C242.498,386.267,239.027,389.593,234.76,389.593z M111.726,383.187c0.502,2.495,2.831,4.388,5.62,4.388H234.76
			c2.788,0,5.117-1.893,5.62-4.388H111.726z"/>
	</g>
</g>
<g>
	<g>
		<path fill="#8FDEFB" d="M164.92,204.399h22.91c-0.653,23.849-28.239,22.46-28.239,22.46v-17.13
			C159.591,206.785,161.977,204.399,164.92,204.399z"/>
		<path fill="#424E51" d="M160.429,227.884c-0.572,0-0.89-0.016-0.89-0.016c-0.537-0.028-0.958-0.471-0.958-1.008v-17.13
			c0-3.495,2.843-6.339,6.339-6.339h22.91c0.272,0,0.533,0.11,0.724,0.306c0.19,0.195,0.293,0.459,0.286,0.731
			C188.227,226.753,165.066,227.884,160.429,227.884z M164.92,205.409c-2.382,0-4.32,1.938-4.32,4.32v16.135
			c4.595-0.028,24.943-1.248,26.174-20.455H164.92z"/>
	</g>
	<g>
		<path fill="#FFFFFF" d="M189.668,201.888h-22.91c0.653,23.849,28.239,25.972,28.239,25.972v-20.643
			C194.997,204.274,192.611,201.888,189.668,201.888z"/>
		<path fill="#424E51" d="M196.006,228.95l-1.087-0.084c-0.289-0.022-7.176-0.587-14.251-4.148
			c-9.483-4.773-14.641-12.658-14.919-22.804l-0.028-1.037h23.947c3.495,0,6.338,2.843,6.338,6.339V228.95z M167.813,202.897
			c0.56,8.951,5.168,15.674,13.709,19.992c5.129,2.593,10.28,3.534,12.465,3.837v-19.509c0-2.382-1.938-4.32-4.32-4.32H167.813z"/>
	</g>
	<g>
		<rect x="170.494" y="244.501" fill="#FFFFFF" width="12.926" height="8.331"/>
		<path fill="#424E51" d="M184.429,253.841h-14.944v-10.35h14.944V253.841z M171.503,251.823h10.907v-6.312h-10.907V251.823z"/>
	</g>
	<g>
		<path fill="#FFFFFF" d="M191.75,231.025v-14.864c0-1.618-1.323-2.94-2.94-2.94h-23.767c-1.617,0-2.94,1.323-2.94,2.94v14.864
			c0,9.112,6.651,16.499,14.855,16.499c8.204,0,14.854-7.387,14.854-16.499H191.75z"/>
		<path fill="#424E51" d="M176.957,248.533c-8.748,0-15.864-7.854-15.864-17.508v-14.864c0-2.178,1.772-3.95,3.95-3.95h23.767
			c2.178,0,3.95,1.772,3.95,3.95v13.855h0.06v1.009C192.82,240.679,185.704,248.533,176.957,248.533z M165.043,214.229
			c-1.065,0-1.931,0.866-1.931,1.931v14.864c0,8.541,6.211,15.489,13.845,15.489c7.331,0,13.35-6.407,13.816-14.48h-0.032v-15.874
			c0-1.065-0.866-1.931-1.931-1.931H165.043z"/>
	</g>
	<g>
		<path fill="#FFFFFF" d="M162.102,220.92c0,0-2.45,0-3.267,1.307c-0.817,1.307-1.143,5.88,0,7.35c1.143,1.47,3.267,2.45,3.267,2.45
			V220.92z"/>
		<path fill="#424E51" d="M163.111,233.605l-1.432-0.661c-0.096-0.044-2.362-1.102-3.641-2.747
			c-1.448-1.862-1.081-6.871-0.059-8.505c1.082-1.731,3.815-1.781,4.123-1.781h1.009V233.605z M161.093,222.046
			c-0.574,0.121-1.169,0.344-1.402,0.716c-0.63,1.008-0.9,5.115-0.059,6.196c0.384,0.495,0.933,0.948,1.461,1.314V222.046z"/>
	</g>
	<g>
		<path fill="#8FDEFB" d="M189.668,201.888h-22.91c0.653,23.849,28.239,25.972,28.239,25.972v-20.643
			C194.997,204.274,192.611,201.888,189.668,201.888z"/>
		<path fill="#424E51" d="M194.997,228.87c-0.026,0-0.052-0.001-0.078-0.003c-0.289-0.022-7.176-0.587-14.251-4.148
			c-9.483-4.773-14.641-12.658-14.919-22.804c-0.008-0.272,0.096-0.536,0.286-0.731c0.19-0.196,0.451-0.306,0.724-0.306h22.91
			c3.495,0,6.338,2.843,6.338,6.339v20.643c0,0.281-0.117,0.55-0.324,0.741C195.495,228.774,195.25,228.87,194.997,228.87z
			 M167.813,202.897c0.56,8.951,5.168,15.674,13.709,19.992c5.129,2.593,10.28,3.534,12.465,3.837v-19.509
			c0-2.382-1.938-4.32-4.32-4.32H167.813z"/>
	</g>
	<g>
		<path fill="#FFFFFF" d="M191.811,220.92c0,0,2.45,0,3.267,1.307c0.817,1.307,1.143,5.88,0,7.35c-1.143,1.47-3.267,2.45-3.267,2.45
			V220.92z"/>
		<path fill="#424E51" d="M190.801,233.605v-13.694h1.009c0.308,0,3.041,0.05,4.123,1.781c1.022,1.635,1.389,6.643-0.059,8.505
			c-1.279,1.645-3.545,2.703-3.641,2.747L190.801,233.605z M192.82,222.047v8.226c0.514-0.355,1.065-0.806,1.461-1.316
			c0.84-1.08,0.571-5.187-0.059-6.196C193.991,222.392,193.392,222.168,192.82,222.047z"/>
	</g>
	<g>
		<polyline fill="#FFFFFF" points="174.946,225.767 173.256,234.553 176.002,235.482 		"/>
		<polygon fill="#424E51" points="175.678,236.439 172.099,235.227 173.955,225.576 175.937,225.957 174.414,233.879 
			176.326,234.526 		"/>
	</g>
	<circle fill="#424E51" cx="168.779" cy="228.222" r="1.348"/>
	<circle fill="#424E51" cx="182.072" cy="228.222" r="1.348"/>
	<path fill="#424E51" d="M182.439,240.955c0,1.421-2.454,2.574-5.483,2.574c-3.028,0-5.483-1.152-5.483-2.574"/>
	<g>
		<path fill="#3589DE" d="M203.512,299.145c0,1.481-1.211,2.692-2.692,2.692h-47.727c-1.481,0-2.692-1.211-2.692-2.692v-43.622
			c0-1.481,1.211-2.692,2.692-2.692h47.727c1.481,0,2.692,1.211,2.692,2.692V299.145z"/>
		<path fill="#424E51" d="M200.82,302.846h-47.727c-2.041,0-3.701-1.66-3.701-3.701v-43.622c0-2.041,1.66-3.701,3.701-3.701h47.727
			c2.041,0,3.701,1.66,3.701,3.701v43.622C204.521,301.186,202.861,302.846,200.82,302.846z M153.093,253.841
			c-0.928,0-1.682,0.755-1.682,1.682v43.622c0,0.928,0.755,1.682,1.682,1.682h47.727c0.928,0,1.682-0.755,1.682-1.682v-43.622
			c0-0.928-0.755-1.682-1.682-1.682H153.093z"/>
	</g>
	<g>
		<polygon fill="#F0C44A" points="178.357,256.792 174.169,256.792 173.16,252.832 179.366,252.832 		"/>
		<path fill="#424E51" d="M179.141,257.801h-5.756l-1.524-5.979h8.804L179.141,257.801z M174.953,255.782h2.619l0.495-1.941h-3.609
			L174.953,255.782z"/>
	</g>
	<g>
		<polygon fill="#F0C44A" points="178.357,256.792 174.169,256.792 170.179,293.505 175.882,304.498 182.345,293.505 		"/>
		<path fill="#424E51" d="M175.827,306.583l-6.684-12.884l4.121-37.917h5.998l4.123,37.946L175.827,306.583z M171.216,293.311
			l4.722,9.101l5.368-9.13l-3.855-35.481h-2.376L171.216,293.311z"/>
	</g>
	<g>
		<g>
			<path fill="#3589DE" d="M164.158,269.783l-11.142,36.173c-0.635,2.06-2.84,3.227-4.901,2.592l-9.523-2.934
				c-2.061-0.634-3.228-2.84-2.592-4.901l13.746-44.625c0.635-2.061,2.84-3.228,4.901-2.593"/>
			<path fill="#424E51" d="M149.266,309.732c-0.479,0-0.966-0.071-1.448-0.219l-9.523-2.934c-1.254-0.386-2.285-1.241-2.902-2.408
				c-0.617-1.167-0.744-2.5-0.358-3.755l13.746-44.624c0.8-2.598,3.566-4.06,6.163-3.261l-0.594,1.929
				c-1.535-0.472-3.167,0.392-3.639,1.925l-13.746,44.625c-0.228,0.739-0.152,1.526,0.213,2.216c0.365,0.69,0.973,1.195,1.712,1.423
				l9.523,2.934c1.535,0.472,3.167-0.391,3.639-1.925l11.142-36.172l1.929,0.594l-11.142,36.173
				C153.328,308.369,151.372,309.732,149.266,309.732z"/>
		</g>
		<g>
			<path fill="#3589DE" d="M159.591,252.832h-5.023c-2.083,0-4.187,1.196-4.822,3.257L136,300.714v3.713"/>
			<path fill="#424E51" d="M137.009,304.427h-2.019v-3.865l13.791-44.77c0.72-2.337,3.099-3.969,5.787-3.969h5.023v2.019h-5.023
				c-1.48,0-3.319,0.796-3.857,2.545l-13.702,44.48V304.427z"/>
		</g>
		<g>
			<line fill="#FFFFFF" x1="162.586" y1="274.888" x2="153.016" y2="305.956"/>
			
				<rect x="156.791" y="274.168" transform="matrix(0.9557 0.2943 -0.2943 0.9557 92.4475 -33.5764)" fill="#424E51" width="2.019" height="32.508"/>
		</g>
	</g>
	<g>
		<g>
			<path fill="#3589DE" d="M136,304.427l0.02,3.922c0.006,1.674,1.776,3.039,3.932,3.034l25.5-0.092V297.47h-17.968"/>
			<path fill="#424E51" d="M139.94,312.393c-2.713,0-4.922-1.809-4.93-4.04l-0.02-3.921l2.019-0.01l0.02,3.922
				c0.004,1.105,1.335,2.031,2.92,2.03l24.493-0.088V298.48h-16.959v-2.019h18.978v15.836l-26.505,0.096
				C139.95,312.393,139.945,312.393,139.94,312.393z"/>
		</g>
	</g>
	<g>
		<g>
			<path fill="#3589DE" d="M190.754,269.849l11.122,36.107c0.635,2.06,2.84,3.227,4.901,2.592l9.523-2.934
				c2.061-0.634,3.228-2.84,2.592-4.901l-13.746-44.625c-0.635-2.061-2.84-3.228-4.901-2.593"/>
			<path fill="#424E51" d="M205.627,309.732c-2.107,0-4.062-1.363-4.715-3.479l-11.122-36.107l1.929-0.594l11.122,36.107
				c0.472,1.533,2.105,2.398,3.639,1.925l9.523-2.934c0.739-0.227,1.347-0.733,1.712-1.423c0.365-0.69,0.441-1.477,0.213-2.216
				l-13.746-44.625c-0.473-1.534-2.106-2.398-3.639-1.925l-0.594-1.929c2.599-0.8,5.362,0.663,6.163,3.26l13.746,44.625
				c0.386,1.254,0.26,2.588-0.358,3.754c-0.617,1.167-1.648,2.022-2.902,2.408l-9.523,2.934
				C206.594,309.661,206.106,309.732,205.627,309.732z"/>
		</g>
		<g>
			<path fill="#3589DE" d="M195.302,252.832h5.023c2.082,0,4.187,1.196,4.822,3.257l13.746,44.625v3.713"/>
			<path fill="#424E51" d="M219.902,304.427h-2.019v-3.561l-13.701-44.48c-0.539-1.748-2.378-2.545-3.857-2.545h-5.023v-2.019h5.023
				c2.686,0,5.066,1.632,5.787,3.969l13.791,44.77V304.427z"/>
		</g>
		<g>
			<line fill="#FFFFFF" x1="192.307" y1="274.888" x2="201.877" y2="305.956"/>
			
				<rect x="180.838" y="289.413" transform="matrix(0.2944 0.9557 -0.9557 0.2944 416.6258 16.57)" fill="#424E51" width="32.508" height="2.019"/>
		</g>
	</g>
	<g>
		<g>
			<path fill="#3589DE" d="M218.893,304.427l-0.02,3.922c-0.006,1.674-1.776,3.039-3.932,3.034l-25.5-0.092V297.47h17.969"/>
			<path fill="#424E51" d="M214.953,312.393c-0.005,0-0.01,0-0.015,0l-26.507-0.096v-15.836h18.978v2.019h-16.959v11.806
				l24.494,0.088c0.003,0,0.007,0,0.01,0c1.574,0,2.906-0.927,2.909-2.028l0.02-3.924l2.019,0.01l-0.02,3.922
				C219.875,310.583,217.665,312.393,214.953,312.393z"/>
		</g>
	</g>
	<g>
		<line fill="#FFFFFF" x1="218.893" y1="302.167" x2="218.893" y2="306.657"/>
		<rect x="217.884" y="302.167" fill="#424E51" width="2.019" height="4.49"/>
	</g>
	<g>
		<rect x="165.451" y="298.468" fill="#FFFFFF" width="3.573" height="11.394"/>
		<path fill="#424E51" d="M170.034,310.871h-5.592v-13.412h5.592V310.871z M166.461,308.852h1.555v-9.375h-1.555V308.852z"/>
	</g>
	<g>
		<rect x="185.868" y="298.468" fill="#FFFFFF" width="3.573" height="11.394"/>
		<path fill="#424E51" d="M190.451,310.871h-5.592v-13.412h5.592V310.871z M186.878,308.852h1.554v-9.375h-1.554V308.852z"/>
	</g>
	<g>
		<path fill="#FFFFFF" d="M174.992,300.285h-5.967v8.436h9.985v-4.223C179.009,302.172,177.211,300.285,174.992,300.285z"/>
		<path fill="#424E51" d="M180.019,309.731h-12.004v-10.455h6.977c2.772,0,5.027,2.343,5.027,5.222V309.731z M170.034,307.712H178
			v-3.214c0-1.766-1.349-3.204-3.008-3.204h-4.958V307.712z"/>
	</g>
	<g>
		<path fill="#FFFFFF" d="M179.9,300.285h5.968v8.436h-9.985v-4.223C175.883,302.172,177.682,300.285,179.9,300.285z"/>
		<path fill="#424E51" d="M186.878,309.731h-12.004v-5.232c0-2.88,2.255-5.222,5.027-5.222h6.977V309.731z M176.892,307.712h7.967
			v-6.417H179.9c-1.659,0-3.008,1.437-3.008,3.204V307.712z"/>
	</g>
	<rect x="134.99" y="301.837" fill="#424E51" width="2.019" height="4.82"/>
</g>
<g>
	<g>
		<g>
			<rect x="44.887" y="332.059" fill="#8FDEFB" width="24.898" height="56.525"/>
			<path fill="#424E51" d="M69.784,389.593H44.887c-0.558,0-1.009-0.452-1.009-1.009v-56.525c0-0.558,0.452-1.009,1.009-1.009
				h24.898c0.558,0,1.009,0.452,1.009,1.009v56.525C70.794,389.142,70.342,389.593,69.784,389.593z M45.896,387.575h22.879v-54.506
				H45.896V387.575z"/>
		</g>
		<rect x="50.606" y="338.775" fill="#424E51" width="13.458" height="2.019"/>
		<rect x="50.606" y="344.643" fill="#424E51" width="13.458" height="2.019"/>
		<rect x="50.606" y="350.511" fill="#424E51" width="13.458" height="2.019"/>
		<rect x="50.606" y="356.379" fill="#424E51" width="13.458" height="2.019"/>
		<rect x="50.606" y="362.246" fill="#424E51" width="13.458" height="2.019"/>
		<rect x="50.606" y="368.114" fill="#424E51" width="13.458" height="2.019"/>
		<rect x="50.606" y="373.982" fill="#424E51" width="13.458" height="2.019"/>
		<rect x="50.606" y="379.85" fill="#424E51" width="13.458" height="2.019"/>
	</g>
	<g>
		<rect x="50.606" y="311.509" fill="#8FDEFB" width="13.458" height="20.551"/>
		<path fill="#424E51" d="M64.065,333.069H50.606c-0.558,0-1.009-0.452-1.009-1.009v-20.551c0-0.558,0.452-1.009,1.009-1.009h13.458
			c0.558,0,1.009,0.452,1.009,1.009v20.551C65.074,332.617,64.622,333.069,64.065,333.069z M51.616,331.05h11.44v-18.532h-11.44
			V331.05z"/>
	</g>
	<rect x="55.821" y="315.223" fill="#FFFFFF" width="3.029" height="3.029"/>
	<rect x="55.821" y="320.438" fill="#FFFFFF" width="3.029" height="3.029"/>
	<rect x="55.821" y="325.653" fill="#FFFFFF" width="3.029" height="3.029"/>
</g>
<g>
	<line fill="#8FDEFB" x1="57.336" y1="311.383" x2="57.336" y2="303.447"/>
	<rect x="56.326" y="303.447" fill="#424E51" width="2.019" height="7.936"/>
</g>
<g>
	<g>
		<g>
			<rect x="77.355" y="341.971" fill="#8FDEFB" width="14.804" height="46.613"/>
			<path fill="#424E51" d="M92.159,389.593H77.355c-0.558,0-1.009-0.452-1.009-1.009v-46.613c0-0.558,0.452-1.009,1.009-1.009
				h14.804c0.558,0,1.009,0.452,1.009,1.009v46.613C93.168,389.142,92.716,389.593,92.159,389.593z M78.364,387.575h12.785V342.98
				H78.364V387.575z"/>
		</g>
		<rect x="80.13" y="346.857" fill="#424E51" width="2.019" height="41.727"/>
		<rect x="83.747" y="346.857" fill="#424E51" width="2.019" height="41.727"/>
		<rect x="87.364" y="346.857" fill="#424E51" width="2.019" height="41.727"/>
	</g>
	<path fill="#424E51" d="M89.821,342.981H79.693c-0.303,0-0.589-0.136-0.781-0.37c-0.192-0.234-0.268-0.542-0.209-0.838
		l5.064-25.234c0.095-0.471,0.509-0.811,0.99-0.811s0.895,0.339,0.99,0.811l5.064,25.234c0.059,0.296-0.017,0.604-0.209,0.838
		C90.41,342.845,90.123,342.981,89.821,342.981z M80.925,340.962h7.664l-3.832-19.095L80.925,340.962z"/>
	
		<rect x="83.093" y="327.489" transform="matrix(0.7325 0.6807 -0.6807 0.7325 248.544 31.5669)" fill="#424E51" width="2.018" height="9.141"/>
	
		<rect x="80.741" y="331.05" transform="matrix(0.6807 0.7326 -0.7326 0.6807 270.5021 43.5357)" fill="#424E51" width="9.141" height="2.018"/>
	
		<rect x="82.862" y="333.11" transform="matrix(0.6145 0.7889 -0.7889 0.6145 299.4345 64.3522)" fill="#424E51" width="2.019" height="10.898"/>
	
		<rect x="80.093" y="337.549" transform="matrix(0.789 0.6145 -0.6145 0.789 226.0826 18.8904)" fill="#424E51" width="10.898" height="2.019"/>
	<g>
		<circle fill="#F0C44A" cx="84.757" cy="314.326" r="3.617"/>
		<path fill="#424E51" d="M84.757,318.952c-2.551,0-4.626-2.075-4.626-4.626c0-2.551,2.075-4.626,4.626-4.626
			c2.551,0,4.626,2.075,4.626,4.626C89.383,316.877,87.308,318.952,84.757,318.952z M84.757,311.718
			c-1.438,0-2.608,1.17-2.608,2.608c0,1.438,1.17,2.608,2.608,2.608c1.438,0,2.608-1.17,2.608-2.608
			C87.364,312.888,86.195,311.718,84.757,311.718z"/>
	</g>
</g>
<g>
	<g>
		<path fill="#30C96B" d="M48.873,362.851c0-2.245-1.409-4.161-3.391-4.913c0.053-0.3,0.083-0.609,0.083-0.925
			c0-2.902-2.353-5.255-5.255-5.255c-0.28,0-0.555,0.023-0.823,0.065c-0.578-2.274-2.638-3.957-5.092-3.957
			c-2.444,0-4.497,1.668-5.085,3.927c-0.196-0.023-0.396-0.035-0.598-0.035c-2.902,0-5.254,2.353-5.254,5.255
			c0,0.289,0.024,0.571,0.069,0.847c-2.097,0.69-3.611,2.663-3.611,4.991c0,2.563,1.836,4.697,4.265,5.16
			c-0.001,0.032-0.003,0.063-0.003,0.095c0,2.902,2.353,5.254,5.254,5.254c2.256,0,4.179-1.421,4.924-3.417
			c0.745,1.996,2.668,3.417,4.923,3.417c2.902,0,5.254-2.352,5.254-5.254c0-0.027-0.002-0.054-0.002-0.081
			C46.997,367.592,48.873,365.442,48.873,362.851z"/>
		<path fill="#424E51" d="M39.279,374.369c-1.945,0-3.754-0.915-4.923-2.396c-1.169,1.48-2.979,2.396-4.924,2.396
			c-3.219,0-5.879-2.441-6.225-5.569c-2.534-0.834-4.3-3.22-4.3-5.948c0-2.435,1.395-4.612,3.545-5.644
			c-0.002-0.065-0.003-0.129-0.003-0.194c0-3.415,2.747-6.2,6.147-6.263c0.95-2.328,3.229-3.893,5.8-3.893
			c2.575,0,4.851,1.563,5.8,3.893c0.039-0.001,0.077-0.001,0.116-0.001c3.454,0,6.264,2.81,6.264,6.264
			c0,0.103-0.003,0.207-0.008,0.312c2.011,1.078,3.316,3.209,3.316,5.526c0,2.771-1.8,5.167-4.38,5.974
			C45.143,371.941,42.489,374.369,39.279,374.369z M34.355,368.933c0.421,0,0.798,0.262,0.946,0.656
			c0.616,1.651,2.215,2.761,3.978,2.761c2.341,0,4.245-1.904,4.245-4.244c0-0.005-0.002-0.052-0.002-0.056
			c-0.012-0.499,0.343-0.932,0.835-1.019c2.032-0.356,3.507-2.114,3.507-4.179c0-1.752-1.101-3.347-2.74-3.969
			c-0.453-0.172-0.72-0.642-0.636-1.12c0.045-0.252,0.067-0.504,0.067-0.749c0-2.341-1.904-4.245-4.245-4.245
			c-0.22,0-0.445,0.018-0.667,0.053c-0.515,0.081-1.006-0.243-1.135-0.749c-0.478-1.881-2.17-3.196-4.114-3.196
			c-1.933,0-3.622,1.304-4.108,3.172c-0.127,0.487-0.586,0.804-1.093,0.748c-0.163-0.019-0.326-0.029-0.482-0.029
			c-2.341,0-4.245,1.904-4.245,4.245c0,0.226,0.019,0.456,0.056,0.686c0.079,0.49-0.21,0.965-0.681,1.12
			c-1.745,0.574-2.917,2.195-2.917,4.032c0,2.035,1.449,3.788,3.444,4.168c0.484,0.092,0.83,0.52,0.82,1.013l-0.002,0.055
			c-0.001,2.359,1.903,4.264,4.244,4.264c1.763,0,3.362-1.11,3.978-2.761C33.557,369.194,33.934,368.933,34.355,368.933z"/>
	</g>
	<g>
		<polyline fill="#FFFFFF" points="36.538,365.624 38.221,388.584 30.49,388.584 32.172,365.624 		"/>
		<polygon fill="#424E51" points="39.307,389.593 29.404,389.593 31.165,365.55 33.179,365.697 31.576,387.575 37.135,387.575 
			35.532,365.697 37.545,365.55 		"/>
	</g>
	<path fill="#424E51" d="M36.849,367.205c-0.941,0-1.827-0.365-2.494-0.981c-0.666,0.615-1.553,0.981-2.494,0.981
		c-2.024,0-3.67-1.646-3.67-3.67h2.019c0,0.91,0.741,1.651,1.652,1.651c0.686,0,1.308-0.432,1.548-1.074
		c0.147-0.395,0.524-0.656,0.946-0.656c0.421,0,0.798,0.262,0.946,0.656c0.24,0.642,0.862,1.074,1.548,1.074
		c0.911,0,1.652-0.741,1.652-1.651h2.019C40.52,365.558,38.873,367.205,36.849,367.205z"/>
</g>
<g>
	<g>
		<path fill="#26A156" d="M83.359,362.851c0-2.245-1.409-4.161-3.391-4.913c0.053-0.3,0.083-0.609,0.083-0.925
			c0-2.902-2.353-5.255-5.255-5.255c-0.28,0-0.555,0.023-0.823,0.065c-0.578-2.274-2.638-3.957-5.092-3.957
			c-2.444,0-4.497,1.668-5.085,3.927c-0.196-0.023-0.396-0.035-0.598-0.035c-2.902,0-5.254,2.353-5.254,5.255
			c0,0.289,0.024,0.571,0.069,0.847c-2.097,0.69-3.611,2.663-3.611,4.991c0,2.563,1.836,4.697,4.265,5.16
			c-0.001,0.032-0.003,0.063-0.003,0.095c0,2.902,2.353,5.254,5.254,5.254c2.256,0,4.179-1.421,4.924-3.417
			c0.745,1.996,2.668,3.417,4.923,3.417c2.902,0,5.254-2.352,5.254-5.254c0-0.027-0.002-0.054-0.002-0.081
			C81.484,367.592,83.359,365.442,83.359,362.851z"/>
		<path fill="#424E51" d="M73.765,374.369c-1.945,0-3.754-0.915-4.923-2.396c-1.169,1.48-2.979,2.396-4.924,2.396
			c-3.219,0-5.879-2.441-6.225-5.569c-2.534-0.834-4.3-3.22-4.3-5.948c0-2.435,1.395-4.612,3.545-5.644
			c-0.002-0.065-0.003-0.129-0.003-0.194c0-3.415,2.747-6.2,6.147-6.263c0.95-2.328,3.229-3.893,5.8-3.893
			c2.575,0,4.851,1.563,5.8,3.893c0.039-0.001,0.077-0.001,0.116-0.001c3.454,0,6.264,2.81,6.264,6.264
			c0,0.103-0.003,0.207-0.008,0.312c2.011,1.078,3.316,3.209,3.316,5.526c0,2.771-1.8,5.167-4.38,5.974
			C79.63,371.941,76.976,374.369,73.765,374.369z M68.842,368.933c0.421,0,0.798,0.262,0.946,0.656
			c0.616,1.651,2.215,2.761,3.978,2.761c2.341,0,4.245-1.904,4.245-4.244c0-0.005-0.002-0.052-0.002-0.056
			c-0.012-0.499,0.343-0.932,0.835-1.019c2.032-0.356,3.507-2.114,3.507-4.179c0-1.752-1.101-3.347-2.74-3.969
			c-0.453-0.172-0.72-0.642-0.636-1.12c0.045-0.252,0.067-0.504,0.067-0.749c0-2.341-1.904-4.245-4.245-4.245
			c-0.22,0-0.445,0.018-0.667,0.053c-0.514,0.081-1.006-0.243-1.135-0.749c-0.478-1.881-2.17-3.196-4.114-3.196
			c-1.933,0-3.622,1.304-4.108,3.172c-0.127,0.487-0.587,0.804-1.093,0.748c-0.163-0.019-0.326-0.029-0.482-0.029
			c-2.341,0-4.245,1.904-4.245,4.245c0,0.226,0.019,0.456,0.056,0.686c0.079,0.49-0.21,0.965-0.681,1.12
			c-1.745,0.574-2.917,2.195-2.917,4.032c0,2.035,1.449,3.788,3.444,4.168c0.484,0.092,0.83,0.52,0.82,1.013l-0.002,0.055
			c-0.001,2.359,1.903,4.264,4.244,4.264c1.763,0,3.362-1.11,3.978-2.761C68.044,369.194,68.421,368.933,68.842,368.933z"/>
	</g>
	<g>
		<polyline fill="#FFFFFF" points="71.025,365.624 72.707,388.584 64.976,388.584 66.659,365.624 		"/>
		<polygon fill="#424E51" points="73.793,389.593 63.89,389.593 65.652,365.55 67.665,365.697 66.062,387.575 71.621,387.575 
			70.018,365.697 72.032,365.55 		"/>
	</g>
	<path fill="#424E51" d="M71.336,367.205c-0.941,0-1.827-0.365-2.494-0.981c-0.666,0.615-1.553,0.981-2.494,0.981
		c-2.024,0-3.67-1.646-3.67-3.67h2.019c0,0.91,0.741,1.651,1.652,1.651c0.686,0,1.308-0.432,1.548-1.074
		c0.147-0.395,0.524-0.656,0.946-0.656c0.421,0,0.798,0.262,0.946,0.656c0.24,0.642,0.862,1.074,1.548,1.074
		c0.911,0,1.652-0.741,1.652-1.651h2.019C75.006,365.558,73.36,367.205,71.336,367.205z"/>
</g>
<g>
	<g>
		<path fill="#30C96B" d="M117.846,362.851c0-2.245-1.409-4.161-3.391-4.913c0.053-0.3,0.083-0.609,0.083-0.925
			c0-2.902-2.353-5.255-5.255-5.255c-0.28,0-0.555,0.023-0.823,0.065c-0.578-2.274-2.638-3.957-5.092-3.957
			c-2.444,0-4.497,1.668-5.085,3.927c-0.196-0.023-0.396-0.035-0.598-0.035c-2.902,0-5.254,2.353-5.254,5.255
			c0,0.289,0.024,0.571,0.069,0.847c-2.097,0.69-3.611,2.663-3.611,4.991c0,2.563,1.836,4.697,4.265,5.16
			c-0.001,0.032-0.003,0.063-0.003,0.095c0,2.902,2.353,5.254,5.254,5.254c2.256,0,4.179-1.421,4.924-3.417
			c0.745,1.996,2.668,3.417,4.923,3.417c2.902,0,5.254-2.352,5.254-5.254c0-0.027-0.002-0.054-0.002-0.081
			C115.971,367.592,117.846,365.442,117.846,362.851z"/>
		<path fill="#424E51" d="M108.252,374.369c-1.945,0-3.754-0.915-4.923-2.396c-1.169,1.48-2.979,2.396-4.924,2.396
			c-3.219,0-5.879-2.441-6.225-5.569c-2.534-0.834-4.3-3.22-4.3-5.948c0-2.435,1.395-4.612,3.545-5.644
			c-0.002-0.065-0.003-0.129-0.003-0.194c0-3.415,2.747-6.2,6.147-6.263c0.95-2.328,3.229-3.893,5.8-3.893
			c2.575,0,4.851,1.563,5.8,3.893c0.039-0.001,0.077-0.001,0.116-0.001c3.454,0,6.264,2.81,6.264,6.264
			c0,0.103-0.003,0.207-0.008,0.312c2.011,1.078,3.316,3.209,3.316,5.526c0,2.771-1.8,5.167-4.38,5.974
			C114.116,371.941,111.463,374.369,108.252,374.369z M103.329,368.933c0.421,0,0.798,0.262,0.946,0.656
			c0.616,1.651,2.215,2.761,3.978,2.761c2.341,0,4.245-1.904,4.245-4.244c0-0.005-0.002-0.052-0.002-0.056
			c-0.012-0.499,0.343-0.932,0.835-1.019c2.032-0.356,3.507-2.114,3.507-4.179c0-1.752-1.101-3.347-2.74-3.969
			c-0.453-0.172-0.72-0.642-0.636-1.12c0.045-0.252,0.067-0.504,0.067-0.749c0-2.341-1.904-4.245-4.245-4.245
			c-0.22,0-0.445,0.018-0.667,0.053c-0.516,0.081-1.006-0.243-1.135-0.749c-0.478-1.881-2.17-3.196-4.114-3.196
			c-1.933,0-3.622,1.304-4.108,3.172c-0.127,0.487-0.588,0.804-1.093,0.748c-0.163-0.019-0.326-0.029-0.482-0.029
			c-2.341,0-4.245,1.904-4.245,4.245c0,0.226,0.019,0.456,0.056,0.686c0.079,0.49-0.21,0.965-0.681,1.12
			c-1.745,0.574-2.917,2.195-2.917,4.032c0,2.035,1.449,3.788,3.444,4.168c0.484,0.092,0.83,0.52,0.82,1.013l-0.002,0.055
			c-0.001,2.359,1.903,4.264,4.244,4.264c1.763,0,3.362-1.11,3.978-2.761C102.53,369.194,102.908,368.933,103.329,368.933z"/>
	</g>
	<g>
		<polyline fill="#FFFFFF" points="105.512,365.624 107.194,388.584 99.463,388.584 101.145,365.624 		"/>
		<polygon fill="#424E51" points="108.28,389.593 98.377,389.593 100.139,365.55 102.152,365.697 100.549,387.575 106.108,387.575 
			104.505,365.697 106.519,365.55 		"/>
	</g>
	<path fill="#424E51" d="M105.822,367.205c-0.941,0-1.827-0.365-2.494-0.981c-0.666,0.615-1.553,0.981-2.494,0.981
		c-2.024,0-3.67-1.646-3.67-3.67h2.019c0,0.91,0.741,1.651,1.652,1.651c0.686,0,1.308-0.432,1.548-1.074
		c0.147-0.395,0.524-0.656,0.946-0.656c0.421,0,0.798,0.262,0.946,0.656c0.24,0.642,0.862,1.074,1.548,1.074
		c0.911,0,1.652-0.741,1.652-1.651h2.019C109.493,365.558,107.846,367.205,105.822,367.205z"/>
</g>
<g>
	<g>
		<rect x="59.357" y="59.516" fill="#424E51" width="3.028" height="3.028"/>
		<rect x="64.404" y="59.516" fill="#424E51" width="3.028" height="3.028"/>
		<rect x="69.451" y="59.516" fill="#424E51" width="3.028" height="3.028"/>
	</g>
	<g>
		<rect x="59.357" y="64.311" fill="#424E51" width="3.028" height="3.028"/>
		<rect x="64.404" y="64.311" fill="#424E51" width="3.028" height="3.028"/>
		<rect x="69.451" y="64.311" fill="#424E51" width="3.028" height="3.028"/>
	</g>
	<g>
		<rect x="59.357" y="69.105" fill="#424E51" width="3.028" height="3.028"/>
		<rect x="64.404" y="69.105" fill="#424E51" width="3.028" height="3.028"/>
		<rect x="69.451" y="69.105" fill="#424E51" width="3.028" height="3.028"/>
	</g>
</g>
<g>
	<g>
		<rect x="286.293" y="141.305" fill="#424E51" width="3.028" height="3.028"/>
		<rect x="291.34" y="141.305" fill="#424E51" width="3.028" height="3.028"/>
		<rect x="296.387" y="141.305" fill="#424E51" width="3.028" height="3.028"/>
	</g>
	<g>
		<rect x="286.293" y="146.099" fill="#424E51" width="3.028" height="3.028"/>
		<rect x="291.34" y="146.099" fill="#424E51" width="3.028" height="3.028"/>
		<rect x="296.387" y="146.099" fill="#424E51" width="3.028" height="3.028"/>
	</g>
	<g>
		<rect x="286.293" y="150.894" fill="#424E51" width="3.028" height="3.028"/>
		<rect x="291.34" y="150.894" fill="#424E51" width="3.028" height="3.028"/>
		<rect x="296.387" y="150.894" fill="#424E51" width="3.028" height="3.028"/>
	</g>
</g>
<g>
	<g>
		<rect x="283.692" y="0" fill="#424E51" width="3.028" height="3.028"/>
		<rect x="288.738" y="0" fill="#424E51" width="3.028" height="3.028"/>
		<rect x="293.785" y="0" fill="#424E51" width="3.028" height="3.028"/>
	</g>
	<g>
		<rect x="283.692" y="4.794" fill="#424E51" width="3.028" height="3.028"/>
		<rect x="288.738" y="4.794" fill="#424E51" width="3.028" height="3.028"/>
		<rect x="293.785" y="4.794" fill="#424E51" width="3.028" height="3.028"/>
	</g>
	<g>
		<rect x="283.692" y="9.589" fill="#424E51" width="3.028" height="3.028"/>
		<rect x="288.738" y="9.589" fill="#424E51" width="3.028" height="3.028"/>
		<rect x="293.785" y="9.589" fill="#424E51" width="3.028" height="3.028"/>
	</g>
</g>
<g>
	<g>
		<rect x="15.476" y="234.912" fill="#424E51" width="3.028" height="3.028"/>
		<rect x="20.523" y="234.912" fill="#424E51" width="3.028" height="3.028"/>
		<rect x="25.57" y="234.912" fill="#424E51" width="3.028" height="3.028"/>
	</g>
	<g>
		<rect x="15.476" y="239.707" fill="#424E51" width="3.028" height="3.028"/>
		<rect x="20.523" y="239.707" fill="#424E51" width="3.028" height="3.028"/>
		<rect x="25.57" y="239.707" fill="#424E51" width="3.028" height="3.028"/>
	</g>
	<g>
		<rect x="15.476" y="244.501" fill="#424E51" width="3.028" height="3.028"/>
		<rect x="20.523" y="244.501" fill="#424E51" width="3.028" height="3.028"/>
		<rect x="25.57" y="244.501" fill="#424E51" width="3.028" height="3.028"/>
	</g>
</g>
<g>
	<g>
		<rect x="154.027" y="153.388" fill="#424E51" width="3.028" height="3.028"/>
		<rect x="159.074" y="153.388" fill="#424E51" width="3.028" height="3.028"/>
		<rect x="164.121" y="153.388" fill="#424E51" width="3.028" height="3.028"/>
	</g>
	<g>
		<rect x="154.027" y="158.183" fill="#424E51" width="3.028" height="3.028"/>
		<rect x="159.074" y="158.183" fill="#424E51" width="3.028" height="3.028"/>
		<rect x="164.121" y="158.183" fill="#424E51" width="3.028" height="3.028"/>
	</g>
	<g>
		<rect x="154.027" y="162.977" fill="#424E51" width="3.028" height="3.028"/>
		<rect x="159.074" y="162.977" fill="#424E51" width="3.028" height="3.028"/>
		<rect x="164.121" y="162.977" fill="#424E51" width="3.028" height="3.028"/>
	</g>
</g>
<rect x="139.094" y="71.292" fill="#424E51" width="28.44" height="2.019"/>
<rect x="114.197" y="82.732" fill="#424E51" width="42.859" height="2.019"/>
<path fill="#424E51" d="M345.548,118.564h-3.365v-2.019h3.365V118.564z M338.819,118.564h-3.365v-2.019h3.365V118.564z
	 M332.09,118.564h-3.365v-2.019h3.365V118.564z M325.361,118.564h-3.365v-2.019h3.365V118.564z M318.632,118.564h-3.365v-2.019
	h3.365V118.564z M311.903,118.564h-3.365v-2.019h3.365V118.564z M305.173,118.564h-3.365v-2.019h3.365V118.564z M298.444,118.564
	h-3.365v-2.019h3.365V118.564z M291.715,118.564h-3.365v-2.019h3.365V118.564z"/>
<rect x="250.126" y="127.48" fill="#424E51" width="57.533" height="2.019"/>
<rect x="256.854" y="101.573" fill="#424E51" width="20.781" height="2.019"/>
<path fill="#424E51" d="M75.975,179.659H72.61v-2.019h3.365V179.659z M69.246,179.659h-3.365v-2.019h3.365V179.659z M62.516,179.659
	h-3.365v-2.019h3.365V179.659z M55.787,179.659h-3.365v-2.019h3.365V179.659z M49.058,179.659h-3.365v-2.019h3.365V179.659z
	 M42.329,179.659h-3.365v-2.019h3.365V179.659z"/>
<rect x="60.871" y="191.771" fill="#424E51" width="60.252" height="2.019"/>
<rect x="218.893" y="174.108" fill="#424E51" width="35.059" height="2.019"/>
<rect x="238.319" y="191.771" fill="#424E51" width="52.382" height="2.019"/>
<g>
	<g>
		<path fill="#FFFFFF" d="M115.03,187.764c-0.153,0-0.302,0.012-0.452,0.023c-0.883-4.133-4.554-7.233-8.951-7.233
			c-4.395,0-8.065,3.098-8.95,7.23c-0.125-0.008-0.249-0.019-0.376-0.019c-3.021,0-5.536,2.158-6.093,5.016h30.915
			C120.566,189.922,118.051,187.764,115.03,187.764z"/>
		<path fill="#424E51" d="M122.348,193.789H88.983l0.234-1.203c0.633-3.247,3.408-5.639,6.681-5.821
			c1.28-4.231,5.246-7.222,9.729-7.222c4.482,0,8.446,2.989,9.728,7.218c3.307,0.149,6.121,2.552,6.759,5.825L122.348,193.789z
			 M91.591,191.771h28.15c-0.839-1.792-2.66-2.998-4.71-2.998c-0.119,0-0.236,0.01-0.352,0.018l-0.878,0.065l-0.209-0.859
			c-0.796-3.729-4.146-6.435-7.964-6.435c-3.816,0-7.165,2.705-7.963,6.431l-0.182,0.849l-0.97-0.059
			c-0.07-0.005-0.14-0.01-0.211-0.01C94.25,188.773,92.429,189.979,91.591,191.771z"/>
	</g>
</g>
<g>
	<g>
		<path fill="#FFFFFF" d="M230.435,54.191c-0.153,0-0.302,0.012-0.452,0.023c-0.883-4.133-4.554-7.233-8.951-7.233
			c-4.395,0-8.065,3.098-8.95,7.23c-0.125-0.008-0.249-0.019-0.376-0.019c-3.021,0-5.536,2.158-6.093,5.016h30.915
			C235.97,56.349,233.456,54.191,230.435,54.191z"/>
		<path fill="#424E51" d="M237.753,60.216h-33.365l0.234-1.202c0.633-3.247,3.408-5.639,6.681-5.821
			c1.28-4.231,5.246-7.222,9.729-7.222c4.482,0,8.446,2.989,9.728,7.218c3.307,0.149,6.121,2.552,6.759,5.825L237.753,60.216z
			 M206.995,58.198h28.15c-0.839-1.792-2.66-2.998-4.71-2.998c-0.119,0-0.236,0.01-0.352,0.018l-0.878,0.066l-0.209-0.86
			c-0.796-3.729-4.146-6.435-7.964-6.435c-3.816,0-7.165,2.705-7.963,6.431l-0.182,0.849l-0.97-0.059
			c-0.07-0.005-0.14-0.01-0.211-0.01C209.655,55.2,207.834,56.406,206.995,58.198z"/>
	</g>
</g>
<g>
	<g>
		<path fill="#FFFFFF" d="M274.948,123.473c-0.153,0-0.302,0.012-0.452,0.023c-0.883-4.133-4.554-7.233-8.951-7.233
			c-4.395,0-8.065,3.098-8.95,7.23c-0.125-0.008-0.249-0.019-0.376-0.019c-3.021,0-5.536,2.158-6.093,5.016h30.915
			C280.484,125.632,277.969,123.473,274.948,123.473z"/>
		<path fill="#424E51" d="M282.266,129.499h-33.365l0.234-1.203c0.633-3.247,3.408-5.639,6.681-5.821
			c1.28-4.23,5.246-7.222,9.729-7.222c4.482,0,8.446,2.989,9.728,7.218c3.307,0.149,6.121,2.552,6.759,5.825L282.266,129.499z
			 M251.508,127.48h28.15c-0.839-1.792-2.66-2.998-4.71-2.998c-0.119,0-0.236,0.01-0.352,0.018l-0.878,0.065l-0.209-0.86
			c-0.796-3.729-4.146-6.435-7.964-6.435c-3.816,0-7.165,2.705-7.963,6.431l-0.182,0.848l-0.97-0.059
			c-0.07-0.005-0.14-0.01-0.211-0.01C254.168,124.483,252.347,125.689,251.508,127.48z"/>
	</g>
</g>
<g>
	<g>
		<path fill="#FFFFFF" d="M55.544,94.538c-0.153,0-0.302,0.012-0.452,0.023c-0.883-4.133-4.554-7.233-8.951-7.233
			c-4.395,0-8.065,3.098-8.95,7.23c-0.125-0.008-0.249-0.019-0.376-0.019c-3.021,0-5.536,2.158-6.093,5.016h30.915
			C61.08,96.696,58.566,94.538,55.544,94.538z"/>
		<path fill="#424E51" d="M62.863,100.564H29.498l0.234-1.202c0.633-3.247,3.408-5.639,6.681-5.821
			c1.28-4.23,5.246-7.222,9.729-7.222c4.482,0,8.446,2.989,9.728,7.218c3.307,0.149,6.121,2.552,6.759,5.825L62.863,100.564z
			 M32.105,98.545h28.15c-0.839-1.792-2.66-2.998-4.71-2.998c-0.119,0-0.236,0.01-0.352,0.018l-0.878,0.066l-0.209-0.86
			c-0.796-3.729-4.146-6.435-7.964-6.435c-3.816,0-7.165,2.705-7.963,6.431l-0.182,0.849l-0.97-0.059
			c-0.07-0.005-0.14-0.01-0.211-0.01C34.765,95.548,32.943,96.753,32.105,98.545z"/>
	</g>
</g>
<g>
	<path fill="#FFFFFF" d="M245.895,253.872c-0.153,0-0.302,0.012-0.452,0.023c-0.883-4.133-4.554-7.233-8.951-7.233
		c-4.395,0-8.065,3.098-8.95,7.23c-0.125-0.008-0.249-0.019-0.376-0.019c-3.021,0-5.536,2.158-6.093,5.016h30.915
		C251.431,256.03,248.917,253.872,245.895,253.872z"/>
</g>
<g>
	<path fill="#FFFFFF" d="M176.514,124.765c-0.153,0-0.302,0.012-0.452,0.023c-0.883-4.133-4.554-7.233-8.951-7.233
		c-4.395,0-8.065,3.098-8.95,7.23c-0.125-0.008-0.249-0.019-0.376-0.019c-3.021,0-5.536,2.158-6.093,5.016h30.915
		C182.049,126.923,179.535,124.765,176.514,124.765z"/>
</g>
<g>
	<path fill="#FFFFFF" d="M50.529,290.797c-0.153,0-0.302,0.012-0.452,0.023c-0.883-4.133-4.554-7.233-8.951-7.233
		c-4.395,0-8.065,3.098-8.95,7.23c-0.125-0.008-0.249-0.019-0.376-0.019c-3.021,0-5.536,2.158-6.093,5.016h30.915
		C56.065,292.955,53.55,290.797,50.529,290.797z"/>
</g>
<g>
	<rect x="100.831" y="12.533" fill="#424E51" width="2.019" height="1.91"/>
	
		<rect x="104.851" y="14.136" transform="matrix(0.7071 0.7071 -0.7071 0.7071 41.6763 -70.4345)" fill="#424E51" width="2.019" height="1.91"/>
	<rect x="106.615" y="18.056" fill="#424E51" width="1.91" height="2.019"/>
	
		<rect x="105.012" y="22.076" transform="matrix(0.707 0.7072 -0.7072 0.707 47.3707 -68.1749)" fill="#424E51" width="1.91" height="2.019"/>
	<rect x="100.982" y="23.839" fill="#424E51" width="2.019" height="1.91"/>
	
		<rect x="96.963" y="22.237" transform="matrix(0.707 0.7072 -0.7072 0.707 45.1047 -62.4902)" fill="#424E51" width="2.019" height="1.91"/>
	<rect x="95.308" y="18.207" fill="#424E51" width="1.91" height="2.019"/>
	
		<rect x="96.91" y="14.188" transform="matrix(0.707 0.7072 -0.7072 0.707 39.426 -64.7615)" fill="#424E51" width="1.91" height="2.019"/>
</g>
<g>
	<rect x="181.345" y="44.924" fill="#424E51" width="2.019" height="1.91"/>
	
		<rect x="185.364" y="46.527" transform="matrix(0.7071 0.7071 -0.7071 0.7071 88.1623 -117.8788)" fill="#424E51" width="2.019" height="1.91"/>
	<rect x="187.128" y="50.448" fill="#424E51" width="1.91" height="2.019"/>
	
		<rect x="185.525" y="54.467" transform="matrix(0.707 0.7072 -0.7072 0.707 93.8675 -115.6241)" fill="#424E51" width="1.91" height="2.019"/>
	<rect x="181.496" y="56.231" fill="#424E51" width="2.019" height="1.91"/>
	
		<rect x="177.476" y="54.629" transform="matrix(0.707 0.7072 -0.7072 0.707 91.6002 -109.9386)" fill="#424E51" width="2.019" height="1.91"/>
	<rect x="175.822" y="50.599" fill="#424E51" width="1.91" height="2.019"/>
	
		<rect x="177.424" y="46.579" transform="matrix(0.707 0.7072 -0.7072 0.707 85.9241 -112.2105)" fill="#424E51" width="1.91" height="2.019"/>
</g>
<g>
	<rect x="115.313" y="148.469" fill="#424E51" width="2.019" height="1.91"/>
	
		<rect x="119.332" y="150.072" transform="matrix(0.7071 0.7071 -0.7071 0.7071 142.0392 -40.8595)" fill="#424E51" width="2.019" height="1.91"/>
	<rect x="121.096" y="153.993" fill="#424E51" width="1.91" height="2.019"/>
	
		<rect x="119.493" y="158.012" transform="matrix(0.707 0.7072 -0.7072 0.707 147.7458 -38.5903)" fill="#424E51" width="1.91" height="2.019"/>
	<rect x="115.464" y="159.776" fill="#424E51" width="2.019" height="1.91"/>
	
		<rect x="111.444" y="158.174" transform="matrix(0.7071 0.7071 -0.7071 0.7071 145.4577 -32.909)" fill="#424E51" width="2.019" height="1.91"/>
	<rect x="109.789" y="154.144" fill="#424E51" width="1.91" height="2.019"/>
	
		<rect x="111.392" y="150.125" transform="matrix(0.707 0.7072 -0.7072 0.707 139.7962 -35.1716)" fill="#424E51" width="1.91" height="2.019"/>
</g>
<g>
	<rect x="329.117" y="265.011" fill="#424E51" width="2.019" height="1.91"/>
	
		<rect x="333.137" y="266.614" transform="matrix(0.7071 0.7071 -0.7071 0.7071 287.0687 -157.9079)" fill="#424E51" width="2.019" height="1.91"/>
	<rect x="334.901" y="270.535" fill="#424E51" width="1.91" height="2.019"/>
	
		<rect x="333.298" y="274.554" transform="matrix(0.707 0.7072 -0.7072 0.707 292.8069 -155.6469)" fill="#424E51" width="1.91" height="2.019"/>
	<rect x="329.268" y="276.318" fill="#424E51" width="2.019" height="1.91"/>
	
		<rect x="325.249" y="274.716" transform="matrix(0.7071 0.7071 -0.7071 0.7071 290.4872 -149.9574)" fill="#424E51" width="2.019" height="1.91"/>
	<rect x="323.594" y="270.686" fill="#424E51" width="1.91" height="2.019"/>
	
		<rect x="325.196" y="266.666" transform="matrix(0.707 0.7072 -0.7072 0.707 284.8499 -152.228)" fill="#424E51" width="1.91" height="2.019"/>
</g>
<g>
	<rect x="342.307" y="148.469" fill="#424E51" width="2.019" height="1.91"/>
	
		<rect x="346.327" y="150.072" transform="matrix(0.7071 0.7071 -0.7071 0.7071 208.5243 -201.3688)" fill="#424E51" width="2.019" height="1.91"/>
	<rect x="348.09" y="153.993" fill="#424E51" width="1.91" height="2.019"/>
	
		<rect x="346.488" y="158.012" transform="matrix(0.707 0.7072 -0.7072 0.707 214.2489 -199.1176)" fill="#424E51" width="1.91" height="2.019"/>
	<rect x="342.458" y="159.776" fill="#424E51" width="2.019" height="1.91"/>
	
		<rect x="338.439" y="158.174" transform="matrix(0.7071 0.7071 -0.7071 0.7071 211.9428 -193.4184)" fill="#424E51" width="2.019" height="1.91"/>
	<rect x="336.784" y="154.144" fill="#424E51" width="1.91" height="2.019"/>
	
		<rect x="338.386" y="150.125" transform="matrix(0.707 0.7072 -0.7072 0.707 206.3016 -195.7009)" fill="#424E51" width="1.91" height="2.019"/>
</g>
<g>
	<rect x="13.506" y="193.677" fill="#424E51" width="2.019" height="1.91"/>
	
		<rect x="17.525" y="195.279" transform="matrix(0.7071 0.7071 -0.7071 0.7071 144.187 44.37)" fill="#424E51" width="2.019" height="1.91"/>
	<rect x="19.289" y="199.2" fill="#424E51" width="1.91" height="2.019"/>
	
		<rect x="17.686" y="203.22" transform="matrix(0.707 0.7072 -0.7072 0.707 149.8891 46.6508)" fill="#424E51" width="1.91" height="2.019"/>
	<rect x="13.656" y="204.983" fill="#424E51" width="2.019" height="1.91"/>
	
		<rect x="9.637" y="203.381" transform="matrix(0.7071 0.7071 -0.7071 0.7071 147.6054 52.3204)" fill="#424E51" width="2.019" height="1.91"/>
	<rect x="7.982" y="199.351" fill="#424E51" width="1.91" height="2.019"/>
	
		<rect x="9.585" y="195.332" transform="matrix(0.707 0.7072 -0.7072 0.707 141.9393 50.0709)" fill="#424E51" width="1.91" height="2.019"/>
</g>
</svg>
