<?xml version="1.0" encoding="utf-8"?>
<!-- Generator: Adobe Illustrator 17.0.0, SVG Export Plug-In . SVG Version: 6.00 Build 0)  -->
<!DOCTYPE svg PUBLIC "-//W3C//DTD SVG 1.1//EN" "http://www.w3.org/Graphics/SVG/1.1/DTD/svg11.dtd">
<svg version="1.1" id="Layer_1" xmlns="http://www.w3.org/2000/svg" xmlns:xlink="http://www.w3.org/1999/xlink" x="0px" y="0px"
	 width="20px" height="20px" viewBox="0 0 20 20" enable-background="new 0 0 20 20" xml:space="preserve">
<g>
	<path fill="#6E9FD5" d="M10,0.115c1.36,0,2.642,0.259,3.847,0.776S16.104,2.116,17,3.012s1.603,1.943,2.121,3.141
		c0.517,1.198,0.775,2.476,0.775,3.836c0,1.375-0.259,2.662-0.775,3.859c-0.518,1.198-1.225,2.244-2.121,3.141
		s-1.947,1.603-3.152,2.121S11.36,19.885,10,19.885s-2.642-0.259-3.847-0.776s-2.256-1.225-3.152-2.121s-1.603-1.943-2.121-3.141
		s-0.776-2.484-0.776-3.859c0-1.36,0.259-2.638,0.776-3.836s1.225-2.244,2.121-3.141s1.947-1.603,3.152-2.121S8.641,0.115,10,0.115z
		 M9.004,13.952l5.933-5.933L13.57,6.604L9.027,11.17L6.454,8.598L5.064,9.988L9.004,13.952z"/>
</g>
</svg>
