<?xml version="1.0" encoding="utf-8"?>
<!-- Generator: Adobe Illustrator 17.0.0, SVG Export Plug-In . SVG Version: 6.00 Build 0)  -->
<!DOCTYPE svg PUBLIC "-//W3C//DTD SVG 1.1//EN" "http://www.w3.org/Graphics/SVG/1.1/DTD/svg11.dtd">
<svg version="1.1" id="Layer_1" xmlns="http://www.w3.org/2000/svg" xmlns:xlink="http://www.w3.org/1999/xlink" x="0px" y="0px"
	 width="40px" height="36.748px" viewBox="0 0 40 36.748" enable-background="new 0 0 40 36.748" xml:space="preserve">
<g>
	<polygon fill="#381E1F" points="17.14,17.078 15.98,13.445 14.723,17.078 	"/>
	<path fill="#381E1F" d="M20,0C8.954,0,0,7.079,0,15.811c0,5.684,3.794,10.666,9.488,13.453c-0.419,1.562-1.514,5.657-1.735,6.534
		c-0.271,1.088,0.399,1.073,0.838,0.781c0.344-0.229,5.48-3.721,7.697-5.229c1.202,0.179,2.443,0.273,3.712,0.273
		c11.046,0,20-7.079,20-15.811C40,7.079,31.046,0,20,0z M27.37,11.779c-0.012-0.438,0.552-0.665,1.101-0.665
		c0.514,0,1.016,0.198,1.026,0.606c0.03,1.079,0.002,3.029,0.002,3.029s3.101-3.105,3.543-3.543c0.456-0.454,1.866,0.967,1.41,1.42
		c-0.781,0.776-2.761,2.919-2.761,2.919l2.918,3.842c0.555,0.733-1.193,2.056-1.747,1.324l-2.749-3.749l-0.629,0.504
		c0,0-0.001,1.852,0,2.827c0.001,0.84-2.139,0.842-2.14,0.002C27.345,19.76,27.392,12.573,27.37,11.779z M17.224,11.742
		c0.369,0.789,2.395,6.354,2.98,7.899c0.41,1.082-1.57,1.833-1.98,0.751c-0.506-1.336-0.375-1.396-0.375-1.396l-3.815-0.001
		l-0.416,1.459c-0.445,1.023-2.362,0.189-1.918-0.833c0.615-1.416,2.467-6.749,2.981-7.879c0.202-0.447,0.68-0.627,1.169-0.627
		C16.442,11.116,17.053,11.378,17.224,11.742z M12.08,10.774c1.296,0,1.294,2.196-0.001,2.195c-1.375-0.001-2.075,0.152-2.075,0.152
		L9.995,20.1c0.004,0.972-2.162,0.922-2.165-0.051c0.011-1.334-0.002-7.132-0.002-7.132H5.743c-1.221,0-1.225-2.142-0.002-2.142
		H12.08z M21.03,19.72c0,0-0.007-5.841-0.01-7.654c-0.002-0.638,0.563-0.957,1.129-0.957c0.563,0,1.125,0.317,1.127,0.952
		c0.003,1.313-0.005,6.717-0.005,6.717s1.787,0.01,2.767,0.01c0.98,0,0.985,2.085,0.005,2.085c-0.979,0-3.19,0.01-4.184,0.01
		C20.864,20.882,21.03,19.72,21.03,19.72z"/>
</g>
</svg>
