<?xml version="1.0" encoding="utf-8"?>
<!-- Generator: Adobe Illustrator 17.0.0, SVG Export Plug-In . SVG Version: 6.00 Build 0)  -->
<!DOCTYPE svg PUBLIC "-//W3C//DTD SVG 1.1//EN" "http://www.w3.org/Graphics/SVG/1.1/DTD/svg11.dtd">
<svg version="1.1" id="Layer_1" xmlns="http://www.w3.org/2000/svg" xmlns:xlink="http://www.w3.org/1999/xlink" x="0px" y="0px"
	 width="163.04px" height="146px" viewBox="0 0 163.04 146" enable-background="new 0 0 163.04 146" xml:space="preserve">
<g>
	<g>
		<path fill="#FECA71" d="M124.907,72c0,22.666-18.384,41.05-41.05,41.05c-22.672,0-41.05-18.384-41.05-41.05
			c0-22.672,18.378-41.05,41.05-41.05C106.523,30.95,124.907,49.328,124.907,72z"/>
		<g>
			<g>
				<g>
					<circle fill="#A9DDE0" stroke="#FFFFFF" stroke-width="3" stroke-miterlimit="10" cx="126.427" cy="72" r="4.561"/>
					<line fill="none" stroke="#FFFFFF" stroke-width="3" stroke-miterlimit="10" x1="121.866" y1="72" x2="103.622" y2="72"/>
				</g>
				<g>
					<circle fill="#A9DDE0" stroke="#FFFFFF" stroke-width="3" stroke-miterlimit="10" cx="126.427" cy="53.756" r="4.561"/>
					<polyline fill="none" stroke="#FFFFFF" stroke-width="3" stroke-miterlimit="10" points="121.866,53.756 115.785,53.756 
						112.744,62.878 103.622,62.878 					"/>
				</g>
				<g>
					<circle fill="#A9DDE0" stroke="#FFFFFF" stroke-width="3" stroke-miterlimit="10" cx="126.427" cy="90.244" r="4.561"/>
					<polyline fill="none" stroke="#FFFFFF" stroke-width="3" stroke-miterlimit="10" points="121.866,90.244 115.785,90.244 
						112.744,81.122 103.622,81.122 					"/>
				</g>
			</g>
			<g>
				<g>
					<circle fill="#A9DDE0" stroke="#FFFFFF" stroke-width="3" stroke-miterlimit="10" cx="41.287" cy="72" r="4.561"/>
					<line fill="none" stroke="#FFFFFF" stroke-width="3" stroke-miterlimit="10" x1="45.848" y1="72" x2="64.092" y2="72"/>
				</g>
				<g>
					<circle fill="#A9DDE0" stroke="#FFFFFF" stroke-width="3" stroke-miterlimit="10" cx="41.287" cy="53.756" r="4.561"/>
					<polyline fill="none" stroke="#FFFFFF" stroke-width="3" stroke-miterlimit="10" points="45.848,53.756 51.93,53.756 
						54.97,62.878 64.092,62.878 					"/>
				</g>
				<g>
					<circle fill="#A9DDE0" stroke="#FFFFFF" stroke-width="3" stroke-miterlimit="10" cx="41.287" cy="90.244" r="4.561"/>
					<polyline fill="none" stroke="#FFFFFF" stroke-width="3" stroke-miterlimit="10" points="45.848,90.244 51.93,90.244 
						54.97,81.122 64.092,81.122 					"/>
				</g>
			</g>
			<g>
				<g>
					<circle fill="#A9DDE0" stroke="#FFFFFF" stroke-width="3" stroke-miterlimit="10" cx="83.857" cy="29.43" r="4.561"/>
					
						<line fill="none" stroke="#FFFFFF" stroke-width="3" stroke-miterlimit="10" x1="83.857" y1="33.991" x2="83.857" y2="52.235"/>
				</g>
				<g>
					<circle fill="#A9DDE0" stroke="#FFFFFF" stroke-width="3" stroke-miterlimit="10" cx="65.613" cy="29.43" r="4.561"/>
					<polyline fill="none" stroke="#FFFFFF" stroke-width="3" stroke-miterlimit="10" points="65.613,33.991 65.613,40.072 
						74.735,43.113 74.735,52.235 					"/>
				</g>
				<g>
					<circle fill="#A9DDE0" stroke="#FFFFFF" stroke-width="3" stroke-miterlimit="10" cx="102.101" cy="29.43" r="4.561"/>
					<polyline fill="none" stroke="#FFFFFF" stroke-width="3" stroke-miterlimit="10" points="102.101,33.991 102.101,40.072 
						92.979,43.113 92.979,52.235 					"/>
				</g>
			</g>
			<g>
				<g>
					<circle fill="#A9DDE0" stroke="#FFFFFF" stroke-width="3" stroke-miterlimit="10" cx="83.857" cy="114.57" r="4.561"/>
					
						<line fill="none" stroke="#FFFFFF" stroke-width="3" stroke-miterlimit="10" x1="83.857" y1="110.009" x2="83.857" y2="91.765"/>
				</g>
				<g>
					<circle fill="#A9DDE0" stroke="#FFFFFF" stroke-width="3" stroke-miterlimit="10" cx="65.613" cy="114.57" r="4.561"/>
					<polyline fill="none" stroke="#FFFFFF" stroke-width="3" stroke-miterlimit="10" points="65.613,110.009 65.613,103.928 
						74.735,100.887 74.735,91.765 					"/>
				</g>
				<g>
					<circle fill="#A9DDE0" stroke="#FFFFFF" stroke-width="3" stroke-miterlimit="10" cx="102.101" cy="114.57" r="4.561"/>
					<polyline fill="none" stroke="#FFFFFF" stroke-width="3" stroke-miterlimit="10" points="102.101,110.009 102.101,103.928 
						92.979,100.887 92.979,91.765 					"/>
				</g>
			</g>
			<g>
				<path fill="#A9DDE0" stroke="#FFFFFF" stroke-width="3" stroke-miterlimit="10" d="M103.622,87.204
					c0,1.672-1.369,3.041-3.041,3.041H67.133c-1.672,0-3.041-1.369-3.041-3.041V56.796c0-1.672,1.369-3.041,3.041-3.041h33.448
					c1.672,0,3.041,1.369,3.041,3.041V87.204z"/>
				
					<rect x="76.255" y="64.398" fill="none" stroke="#FFFFFF" stroke-width="3" stroke-miterlimit="10" width="15.204" height="15.204"/>
				<g>
					<g>
						<rect x="68.653" y="62.878" fill="#FFFFFF" width="3.041" height="3.041"/>
						<rect x="68.653" y="78.081" fill="#FFFFFF" width="3.041" height="3.041"/>
						<rect x="68.653" y="70.48" fill="#FFFFFF" width="3.041" height="3.041"/>
					</g>
					<g>
						<rect x="96.02" y="62.878" fill="#FFFFFF" width="3.041" height="3.041"/>
						<rect x="96.02" y="78.081" fill="#FFFFFF" width="3.041" height="3.041"/>
						<rect x="96.02" y="70.48" fill="#FFFFFF" width="3.041" height="3.041"/>
					</g>
				</g>
			</g>
		</g>
	</g>
</g>
</svg>
