<?xml version="1.0" encoding="utf-8"?>
<!-- Generator: Adobe Illustrator 17.0.0, SVG Export Plug-In . SVG Version: 6.00 Build 0)  -->
<!DOCTYPE svg PUBLIC "-//W3C//DTD SVG 1.1//EN" "http://www.w3.org/Graphics/SVG/1.1/DTD/svg11.dtd">
<svg version="1.1" id="Layer_1" xmlns="http://www.w3.org/2000/svg" xmlns:xlink="http://www.w3.org/1999/xlink" x="0px" y="0px"
	 width="163.04px" height="146px" viewBox="0 0 163.04 146" enable-background="new 0 0 163.04 146" xml:space="preserve">
<g>
	<g>
		<path fill="#FECA71" d="M117.27,61.372c0,22.431-18.194,40.625-40.625,40.625c-22.436,0-40.625-18.194-40.625-40.625
			c0-22.436,18.189-40.625,40.625-40.625C99.076,20.747,117.27,38.936,117.27,61.372z"/>
		<circle fill="#A9DDE0" cx="86.395" cy="80.872" r="40.625"/>
		<path fill="none" stroke="#FFFFFF" stroke-width="3" stroke-miterlimit="10" d="M68.52,44.383
			c5.394-2.649,11.461-4.135,17.875-4.135c2.783,0,5.502,0.279,8.128,0.813"/>
		<path fill="none" stroke="#FFFFFF" stroke-width="3" stroke-miterlimit="10" d="M120.25,58.409
			c4.278,6.433,6.77,14.157,6.77,22.463c0,22.436-18.189,40.625-40.625,40.625S45.77,103.308,45.77,80.872
			c0-12.94,6.05-24.467,15.476-31.907"/>
		<path fill="none" stroke="#FFFFFF" stroke-width="3" stroke-miterlimit="10" d="M104.268,44.38c2.525,1.241,4.904,2.733,7.1,4.448
			"/>
		<polyline fill="none" stroke="#FFFFFF" stroke-width="3" stroke-miterlimit="10" points="122.957,82.094 116.229,90.622 
			107.241,90.622 107.241,87.686 110.04,84.706 99.7,74.52 88.832,74.52 88.832,68.364 92.701,64.238 99.395,64.238 99.395,30.497 
					"/>
		<polyline fill="none" stroke="#FFFFFF" stroke-width="3" stroke-miterlimit="10" points="105.895,66.247 109.293,62.1 
			115.645,62.1 115.645,43.497 		"/>
		<polyline fill="none" stroke="#FFFFFF" stroke-width="3" stroke-miterlimit="10" points="49.02,82.153 57.989,84.122 
			62.741,77.671 60.966,72.339 64.545,67.196 71.77,66.38 71.77,61.312 65.27,56.018 65.27,35.372 		"/>
		<polyline fill="none" stroke="#FFFFFF" stroke-width="3" stroke-miterlimit="10" points="73.395,84.122 73.395,98.176 
			71.097,100.729 71.097,103.141 67.741,106.872 60.395,98.709 60.395,93.266 63.274,90.067 67.843,90.067 		"/>
		<circle fill="#A9DDE0" stroke="#FFFFFF" stroke-width="3" stroke-miterlimit="10" cx="73.395" cy="79.247" r="4.875"/>
		<polyline fill="none" stroke="#FFFFFF" stroke-width="3" stroke-miterlimit="10" points="87.306,81.034 95.486,81.034 
			102.645,88.208 102.645,105.22 96.134,111.747 88.942,111.747 88.942,95.792 83.145,89.984 83.145,62.997 		"/>
		<circle fill="#A9DDE0" stroke="#FFFFFF" stroke-width="3" stroke-miterlimit="10" cx="83.145" cy="58.122" r="4.875"/>
		<circle fill="#A9DDE0" stroke="#FFFFFF" stroke-width="3" stroke-miterlimit="10" cx="65.27" cy="30.497" r="4.875"/>
		<circle fill="#A9DDE0" stroke="#FFFFFF" stroke-width="3" stroke-miterlimit="10" cx="99.395" cy="25.622" r="4.875"/>
		<circle fill="#A9DDE0" stroke="#FFFFFF" stroke-width="3" stroke-miterlimit="10" cx="115.645" cy="38.622" r="4.875"/>
	</g>
</g>
</svg>
