<?xml version="1.0" encoding="utf-8"?>
<!-- Generator: Adobe Illustrator 17.0.0, SVG Export Plug-In . SVG Version: 6.00 Build 0)  -->
<!DOCTYPE svg PUBLIC "-//W3C//DTD SVG 1.1//EN" "http://www.w3.org/Graphics/SVG/1.1/DTD/svg11.dtd">
<svg version="1.1" id="Layer_1" xmlns="http://www.w3.org/2000/svg" xmlns:xlink="http://www.w3.org/1999/xlink" x="0px" y="0px"
	 width="163.04px" height="146px" viewBox="0 0 163.04 146" enable-background="new 0 0 163.04 146" xml:space="preserve">
<g>
	<g>
		<path fill="#FECA71" d="M120.413,73c0,21.473-17.42,38.893-38.893,38.893c-21.478,0-38.893-17.42-38.893-38.893
			c0-21.478,17.414-38.893,38.893-38.893C102.993,34.107,120.413,51.522,120.413,73z"/>
		<g>
			<path fill="none" stroke="#FFFFFF" stroke-width="3" stroke-miterlimit="10" d="M109.806,51.786l21.214,26.518v35.357
				c0,1.944-1.592,3.536-3.536,3.536H99.199L81.52,94.214"/>
			
				<line fill="none" stroke="#FFFFFF" stroke-width="3" stroke-miterlimit="10" x1="53.234" y1="117.196" x2="88.591" y2="117.196"/>
			<path fill="none" stroke="#FFFFFF" stroke-width="3" stroke-miterlimit="10" d="M75.224,28.804h52.261
				c1.944,0,3.536,1.592,3.536,3.536v35.91"/>
			<path fill="none" stroke="#FFFFFF" stroke-width="3" stroke-miterlimit="10" d="M81.52,51.786L63.841,28.804H35.556
				c-1.944,0-3.536,1.592-3.536,3.536v35.357l21.214,26.518"/>
			<path fill="none" stroke="#FFFFFF" stroke-width="3" stroke-miterlimit="10" d="M42.627,117.196h-7.071
				c-1.944,0-3.536-1.592-3.536-3.536V78.635"/>
			<polyline fill="none" stroke="#FFFFFF" stroke-width="3" stroke-miterlimit="10" points="53.234,51.786 69.145,73 93.895,73 
				109.806,94.214 			"/>
			<circle fill="#A9DDE0" stroke="#FFFFFF" stroke-width="3" stroke-miterlimit="10" cx="109.806" cy="94.214" r="7.071"/>
			<circle fill="#A9DDE0" stroke="#FFFFFF" stroke-width="3" stroke-miterlimit="10" cx="53.234" cy="51.786" r="7.071"/>
			<circle fill="#A9DDE0" stroke="#FFFFFF" stroke-width="3" stroke-miterlimit="10" cx="81.52" cy="94.214" r="7.071"/>
			<circle fill="#A9DDE0" stroke="#FFFFFF" stroke-width="3" stroke-miterlimit="10" cx="53.234" cy="94.214" r="7.071"/>
			<circle fill="#A9DDE0" stroke="#FFFFFF" stroke-width="3" stroke-miterlimit="10" cx="109.806" cy="51.786" r="7.071"/>
			<circle fill="#A9DDE0" stroke="#FFFFFF" stroke-width="3" stroke-miterlimit="10" cx="81.52" cy="51.786" r="7.071"/>
		</g>
	</g>
</g>
</svg>
