<?xml version="1.0" encoding="utf-8"?>
<!-- Generator: Adobe Illustrator 17.0.0, SVG Export Plug-In . SVG Version: 6.00 Build 0)  -->
<!DOCTYPE svg PUBLIC "-//W3C//DTD SVG 1.1//EN" "http://www.w3.org/Graphics/SVG/1.1/DTD/svg11.dtd">
<svg version="1.1" id="Layer_1" xmlns="http://www.w3.org/2000/svg" xmlns:xlink="http://www.w3.org/1999/xlink" x="0px" y="0px"
	 width="113px" height="19.097px" viewBox="0 0 113 19.097" enable-background="new 0 0 113 19.097" xml:space="preserve">
<g>
	<polygon fill="#55595C" points="9.549,9.421 1.273,0 0,0 0,19.097 3.819,19.097 3.819,8.021 9.549,14.386 15.266,8.036 
		15.266,2.924 	"/>
	<polygon fill="#55595C" points="22.423,19.097 18.604,19.097 18.604,0 19.877,0 22.449,2.924 22.449,8.036 22.435,8.021 	"/>
</g>
<g>
	<path fill="#55595C" d="M33.423,9.864v6.522H30.57V6.491l2.853-0.306v0.907c0.638-0.598,1.454-0.897,2.445-0.897
		c1.291,0,2.276,0.391,2.955,1.172c0.747-0.781,1.868-1.172,3.363-1.172c1.291,0,2.276,0.391,2.955,1.172
		c0.679,0.782,1.019,1.681,1.019,2.701v6.318h-2.853v-5.605c0-0.679-0.153-1.205-0.459-1.579c-0.305-0.374-0.802-0.571-1.488-0.591
		c-0.564,0.041-1.053,0.415-1.467,1.121c-0.035,0.211-0.051,0.424-0.051,0.642v6.013H36.99v-5.605c0-0.679-0.153-1.205-0.459-1.579
		c-0.305-0.374-0.802-0.571-1.488-0.591C34.418,8.651,33.878,9.069,33.423,9.864z"/>
	<path fill="#55595C" d="M48.138,11.291c0-1.495,0.475-2.717,1.426-3.669c0.951-0.951,2.174-1.427,3.669-1.427
		S55.916,6.67,56.8,7.621c0.883,0.952,1.325,2.175,1.325,3.669v1.019h-7.032c0.068,0.544,0.306,0.968,0.713,1.274
		c0.408,0.305,0.883,0.458,1.427,0.458c0.951,0,1.8-0.272,2.547-0.816l1.631,1.631c-0.747,1.019-2.14,1.529-4.178,1.529
		c-1.495,0-2.717-0.476-3.669-1.427C48.613,14.008,48.138,12.785,48.138,11.291z M54.66,8.997c-0.407-0.306-0.883-0.458-1.427-0.458
		s-1.019,0.152-1.427,0.458c-0.407,0.306-0.611,0.73-0.611,1.273h4.076C55.271,9.728,55.067,9.303,54.66,8.997z"/>
	<path fill="#55595C" d="M62.996,7.316c0.727-0.748,1.614-1.122,2.66-1.122c0.333,0,0.649,0.027,0.948,0.082L66.155,9.09
		C65.822,8.79,65.346,8.63,64.728,8.61c-0.693,0.047-1.27,0.551-1.733,1.508v6.267h-2.853V6.491l2.853-0.306V7.316z"/>
	<path fill="#55595C" d="M68.743,1.1H71.8v8.652l2.925-3.557h3.434l-3.811,4.576l4.83,5.615h-3.974L71.8,12.319v4.066h-3.057V1.1z"
		/>
	<path fill="#55595C" d="M80.707,16.385V1.1h2.853v15.286H80.707z"/>
	<path fill="#55595C" d="M86.852,2.725c0.271-0.275,0.639-0.412,1.1-0.412c0.489,0,0.87,0.137,1.142,0.412
		C89.365,3,89.501,3.342,89.501,3.749c0,0.408-0.136,0.748-0.407,1.019c-0.272,0.272-0.645,0.408-1.121,0.408
		c-0.475,0-0.849-0.136-1.121-0.408c-0.272-0.271-0.407-0.611-0.407-1.019C86.444,3.342,86.58,3,86.852,2.725z M89.399,16.385V6.185
		h-2.853v10.201H89.399z"/>
	<path fill="#55595C" d="M94.738,9.904v6.481h-2.853V6.491l2.853-0.306v0.928c0.686-0.612,1.501-0.918,2.446-0.918
		c1.291,0,2.275,0.391,2.955,1.172c0.679,0.782,1.019,1.681,1.019,2.701v6.318h-2.853v-5.605c0-0.679-0.17-1.205-0.509-1.579
		c-0.34-0.374-0.853-0.571-1.539-0.591C95.666,8.651,95.16,9.082,94.738,9.904z"/>
	<path fill="#55595C" d="M103.014,11.291c0-1.495,0.475-2.717,1.426-3.669c0.951-0.951,2.174-1.427,3.669-1.427
		s2.683,0.476,3.567,1.427C112.558,8.573,113,9.796,113,11.291v1.019h-7.032c0.068,0.544,0.306,0.968,0.713,1.274
		c0.408,0.305,0.883,0.458,1.427,0.458c0.951,0,1.8-0.272,2.547-0.816l1.631,1.631c-0.747,1.019-2.14,1.529-4.178,1.529
		c-1.495,0-2.717-0.476-3.669-1.427C103.489,14.008,103.014,12.785,103.014,11.291z M109.535,8.997
		c-0.407-0.306-0.883-0.458-1.427-0.458c-0.543,0-1.019,0.152-1.427,0.458c-0.407,0.306-0.611,0.73-0.611,1.273h4.076
		C110.147,9.728,109.943,9.303,109.535,8.997z"/>
</g>
</svg>
