<?xml version="1.0" encoding="utf-8"?>
<!-- Generator: Adobe Illustrator 17.0.0, SVG Export Plug-In . SVG Version: 6.00 Build 0)  -->
<!DOCTYPE svg PUBLIC "-//W3C//DTD SVG 1.1//EN" "http://www.w3.org/Graphics/SVG/1.1/DTD/svg11.dtd">
<svg version="1.1" id="Layer_1" xmlns="http://www.w3.org/2000/svg" xmlns:xlink="http://www.w3.org/1999/xlink" x="0px" y="0px"
	 width="136px" height="23.48px" viewBox="0 0 136 23.48" enable-background="new 0 0 136 23.48" xml:space="preserve">
<g>
	<g>
		<g>
			<path fill="#FFFFFF" d="M40.401,13.084v7.835h-3.428V9.031l3.428-0.366v1.089c0.767-0.718,1.746-1.078,2.938-1.078
				c1.55,0,2.734,0.47,3.55,1.408c0.897-0.938,2.244-1.408,4.04-1.408c1.55,0,2.734,0.47,3.55,1.408
				c0.816,0.94,1.224,2.021,1.224,3.245v7.59h-3.428v-6.733c0-0.817-0.183-1.449-0.551-1.897c-0.367-0.45-0.963-0.687-1.787-0.711
				c-0.678,0.049-1.266,0.498-1.764,1.347c-0.04,0.253-0.061,0.511-0.061,0.77v7.224h-3.428v-6.732c0-0.817-0.184-1.449-0.551-1.897
				c-0.367-0.45-0.963-0.687-1.787-0.711C41.596,11.626,40.947,12.129,40.401,13.084z"/>
			<path fill="#FFFFFF" d="M58.078,14.797c0-1.796,0.572-3.264,1.714-4.406c1.143-1.143,2.611-1.715,4.407-1.715
				s3.224,0.572,4.285,1.715c1.061,1.142,1.592,2.61,1.592,4.406v1.224h-8.448c0.082,0.654,0.368,1.163,0.858,1.531
				c0.489,0.366,1.06,0.55,1.714,0.55c1.143,0,2.163-0.327,3.061-0.979l1.959,1.958c-0.898,1.224-2.571,1.837-5.02,1.837
				c-1.796,0-3.264-0.572-4.407-1.714C58.65,18.062,58.078,16.593,58.078,14.797z M65.914,12.042
				c-0.489-0.366-1.061-0.55-1.714-0.55c-0.653,0-1.224,0.184-1.714,0.55c-0.489,0.368-0.734,0.879-0.734,1.531h4.896
				C66.648,12.921,66.404,12.41,65.914,12.042z"/>
			<path fill="#FFFFFF" d="M75.927,10.023c0.873-0.897,1.938-1.347,3.195-1.347c0.4,0,0.78,0.033,1.139,0.098l-0.538,3.379
				c-0.4-0.36-0.972-0.552-1.714-0.577c-0.832,0.057-1.526,0.662-2.081,1.812v7.529h-3.428V9.031l3.428-0.366V10.023z"/>
			<path fill="#FFFFFF" d="M82.832,2.555h3.673v10.394l3.513-4.273h4.126l-4.579,5.497l5.803,6.745h-4.774l-4.089-4.884v4.884
				h-3.673L82.832,2.555L82.832,2.555z"/>
			<path fill="#FFFFFF" d="M97.204,20.918V2.555h3.428v18.364L97.204,20.918L97.204,20.918z"/>
			<path fill="#FFFFFF" d="M104.586,4.508c0.327-0.33,0.767-0.496,1.322-0.496c0.587,0,1.045,0.166,1.371,0.496
				s0.489,0.741,0.489,1.231s-0.164,0.897-0.489,1.224c-0.326,0.327-0.775,0.489-1.346,0.489c-0.572,0-1.02-0.163-1.347-0.489
				c-0.326-0.327-0.489-0.734-0.489-1.224S104.26,4.838,104.586,4.508z M107.646,20.918V8.664h-3.428v12.254L107.646,20.918
				L107.646,20.918z"/>
			<path fill="#FFFFFF" d="M114.062,13.133v7.786h-3.428V9.031l3.428-0.366v1.114c0.825-0.734,1.804-1.102,2.938-1.102
				c1.551,0,2.735,0.47,3.55,1.408c0.817,0.94,1.225,2.021,1.225,3.245v7.59h-3.428v-6.733c0-0.817-0.205-1.449-0.613-1.897
				c-0.408-0.45-1.024-0.687-1.848-0.711C115.177,11.626,114.568,12.146,114.062,13.133z"/>
			<path fill="#FFFFFF" d="M124.002,14.797c0-1.796,0.572-3.264,1.714-4.406c1.143-1.143,2.611-1.715,4.407-1.715
				s3.224,0.572,4.285,1.715c1.061,1.142,1.592,2.61,1.592,4.406v1.224h-8.448c0.082,0.654,0.368,1.163,0.858,1.531
				c0.489,0.366,1.06,0.55,1.714,0.55c1.143,0,2.163-0.327,3.061-0.979l1.959,1.958c-0.898,1.224-2.571,1.837-5.02,1.837
				c-1.796,0-3.264-0.572-4.407-1.714C124.574,18.062,124.002,16.593,124.002,14.797z M131.838,12.042
				c-0.489-0.366-1.061-0.55-1.714-0.55s-1.224,0.184-1.714,0.55c-0.489,0.368-0.734,0.879-0.734,1.531h4.897
				C132.572,12.921,132.327,12.41,131.838,12.042z"/>
		</g>
	</g>
	<g>
		<g>
			<polygon fill="#FFFFFF" points="11.741,11.583 1.565,0 0,0 0,23.48 4.696,23.48 4.696,9.861 11.741,17.688 18.769,9.88 
				18.769,3.595 			"/>
			<polygon fill="#FFFFFF" points="27.569,23.48 22.873,23.48 22.873,0 24.438,0 27.601,3.595 27.601,9.88 27.584,9.861 			"/>
		</g>
	</g>
</g>
</svg>
