<?xml version="1.0" encoding="utf-8"?>
<!-- Generator: Adobe Illustrator 17.0.0, SVG Export Plug-In . SVG Version: 6.00 Build 0)  -->
<!DOCTYPE svg PUBLIC "-//W3C//DTD SVG 1.1//EN" "http://www.w3.org/Graphics/SVG/1.1/DTD/svg11.dtd">
<svg version="1.1" id="Layer_1" xmlns="http://www.w3.org/2000/svg" xmlns:xlink="http://www.w3.org/1999/xlink" x="0px" y="0px"
	 width="163.536px" height="120.371px" viewBox="0 0 163.536 120.371" enable-background="new 0 0 163.536 120.371"
	 xml:space="preserve">
<g opacity="0.5">
	<path fill="#77A9DB" d="M29.43,35.481c-0.635,0-1.15-0.516-1.15-1.15v-7.92c0-0.635,0.516-1.15,1.15-1.15s1.15,0.516,1.15,1.15
		v7.92C30.58,34.966,30.064,35.481,29.43,35.481z"/>
	<path fill="#77A9DB" d="M33.39,31.521h-7.919c-0.635,0-1.15-0.516-1.15-1.15c0-0.635,0.516-1.15,1.15-1.15h7.919
		c0.635,0,1.15,0.516,1.15,1.15C34.54,31.006,34.024,31.521,33.39,31.521z"/>
</g>
<g opacity="0.5">
	<path fill="#77A9DB" d="M139.048,84.082c-0.294,0-0.589-0.112-0.813-0.337c-0.449-0.449-0.449-1.178,0-1.627l5.599-5.6
		c0.449-0.449,1.178-0.449,1.627,0s0.449,1.178,0,1.627l-5.599,5.6C139.637,83.969,139.342,84.082,139.048,84.082z"/>
	<path fill="#77A9DB" d="M144.647,84.082c-0.294,0-0.589-0.112-0.813-0.337l-5.598-5.6c-0.449-0.449-0.449-1.178,0-1.627
		s1.178-0.449,1.627,0l5.598,5.6c0.449,0.449,0.449,1.178,0,1.627C145.236,83.969,144.941,84.082,144.647,84.082z"/>
</g>
<path opacity="0.5" fill="#77A9DB" d="M83.596,11.64c-2.411,0-4.373-1.962-4.373-4.373c0-2.41,1.962-4.372,4.373-4.372
	s4.373,1.962,4.373,4.372C87.969,9.678,86.007,11.64,83.596,11.64z M83.596,5.195c-1.143,0-2.072,0.929-2.072,2.071
	c0,1.143,0.93,2.072,2.072,2.072s2.072-0.93,2.072-2.072S84.738,5.195,83.596,5.195z"/>
<g opacity="0.5">
	<path fill="#77A9DB" d="M161.071,29.926h-23.83c-0.635,0-1.15-0.516-1.15-1.15c0-0.635,0.516-1.15,1.15-1.15h23.83
		c0.635,0,1.15,0.516,1.15,1.15S161.705,29.926,161.071,29.926z"/>
	<path fill="#77A9DB" d="M132.641,29.926h-8.43c-0.635,0-1.15-0.516-1.15-1.15c0-0.635,0.516-1.15,1.15-1.15h8.43
		c0.635,0,1.15,0.516,1.15,1.15S133.276,29.926,132.641,29.926z"/>
	<path fill="#77A9DB" d="M134.558,22.899h-23.831c-0.635,0-1.15-0.516-1.15-1.15s0.516-1.15,1.15-1.15h23.831
		c0.635,0,1.15,0.516,1.15,1.15S135.193,22.899,134.558,22.899z"/>
	<path fill="#77A9DB" d="M143.43,22.899h-4.215c-0.635,0-1.15-0.516-1.15-1.15s0.516-1.15,1.15-1.15h4.215
		c0.635,0,1.15,0.516,1.15,1.15S144.065,22.899,143.43,22.899z"/>
</g>
<g opacity="0.5">
	<path fill="#77A9DB" d="M33.146,73.25H18.083c-0.635,0-1.15-0.516-1.15-1.15c0-0.635,0.516-1.15,1.15-1.15h15.064
		c0.635,0,1.15,0.516,1.15,1.15S33.781,73.25,33.146,73.25z"/>
	<path fill="#77A9DB" d="M13.485,73.25h-5.01c-0.635,0-1.15-0.516-1.15-1.15c0-0.635,0.516-1.15,1.15-1.15h5.01
		c0.635,0,1.15,0.516,1.15,1.15C14.636,72.734,14.12,73.25,13.485,73.25z"/>
</g>
<g opacity="0.5">
	<path fill="#77A9DB" d="M149.46,112.562h-23.831c-0.635,0-1.15-0.516-1.15-1.15c0-0.635,0.516-1.15,1.15-1.15h23.831
		c0.635,0,1.15,0.516,1.15,1.15C150.611,112.046,150.095,112.562,149.46,112.562z"/>
	<path fill="#77A9DB" d="M121.031,112.562h-8.432c-0.635,0-1.15-0.516-1.15-1.15c0-0.635,0.516-1.15,1.15-1.15h8.432
		c0.635,0,1.15,0.516,1.15,1.15S121.666,112.562,121.031,112.562z"/>
</g>
<g>
	<g>
		<path fill="#77A9DB" d="M99.264,49.506L99.264,49.506c-3.736,0-6.776-3.04-6.776-6.777l0.001-16.316
			c0-0.465,0.28-0.885,0.71-1.063c0.429-0.178,0.923-0.08,1.254,0.249l21.943,21.942c0.328,0.329,0.427,0.824,0.249,1.254
			s-0.598,0.71-1.063,0.71L99.264,49.506z M94.788,29.188v13.54c0,2.469,2.008,4.477,4.476,4.477h13.542L94.788,29.188z"/>
		<path fill="#77A9DB" d="M109.955,107.085H59.949c-0.635,0-1.15-0.516-1.15-1.15c0-0.635,0.516-1.15,1.15-1.15h50.006
			c2.469,0,4.477-2.008,4.477-4.477V48.831l-21.27-21.27H59.949c-2.469,0-4.477,2.008-4.477,4.476v66.714
			c0,0.635-0.516,1.15-1.15,1.15c-0.635,0-1.15-0.516-1.15-1.15V32.038c0-3.737,3.04-6.777,6.777-6.777h33.689
			c0.305,0,0.598,0.121,0.813,0.337l21.943,21.943c0.216,0.216,0.337,0.509,0.337,0.813v51.953
			C116.732,104.045,113.692,107.085,109.955,107.085z"/>
	</g>
	<path fill="#77A9DB" d="M79.297,97.07c-4.578,0-8.883-1.783-12.12-5.021c-3.237-3.237-5.021-7.542-5.021-12.121
		c0-4.578,1.783-8.883,5.021-12.121c3.237-3.237,7.542-5.02,12.121-5.02c4.578,0,8.883,1.782,12.121,5.02
		c3.237,3.238,5.02,7.543,5.02,12.121c0,4.579-1.782,8.883-5.02,12.12C88.181,95.287,83.876,97.07,79.297,97.07z M79.298,65.088
		c-3.965,0-7.691,1.544-10.494,4.347c-2.804,2.803-4.348,6.53-4.348,10.494c0,3.965,1.544,7.691,4.348,10.494
		c2.803,2.804,6.529,4.348,10.493,4.348c3.965,0,7.692-1.545,10.495-4.349c2.803-2.802,4.347-6.528,4.347-10.493
		c0-3.964-1.544-7.691-4.347-10.494C86.989,66.632,83.262,65.088,79.298,65.088z"/>
	<path fill="#77A9DB" d="M61.366,99.011c-0.294,0-0.589-0.112-0.813-0.337c-0.449-0.449-0.449-1.178,0-1.627l6.624-6.624
		c0.449-0.449,1.178-0.449,1.627,0s0.449,1.178,0,1.627l-6.624,6.624C61.955,98.898,61.66,99.011,61.366,99.011z"/>
	<path fill="#77A9DB" d="M49.017,117.513c-0.294,0-0.589-0.112-0.813-0.337l-6.153-6.153c-0.449-0.449-0.449-1.178,0-1.627
		l15.424-15.425c0.449-0.449,1.178-0.449,1.627,0l6.153,6.153c0.449,0.449,0.449,1.178,0,1.627L49.83,117.176
		C49.606,117.4,49.311,117.513,49.017,117.513z M44.49,110.209l4.527,4.527l13.799-13.799l-4.527-4.527L44.49,110.209z"/>
	<g>
		<path fill="#77A9DB" d="M77.948,82.366c0.001-1.692,0.766-2.396,2.255-3.544c1.006-0.785,1.55-1.43,1.55-2.696
			c0-1.611-0.944-2.194-2.476-2.194c-1.086,0-2.215,0.523-2.918,1.025l-0.685-1.73c0.927-0.583,2.375-1.127,3.864-1.127
			c2.456,0,4.589,1.126,4.589,3.865c0,1.912-0.886,2.979-2.436,4.126c-1.106,0.806-1.73,1.448-1.729,2.516l-0.001,1.43h-2.014
			L77.948,82.366L77.948,82.366z M77.75,85.788h2.474v2.375h-2.476L77.75,85.788z"/>
	</g>
	<path fill="#77A9DB" d="M81.962,38.535H62.128c-0.635,0-1.15-0.516-1.15-1.15s0.516-1.15,1.15-1.15h19.834
		c0.635,0,1.15,0.516,1.15,1.15S82.597,38.535,81.962,38.535z"/>
	<path fill="#77A9DB" d="M81.962,46.551H62.128c-0.635,0-1.15-0.516-1.15-1.15c0-0.635,0.516-1.15,1.15-1.15h19.834
		c0.635,0,1.15,0.516,1.15,1.15S82.597,46.551,81.962,46.551z"/>
	<path fill="#77A9DB" d="M81.962,54.566H62.128c-0.635,0-1.15-0.516-1.15-1.15c0-0.635,0.516-1.15,1.15-1.15h19.834
		c0.635,0,1.15,0.516,1.15,1.15C83.112,54.051,82.597,54.566,81.962,54.566z"/>
</g>
</svg>
