<?xml version="1.0" encoding="utf-8"?>
<!-- Generator: Adobe Illustrator 17.0.0, SVG Export Plug-In . SVG Version: 6.00 Build 0)  -->
<!DOCTYPE svg PUBLIC "-//W3C//DTD SVG 1.1//EN" "http://www.w3.org/Graphics/SVG/1.1/DTD/svg11.dtd">
<svg version="1.1" id="Layer_1" xmlns="http://www.w3.org/2000/svg" xmlns:xlink="http://www.w3.org/1999/xlink" x="0px" y="0px"
	 width="60px" height="60px" viewBox="0 0 60 60" enable-background="new 0 0 60 60" xml:space="preserve">
<g>
	<path fill="#010101" d="M59.99,33.011c0,0-0.252-0.011-0.686-0.011c-2.011,0-7.92,0.229-10.498,2.806
		c-2.147,2.147-2.664,6.603-2.777,9.194H45.97c-0.113-2.592-0.63-7.047-2.777-9.194C40.615,33.229,34.705,33,32.695,33
		c-0.434,0-0.685,0.011-0.685,0.011s-0.336,8.051,2.796,11.183c2.462,2.463,7.953,2.781,10.195,2.805V60h2V46.998
		c2.244-0.025,7.731-0.342,10.193-2.805C60.325,41.062,59.99,33.011,59.99,33.011z M36.219,42.779
		c-1.449-1.45-2.063-4.97-2.197-7.746c2.941,0.143,6.338,0.769,7.757,2.187c1.45,1.451,2.065,4.972,2.197,7.748
		C41.035,44.825,37.638,44.198,36.219,42.779z M55.78,42.779c-1.419,1.419-4.816,2.046-7.757,2.188
		c0.133-2.777,0.747-6.297,2.197-7.748c1.419-1.418,4.815-2.044,7.757-2.187C57.843,37.81,57.229,41.33,55.78,42.779z"/>
	<path fill="#FFFFFF" d="M34.022,35.033c0.134,2.776,0.748,6.296,2.197,7.746c1.419,1.419,4.816,2.046,7.757,2.188
		c-0.133-2.776-0.747-6.297-2.197-7.748C40.36,35.802,36.963,35.176,34.022,35.033z"/>
	<path fill="#FFFFFF" d="M48.023,44.968c2.94-0.143,6.338-0.77,7.757-2.188c1.449-1.449,2.064-4.97,2.197-7.746
		c-2.941,0.143-6.338,0.769-7.757,2.187C48.77,38.671,48.156,42.19,48.023,44.968z"/>
	<path fill="#010101" d="M47.985,10.016c0,0-0.382-0.016-1.038-0.016c-3.052,0-12.021,0.346-15.933,4.258
		c-2.675,2.676-3.683,7.713-4.053,11.607c0.078-3.459-0.132-14.592-5.696-20.157C16.141,0.585,6.29,0,2.061,0
		c-1.25,0-2.01,0.051-2.01,0.051s-0.98,14.575,5.657,21.214c5.122,5.122,14.966,5.708,19.198,5.708c0.427,0,0.791-0.007,1.094-0.015
		v13.128c-0.593-2.348-1.528-4.598-3.009-6.078C19.309,30.326,10.869,30,7.994,30c-0.618,0-0.978,0.016-0.978,0.016
		s-0.48,11.501,3.993,15.975C14.69,49.673,23.12,50,26,50v10h2V31.244c3.207-0.014,11.901-0.418,15.742-4.258
		C48.494,22.234,47.985,10.016,47.985,10.016z M14.194,12.779l-1.414,1.414l10.784,10.784c-4.339-0.128-12.291-0.963-16.441-5.113
		C2.51,15.252,2,5.93,2.003,2c0.01,0,0.009,0,0.006,0h0.021c3.809,0,13.182,0.513,17.806,5.136
		c4.117,4.118,4.975,11.921,5.109,16.396L14.194,12.779z M23.509,47.922c-4.335-0.263-8.976-1.234-11.086-3.346
		c-2.618-2.618-3.321-8.838-3.417-12.563c4.715,0.117,10.219,1.058,12.57,3.409c2.299,2.299,3.122,7.367,3.354,11.093l-7.223-7.222
		l-1.414,1.414L23.509,47.922z M30.32,29.17l7.77-7.844l-1.422-1.407l-7.853,7.929c0.221-4.003,1.082-9.644,3.613-12.176
		c2.547-2.546,8.508-3.551,13.57-3.661c-0.085,3.958-0.823,10.714-3.67,13.562C40.038,27.861,34.992,28.902,30.32,29.17z"/>
	<path fill="#FFFFFF" d="M32.428,15.672c-2.531,2.532-3.392,8.173-3.613,12.176l7.853-7.929l1.422,1.407l-7.77,7.844
		c4.673-0.268,9.719-1.309,12.009-3.598c2.847-2.848,3.585-9.604,3.67-13.562C40.936,12.121,34.975,13.126,32.428,15.672z"/>
	<path fill="#FFFFFF" d="M2.031,2H2.009c0.003,0,0.004,0-0.006,0C2,5.93,2.51,15.252,7.122,19.864
		c4.15,4.15,12.102,4.985,16.441,5.113L12.78,14.193l1.414-1.414l10.752,10.752c-0.135-4.475-0.992-12.277-5.109-16.396
		C15.212,2.513,5.839,2,2.031,2z"/>
	<path fill="#FFFFFF" d="M24.93,46.515c-0.231-3.726-1.055-8.794-3.354-11.093c-2.352-2.352-7.855-3.292-12.57-3.409
		c0.096,3.726,0.799,9.945,3.417,12.563c2.11,2.111,6.751,3.083,11.086,3.346l-7.216-7.215l1.414-1.414L24.93,46.515z"/>
</g>
</svg>
