<?xml version="1.0" encoding="utf-8"?>
<!-- Generator: Adobe Illustrator 17.0.0, SVG Export Plug-In . SVG Version: 6.00 Build 0)  -->
<!DOCTYPE svg PUBLIC "-//W3C//DTD SVG 1.1//EN" "http://www.w3.org/Graphics/SVG/1.1/DTD/svg11.dtd">
<svg version="1.1" id="Layer_1" xmlns="http://www.w3.org/2000/svg" xmlns:xlink="http://www.w3.org/1999/xlink" x="0px" y="0px"
	 width="60px" height="60px" viewBox="0 0 60 60" enable-background="new 0 0 60 60" xml:space="preserve">
<g>
	<path fill="#010101" d="M60,47.213V27.664c0-2.16-1.854-3.91-4-3.91c-2.145,0-4,1.75-4,3.91v9.979c0,0.018,0.236,0.033,0.213,0.053
		L38,49.979v8.268h-2v-22h5V15.754c0-2.209-1.791-3.508-4-3.508H23c-2.209,0-4,1.299-4,3.508v20.492h5v22h-2v-8.268
		c0,0-14-12.318-14-12.336v-9.979c0-2.16-1.856-3.91-4-3.91c-2.147,0-4,1.75-4,3.91v19.549l10,8.434v2.6H8v2h44v-2h-2v-2.6
		L60,47.213z M2,27.664c0-1.078,0.929-1.955,2-1.955c1.072,0,2,0.877,2,1.955v9.17c0-0.025-0.574-0.027-0.816-0.006
		c-0.959,0.084-1.9,0.539-2.568,1.338C2.357,38.477,2,38.816,2,39.174V27.664z M20,58.246h-8v-3.408L2,46.404v-4.383
		c0,0.557,0.551,1.066,1.039,1.479l8.107,6.869l1.199-1.447l-0.019-0.012L4.22,42.049c-0.794-0.67-0.9-1.865-0.234-2.666
		c0.323-0.389,0.776-0.625,1.276-0.67c0.5-0.045,0.788,0.109,1.172,0.434L20,50.787V58.246z M34,58.246h-3v-19h-2v19h-3v-24h-5
		V15.754c0-1.103,0.896-1.508,2-1.508h14c1.103,0,2,0.404,2,1.508v18.492h-5V58.246z M54,27.664c0-1.078,0.928-1.955,2-1.955
		c1.071,0,2,0.877,2,1.955v11.51c0-0.357-0.315-0.697-0.572-1.008c-0.668-0.799-1.667-1.254-2.625-1.338
		C54.56,36.807,54,36.809,54,36.834V27.664z M48,54.838v3.408h-8v-7.459l13.566-11.641c0.384-0.324,0.771-0.479,1.271-0.434
		c0.5,0.045,0.904,0.281,1.228,0.67c0.666,0.801,0.535,1.996-0.259,2.666l-8.117,6.861l-0.021,0.012l1.203,1.447l8.091-6.869
		C57.45,43.088,58,42.578,58,42.021v4.383L48,54.838z"/>
	<path fill="#FFFFFF" d="M5.184,36.828C5.426,36.807,6,36.809,6,36.834v-9.17c0-1.078-0.928-1.955-2-1.955c-1.071,0-2,0.877-2,1.955
		v11.51c0-0.357,0.357-0.697,0.615-1.008C3.283,37.367,4.225,36.912,5.184,36.828z"/>
	<path fill="#FFFFFF" d="M5.262,38.713c-0.501,0.045-0.954,0.281-1.277,0.67c-0.666,0.801-0.561,1.996,0.233,2.666l8.105,6.861
		l0.015,0.012l-1.206,1.447L3.039,43.5C2.551,43.088,2,42.578,2,42.021v4.383l10,8.434v3.408h8v-7.459L6.434,39.146
		C6.05,38.822,5.762,38.668,5.262,38.713z"/>
	<path fill="#FFFFFF" d="M39,15.754c0-1.103-0.897-1.508-2-1.508H23c-1.104,0-2,0.404-2,1.508v18.492h5v24h3v-19h2v19h3v-24h5
		V15.754z M31,22.754h-2v-2h2V22.754z M31,18.754h-2v-2h2V18.754z"/>
	<path fill="#FFFFFF" d="M57.428,38.166C57.685,38.477,58,38.816,58,39.174v-11.51c0-1.078-0.929-1.955-2-1.955
		c-1.072,0-2,0.877-2,1.955v9.17c0-0.025,0.56-0.027,0.803-0.006C55.761,36.912,56.76,37.367,57.428,38.166z"/>
	<path fill="#FFFFFF" d="M58,42.021c0,0.557-0.551,1.066-1.039,1.479l-8.107,6.869l-1.198-1.447l0.018-0.012l8.107-6.861
		c0.794-0.67,0.9-1.865,0.234-2.666c-0.323-0.389-0.775-0.625-1.276-0.67c-0.5-0.045-0.788,0.109-1.172,0.434L40,50.787v7.459h8
		v-3.408l10-8.434V42.021z"/>
	<path fill="#010101" d="M30,9.754c2.762,0,5-2.239,5-5c0-2.762-2.238-5-5-5c-2.762,0-5,2.238-5,5C25,7.515,27.238,9.754,30,9.754z
		 M30,1.754c1.654,0,3,1.346,3,3s-1.346,3-3,3c-1.654,0-3-1.346-3-3S28.346,1.754,30,1.754z"/>
	<circle fill="#FFFFFF" cx="30" cy="4.754" r="3"/>
	<rect x="29" y="16.754" fill="#010101" width="2" height="2"/>
	<rect x="29" y="20.754" fill="#010101" width="2" height="2"/>
</g>
</svg>
