<?xml version="1.0" encoding="utf-8"?>
<!-- Generator: Adobe Illustrator 17.0.0, SVG Export Plug-In . SVG Version: 6.00 Build 0)  -->
<!DOCTYPE svg PUBLIC "-//W3C//DTD SVG 1.1//EN" "http://www.w3.org/Graphics/SVG/1.1/DTD/svg11.dtd">
<svg version="1.1" id="Layer_1" xmlns="http://www.w3.org/2000/svg" xmlns:xlink="http://www.w3.org/1999/xlink" x="0px" y="0px"
	 width="82.729px" height="82.758px" viewBox="0 0 82.729 82.758" enable-background="new 0 0 82.729 82.758" xml:space="preserve">
<g>
	<g>
		<g>
			<g>
				<path fill="#FFFFFF" d="M75.995,66.384h-9.655h-9.655c-0.761,0-1.379,0.619-1.379,1.38v12.414h22.069V67.764
					C77.373,67.003,76.755,66.384,75.995,66.384z"/>
				<path fill="#FFFFFF" d="M66.339,53.971c-2.282,0-4.138,1.855-4.138,4.138c0,2.281,1.856,4.138,4.138,4.138
					c2.282,0,4.138-1.857,4.138-4.138C70.477,55.826,68.621,53.971,66.339,53.971z"/>
			</g>
			<g>
				<path fill="#FFFFFF" d="M51.167,66.384h-9.655h-9.655c-0.761,0-1.379,0.619-1.379,1.38v12.414h22.069V67.764
					C52.546,67.003,51.928,66.384,51.167,66.384z"/>
				<path fill="#FFFFFF" d="M41.512,53.971c-2.282,0-4.138,1.855-4.138,4.138c0,2.281,1.857,4.138,4.138,4.138
					c2.282,0,4.138-1.857,4.138-4.138C45.649,55.826,43.793,53.971,41.512,53.971z"/>
			</g>
			<g>
				<g>
					<path fill="#FFFFFF" d="M26.339,66.384h-9.655H7.029c-0.761,0-1.379,0.619-1.379,1.38v12.414h22.069V67.764
						C27.719,67.003,27.1,66.384,26.339,66.384z"/>
					<path fill="#FFFFFF" d="M16.684,53.971c-2.282,0-4.138,1.855-4.138,4.138c0,2.281,1.856,4.138,4.138,4.138
						c2.282,0,4.138-1.857,4.138-4.138C20.822,55.826,18.966,53.971,16.684,53.971z"/>
				</g>
				<path fill="#010101" d="M75.995,63.626h-5.557c1.689-1.259,2.798-3.252,2.798-5.518c0-3.807-3.087-6.896-6.896-6.896
					c-3.807,0-6.896,3.09-6.896,6.896c0,2.266,1.11,4.259,2.797,5.518h-5.556c-1.064,0-2.024,0.414-2.759,1.076
					c-0.734-0.662-1.694-1.076-2.758-1.076H45.61c1.689-1.259,2.798-3.252,2.798-5.518c0-3.807-3.087-6.896-6.896-6.896
					c-3.807,0-6.896,3.09-6.896,6.896c0,2.266,1.11,4.259,2.797,5.518h-5.556c-1.064,0-2.024,0.414-2.759,1.076
					c-0.734-0.662-1.694-1.076-2.758-1.076h-5.557c1.689-1.259,2.798-3.252,2.798-5.518c0-3.807-3.087-6.896-6.896-6.896
					c-3.807,0-6.896,3.09-6.896,6.896c0,2.266,1.11,4.259,2.797,5.518H7.029c-2.282,0-4.138,1.855-4.138,4.138v15.172h24.828h2.758
					h22.069h2.759h24.828V67.764C80.132,65.481,78.276,63.626,75.995,63.626z M62.201,58.108c0-2.282,1.856-4.138,4.138-4.138
					c2.282,0,4.138,1.855,4.138,4.138c0,2.281-1.856,4.138-4.138,4.138C64.058,62.246,62.201,60.39,62.201,58.108z M37.373,58.108
					c0-2.282,1.857-4.138,4.138-4.138c2.282,0,4.138,1.855,4.138,4.138c0,2.281-1.856,4.138-4.138,4.138
					C39.23,62.246,37.373,60.39,37.373,58.108z M12.546,58.108c0-2.282,1.856-4.138,4.138-4.138c2.282,0,4.138,1.855,4.138,4.138
					c0,2.281-1.856,4.138-4.138,4.138C14.402,62.246,12.546,60.39,12.546,58.108z M27.719,80.178H24.96v-8.276h-2.759v8.276H11.167
					v-8.276H8.408v8.276H5.649V67.764c0-0.761,0.619-1.38,1.379-1.38h9.655h9.655c0.761,0,1.379,0.619,1.379,1.38V80.178z
					 M52.546,80.178h-2.758v-8.276h-2.759v8.276H35.995v-8.276h-2.759v8.276h-2.759V67.764c0-0.761,0.618-1.38,1.379-1.38h9.655
					h9.655c0.761,0,1.379,0.619,1.379,1.38V80.178z M77.373,80.178h-2.758v-8.276h-2.759v8.276H60.822v-8.276h-2.758v8.276h-2.759
					V67.764c0-0.761,0.618-1.38,1.379-1.38h9.655h9.655c0.761,0,1.379,0.619,1.379,1.38V80.178z"/>
			</g>
		</g>
		<g>
			<path fill="#FFFFFF" d="M2.891,38.798h9.655h1.706l0.762,1.525l1.67,3.342l1.67-3.342l0.762-1.525h1.705h16.552h1.706
				l0.762,1.525l1.67,3.342l1.67-3.342l0.762-1.525h1.705h16.552h1.706l0.762,1.525l1.671,3.342l1.67-3.342l0.763-1.525h1.705h9.655
				V2.935H2.891V38.798z M27.739,16.119c-0.007-0.127-0.02-0.254-0.02-0.383c0-5.078,4.324-9.194,9.655-9.194
				c3.432,0,6.438,1.711,8.151,4.277c0.984-0.627,2.17-0.993,3.445-0.993c3.426,0,6.206,2.646,6.206,5.91
				c0,0.118-0.009,0.234-0.018,0.351c4.062,1.085,7.043,4.632,7.043,8.847c0,5.078-4.321,9.194-9.655,9.194H30.477
				c-5.334,0-9.655-4.116-9.655-9.194C20.822,20.762,23.741,17.243,27.739,16.119z"/>
			<path fill="#010101" d="M0.132,0.178v41.379h12.414l4.138,8.275l4.138-8.275h16.552l4.138,8.275l4.138-8.275h16.552l4.138,8.275
				l4.138-8.275h12.414V0.178H0.132z M80.132,38.798h-9.655h-1.705l-0.763,1.525l-1.67,3.342l-1.671-3.342l-0.762-1.525h-1.706
				H45.649h-1.705l-0.762,1.525l-1.67,3.342l-1.67-3.342l-0.762-1.525h-1.706H20.822h-1.705l-0.762,1.525l-1.67,3.342l-1.67-3.342
				l-0.762-1.525h-1.706H2.891V2.935h77.241V38.798z"/>
			<path fill="#FFFFFF" d="M30.477,31.369h22.069c3.803,0,6.897-2.887,6.897-6.436c0-2.852-2.056-5.394-4.998-6.183l-2.197-0.588
				l0.158-2.268l0.011-0.167c0-1.73-1.546-3.145-3.447-3.145c-0.708,0-1.387,0.194-1.962,0.563l-2.278,1.451l-1.5-2.248
				c-1.273-1.908-3.463-3.049-5.856-3.049c-3.804,0-6.896,2.888-6.896,6.435l0.003,0.039l0.013,0.212l0.105,2.192l-2.112,0.594
				c-2.888,0.813-4.906,3.347-4.906,6.16C23.581,28.482,26.675,31.369,30.477,31.369z"/>
			<path fill="#010101" d="M30.477,34.128h22.069c5.335,0,9.655-4.116,9.655-9.194c0-4.215-2.982-7.762-7.043-8.847
				c0.008-0.116,0.018-0.232,0.018-0.351c0-3.265-2.78-5.91-6.206-5.91c-1.275,0-2.461,0.366-3.445,0.993
				c-1.713-2.566-4.719-4.277-8.151-4.277c-5.331,0-9.655,4.116-9.655,9.194c0,0.129,0.013,0.256,0.02,0.383
				c-3.998,1.124-6.917,4.643-6.917,8.814C20.822,30.012,25.143,34.128,30.477,34.128z M28.486,18.773l2.112-0.594l-0.105-2.192
				l-0.013-0.212l-0.003-0.039c0-3.548,3.093-6.435,6.896-6.435c2.393,0,4.583,1.141,5.856,3.049l1.5,2.248l2.278-1.451
				c0.575-0.368,1.254-0.563,1.962-0.563c1.901,0,3.447,1.415,3.447,3.145l-0.011,0.167l-0.158,2.268l2.197,0.588
				c2.942,0.788,4.998,3.33,4.998,6.183c0,3.549-3.094,6.436-6.897,6.436H30.477c-3.802,0-6.896-2.887-6.896-6.436
				C23.581,22.12,25.599,19.586,28.486,18.773z"/>
		</g>
	</g>
</g>
</svg>
